SplineFontDB: 3.2
FontName: Dyslexic-Regular
FullName: Dyslexic Regular
FamilyName: Dyslexic
Weight: Regular
Copyright: Copyright (c) 2008 by Christian Theo Boer, Dyslexie Patent B.V. . All rights reserved. last adjustment 2018
Version: 2008 / 2011 / 2013 / 2017 / 2018
ItalicAngle: 0
UnderlinePosition: -205
UnderlineWidth: 102
Ascent: 1638
Descent: 410
InvalidEm: 0
sfntRevision: 0x00040000
woffMajor: 1
woffMinor: 0
LayerCount: 2
Layer: 0 1 "Back" 1
Layer: 1 1 "Fore" 0
XUID: [1021 706 1424211205 15726751]
StyleMap: 0x0040
FSType: 4
OS2Version: 4
OS2_WeightWidthSlopeOnly: 0
OS2_UseTypoMetrics: 0
CreationTime: 1502326528
ModificationTime: 1750671016
PfmFamily: 81
TTFWeight: 400
TTFWidth: 5
LineGap: 717
VLineGap: 0
Panose: 0 0 0 0 0 0 0 0 0 0
OS2TypoAscent: 1913
OS2TypoAOffset: 0
OS2TypoDescent: -684
OS2TypoDOffset: 0
OS2TypoLinegap: 717
OS2WinAscent: 2488
OS2WinAOffset: 0
OS2WinDescent: 690
OS2WinDOffset: 0
HheadAscent: 2488
HheadAOffset: 0
HheadDescent: -717
HheadDOffset: 0
OS2SubXSize: 1434
OS2SubYSize: 1331
OS2SubXOff: 0
OS2SubYOff: 287
OS2SupXSize: 1434
OS2SupYSize: 1331
OS2SupXOff: 0
OS2SupYOff: 977
OS2StrikeYSize: 102
OS2StrikeYPos: 512
OS2CapHeight: 1915
OS2XHeight: 1214
OS2Vendor: 'pyrs'
OS2CodePages: 00000093.44000000
OS2UnicodeRanges: a00002af.1000204a.00000000.00000000
MarkAttachClasses: 1
DEI: 91125
TtTable: prep
PUSHW_1
 0
CALL
SVTCA[y-axis]
PUSHW_3
 1
 5
 2
CALL
SVTCA[x-axis]
PUSHW_3
 6
 5
 2
CALL
SVTCA[x-axis]
PUSHW_8
 6
 28
 25
 20
 14
 10
 0
 8
CALL
PUSHW_8
 7
 79
 60
 47
 34
 22
 0
 8
CALL
PUSHW_8
 8
 49
 40
 28
 20
 18
 0
 8
CALL
PUSHW_8
 9
 39
 34
 28
 20
 10
 0
 8
CALL
PUSHW_8
 10
 33
 25
 20
 14
 10
 0
 8
CALL
SVTCA[y-axis]
PUSHW_8
 1
 73
 60
 47
 34
 18
 0
 8
CALL
PUSHW_8
 2
 67
 60
 47
 34
 18
 0
 8
CALL
PUSHW_8
 3
 43
 34
 28
 20
 10
 0
 8
CALL
PUSHW_8
 4
 33
 25
 20
 14
 10
 0
 8
CALL
PUSHW_8
 5
 28
 25
 20
 14
 10
 0
 8
CALL
SVTCA[y-axis]
PUSHW_3
 11
 4
 7
CALL
PUSHW_1
 0
DUP
RCVT
RDTG
ROUND[Black]
RTG
WCVTP
EndTTInstrs
TtTable: fpgm
PUSHW_1

StartChar: e
Encoding: 101 101 4
Width: 1397
Flags: W
LayerCount: 2
Fore
SplineSet
1249 307 m 1,0,1
 1248 256 1248 256 1232.5 215 c 128,-1,2
 1217 174 1217 174 1194.5 142 c 128,-1,3
 1172 110 1172 110 1145.5 86.5 c 128,-1,4
 1119 63 1119 63 1096 45 c 0,5,6
 1042 5 1042 5 986 -12 c 128,-1,7
 930 -29 930 -29 881 -37 c 0,8,9
 862 -39 862 -39 838.5 -40.5 c 128,-1,10
 815 -42 815 -42 789.5 -42.5 c 128,-1,11
 764 -43 764 -43 738 -43 c 128,-1,12
 712 -43 712 -43 688 -43 c 0,13,14
 576 -43 576 -43 480 -7 c 128,-1,15
 384 29 384 29 305 111 c 0,16,17
 227 194 227 194 183 305 c 128,-1,18
 139 416 139 416 139 565 c 0,19,20
 139 712 139 712 183 835 c 128,-1,21
 227 958 227 958 307 1051 c 0,22,23
 386 1144 386 1144 489.5 1198.5 c 128,-1,24
 593 1253 593 1253 721 1253 c 0,25,26
 809 1253 809 1253 870.5 1235.5 c 128,-1,27
 932 1218 932 1218 975 1196 c 0,28,29
 996 1186 996 1186 1021 1169 c 128,-1,30
 1046 1152 1046 1152 1070.5 1130 c 128,-1,31
 1095 1108 1095 1108 1117.5 1081.5 c 128,-1,32
 1140 1055 1140 1055 1155 1026 c 0,33,34
 1181 977 1181 977 1203.5 925 c 128,-1,35
 1226 873 1226 873 1237 811 c 1,36,37
 1244 741 1244 741 1221.5 691.5 c 128,-1,38
 1199 642 1199 642 1154.5 609.5 c 128,-1,39
 1110 577 1110 577 1047.5 561 c 128,-1,40
 985 545 985 545 911 543 c 2,41,-1
 381 514 l 1,42,43
 382 490 382 490 386 463.5 c 128,-1,44
 390 437 390 437 397.5 411 c 128,-1,45
 405 385 405 385 417 361 c 128,-1,46
 429 337 429 337 446 317 c 0,47,48
 465 294 465 294 485.5 276 c 128,-1,49
 506 258 506 258 533.5 245 c 128,-1,50
 561 232 561 232 598.5 225.5 c 128,-1,51
 636 219 636 219 688 219 c 0,52,53
 727 220 727 220 764.5 220.5 c 128,-1,54
 802 221 802 221 834 222.5 c 128,-1,55
 866 224 866 224 890.5 227 c 128,-1,56
 915 230 915 230 930 236 c 0,57,58
 947 242 947 242 964.5 256 c 128,-1,59
 982 270 982 270 987 307 c 1,60,-1
 1249 307 l 1,0,1
471 965 m 0,61,62
 425 914 425 914 399.5 839.5 c 128,-1,63
 374 765 374 765 371 686 c 1,64,-1
 891 713 l 2,65,66
 994 716 994 716 1025 774 c 128,-1,67
 1056 832 1056 832 1008 934 c 0,68,69
 970 1011 970 1011 898 1054.5 c 128,-1,70
 826 1098 826 1098 727 1098 c 0,71,72
 679 1098 679 1098 642 1087 c 128,-1,73
 605 1076 605 1076 575 1057.5 c 128,-1,74
 545 1039 545 1039 520 1015 c 128,-1,75
 495 991 495 991 471 965 c 0,61,62
EndSplineSet
EndChar

StartChar: f
Encoding: 102 102 5
Width: 1020
Flags: W
LayerCount: 2
Fore
SplineSet
315 1028 m 1,0,-1
 66 1028 l 1,1,-1
 66 1212 l 1,2,-1
 319 1212 l 1,3,-1
 330 1585 l 2,4,5
 332 1661 332 1661 338.5 1719 c 128,-1,6
 345 1777 345 1777 362 1808 c 0,7,8
 381 1842 381 1842 409.5 1866 c 128,-1,9
 438 1890 438 1890 494 1903 c 0,10,11
 507 1906 507 1906 526.5 1908 c 128,-1,12
 546 1910 546 1910 567.5 1911 c 128,-1,13
 589 1912 589 1912 611 1912.5 c 128,-1,14
 633 1913 633 1913 651 1913 c 0,15,16
 671 1913 671 1913 692.5 1913 c 128,-1,17
 714 1913 714 1913 736.5 1910.5 c 128,-1,18
 759 1908 759 1908 783.5 1901.5 c 128,-1,19
 808 1895 808 1895 834 1882 c 0,20,21
 855 1873 855 1873 868 1861 c 128,-1,22
 881 1849 881 1849 893 1835 c 1,23,-1
 840 1651 l 1,24,25
 833 1679 833 1679 822.5 1696 c 128,-1,26
 812 1713 812 1713 800 1722.5 c 128,-1,27
 788 1732 788 1732 774 1736 c 128,-1,28
 760 1740 760 1740 745 1743 c 0,29,30
 740 1745 740 1745 728 1745.5 c 128,-1,31
 716 1746 716 1746 702 1746 c 128,-1,32
 688 1746 688 1746 672.5 1746 c 128,-1,33
 657 1746 657 1746 645 1745 c 0,34,35
 627 1744 627 1744 607.5 1734.5 c 128,-1,36
 588 1725 588 1725 572.5 1709.5 c 128,-1,37
 557 1694 557 1694 547 1674 c 128,-1,38
 537 1654 537 1654 537 1632 c 0,39,40
 537 1623 537 1623 537 1597.5 c 128,-1,41
 537 1572 537 1572 536.5 1536.5 c 128,-1,42
 536 1501 536 1501 536 1458 c 128,-1,43
 536 1415 536 1415 535.5 1371.5 c 128,-1,44
 535 1328 535 1328 535 1286.5 c 128,-1,45
 535 1245 535 1245 535 1212 c 1,46,-1
 838 1212 l 1,47,-1
 838 1028 l 1,48,-1
 539 1028 l 1,49,-1
 557 219 l 1,50,-1
 473 0 l 1,51,-1
 295 0 l 1,52,-1
 315 1028 l 1,0,-1
EndSplineSet
EndChar

StartChar: g
Encoding: 103 103 6
Width: 1389
Flags: W
LayerCount: 2
Fore
SplineSet
1249 1214 m 1,0,1
 1233 1169 1233 1169 1221 1123 c 0,2,3
 1210 1083 1210 1083 1201 1036.5 c 128,-1,4
 1192 990 1192 990 1192 948 c 0,5,6
 1192 937 1192 937 1192 894.5 c 128,-1,7
 1192 852 1192 852 1191.5 790.5 c 128,-1,8
 1191 729 1191 729 1190.5 654.5 c 128,-1,9
 1190 580 1190 580 1189 503 c 0,10,11
 1188 324 1188 324 1186 104 c 0,12,13
 1186 -1 1186 -1 1182 -87.5 c 128,-1,14
 1178 -174 1178 -174 1169 -244 c 128,-1,15
 1160 -314 1160 -314 1145 -369.5 c 128,-1,16
 1130 -425 1130 -425 1108 -467 c 0,17,18
 1074 -529 1074 -529 1028.5 -570.5 c 128,-1,19
 983 -612 983 -612 924 -637.5 c 128,-1,20
 865 -663 865 -663 790.5 -674 c 128,-1,21
 716 -685 716 -685 625 -684 c 0,22,23
 552 -684 552 -684 504.5 -680.5 c 128,-1,24
 457 -677 457 -677 423 -668 c 128,-1,25
 389 -659 389 -659 361.5 -643.5 c 128,-1,26
 334 -628 334 -628 301 -604 c 0,27,28
 275 -585 275 -585 251 -556.5 c 128,-1,29
 227 -528 227 -528 208 -487 c 128,-1,30
 189 -446 189 -446 175.5 -391.5 c 128,-1,31
 162 -337 162 -337 156 -266 c 1,32,-1
 416 -342 l 1,33,34
 422 -363 422 -363 426.5 -376.5 c 128,-1,35
 431 -390 431 -390 436.5 -399 c 128,-1,36
 442 -408 442 -408 449.5 -414 c 128,-1,37
 457 -420 457 -420 469 -426 c 0,38,39
 494 -440 494 -440 534.5 -446.5 c 128,-1,40
 575 -453 575 -453 643 -453 c 0,41,42
 681 -453 681 -453 724 -450 c 128,-1,43
 767 -447 767 -447 807 -433 c 128,-1,44
 847 -419 847 -419 881 -391 c 128,-1,45
 915 -363 915 -363 936 -313 c 0,46,47
 946 -289 946 -289 952 -239.5 c 128,-1,48
 958 -190 958 -190 961 -127.5 c 128,-1,49
 964 -65 964 -65 965 3.5 c 128,-1,50
 966 72 966 72 965 135 c 1,51,52
 952 109 952 109 933 82.5 c 128,-1,53
 914 56 914 56 877 27 c 0,54,55
 838 -4 838 -4 783 -23.5 c 128,-1,56
 728 -43 728 -43 649 -43 c 0,57,58
 550 -43 550 -43 460.5 -4 c 128,-1,59
 371 35 371 35 297 104 c 0,60,61
 224 175 224 175 181.5 288.5 c 128,-1,62
 139 402 139 402 139 565 c 0,63,64
 139 641 139 641 145 713 c 128,-1,65
 151 785 151 785 166 849 c 128,-1,66
 181 913 181 913 206 968.5 c 128,-1,67
 231 1024 231 1024 268 1067 c 256,68,69
 305 1110 305 1110 347.5 1145 c 128,-1,70
 390 1180 390 1180 436.5 1204 c 128,-1,71
 483 1228 483 1228 533 1241 c 128,-1,72
 583 1254 583 1254 635 1253 c 0,73,74
 688 1252 688 1252 724 1248.5 c 128,-1,75
 760 1245 760 1245 786.5 1238.5 c 128,-1,76
 813 1232 813 1232 833 1223 c 128,-1,77
 853 1214 853 1214 874 1202 c 0,78,79
 887 1195 887 1195 904 1181 c 128,-1,80
 921 1167 921 1167 937.5 1150 c 128,-1,81
 954 1133 954 1133 967 1114 c 128,-1,82
 980 1095 980 1095 985 1079 c 1,83,-1
 1034 1214 l 1,84,-1
 1249 1214 l 1,0,1
930 336 m 0,85,86
 943 354 943 354 953.5 375.5 c 128,-1,87
 964 397 964 397 972 427 c 128,-1,88
 980 457 980 457 985 497 c 128,-1,89
 990 537 990 537 991 592 c 0,90,91
 992 649 992 649 989 702.5 c 128,-1,92
 986 756 986 756 978.5 803.5 c 128,-1,93
 971 851 971 851 957 890.5 c 128,-1,94
 943 930 943 930 922 958 c 0,95,96
 900 987 900 987 874 1012.5 c 128,-1,97
 848 1038 848 1038 818 1057 c 128,-1,98
 788 1076 788 1076 754.5 1087 c 128,-1,99
 721 1098 721 1098 686 1098 c 0,100,101
 578 1098 578 1098 508 1045.5 c 128,-1,102
 438 993 438 993 397 891 c 0,103,104
 390 874 390 874 384.5 842 c 128,-1,105
 379 810 379 810 375 769.5 c 128,-1,106
 371 729 371 729 370 683 c 128,-1,107
 369 637 369 637 371 592 c 0,108,109
 377 489 377 489 394.5 416 c 128,-1,110
 412 343 412 343 453 297 c 0,111,112
 491 253 491 253 541.5 236 c 128,-1,113
 592 219 592 219 666 219 c 0,114,115
 731 220 731 220 772.5 228 c 128,-1,116
 814 236 814 236 842.5 251 c 128,-1,117
 871 266 871 266 890.5 287.5 c 128,-1,118
 910 309 910 309 930 336 c 0,85,86
EndSplineSet
EndChar

StartChar: h
Encoding: 104 104 7
Width: 1384
Flags: W
LayerCount: 2
Fore
SplineSet
961 989 m 0,0,1
 948 1011 948 1011 928.5 1030.5 c 128,-1,2
 909 1050 909 1050 883 1065 c 128,-1,3
 857 1080 857 1080 824.5 1089 c 128,-1,4
 792 1098 792 1098 754 1098 c 0,5,6
 623 1098 623 1098 522 991 c 0,7,8
 498 966 498 966 484.5 927.5 c 128,-1,9
 471 889 471 889 465 840.5 c 128,-1,10
 459 792 459 792 458 735.5 c 128,-1,11
 457 679 457 679 457 618 c 2,12,-1
 455 0 l 1,13,-1
 186 0 l 1,14,-1
 219 1012 l 1,15,-1
 258 1913 l 1,16,-1
 471 1913 l 1,17,-1
 449 1145 l 1,18,19
 463 1160 463 1160 486.5 1178.5 c 128,-1,20
 510 1197 510 1197 555 1217 c 0,21,22
 644 1253 644 1253 797 1253 c 0,23,24
 930 1253 930 1253 1024.5 1211 c 128,-1,25
 1119 1169 1119 1169 1167 1075 c 0,26,27
 1179 1050 1179 1050 1189 1010 c 128,-1,28
 1199 970 1199 970 1205.5 924 c 128,-1,29
 1212 878 1212 878 1216 830.5 c 128,-1,30
 1220 783 1220 783 1221 743 c 0,31,32
 1221 723 1221 723 1222 680.5 c 128,-1,33
 1223 638 1223 638 1224.5 582 c 128,-1,34
 1226 526 1226 526 1227.5 461.5 c 128,-1,35
 1229 397 1229 397 1230 332 c 0,36,37
 1233 180 1233 180 1237 0 c 1,38,-1
 969 0 l 1,39,-1
 985 729 l 2,40,41
 985 763 985 763 985.5 799.5 c 128,-1,42
 986 836 986 836 984.5 871 c 128,-1,43
 983 906 983 906 977.5 937 c 128,-1,44
 972 968 972 968 961 989 c 0,0,1
EndSplineSet
EndChar

StartChar: i
Encoding: 105 105 8
Width: 700
Flags: W
LayerCount: 2
Fore
SplineSet
485 0 m 1,0,-1
 217 0 l 1,1,-1
 244 1214 l 1,2,-1
 459 1214 l 1,3,-1
 485 0 l 1,0,-1
510 1702 m 0,4,5
 510 1669 510 1669 497.5 1639.5 c 128,-1,6
 485 1610 485 1610 463 1588 c 128,-1,7
 441 1566 441 1566 412 1553 c 128,-1,8
 383 1540 383 1540 350 1540 c 0,9,10
 316 1540 316 1540 286.5 1553 c 128,-1,11
 257 1566 257 1566 235 1588 c 128,-1,12
 213 1610 213 1610 200.5 1639.5 c 128,-1,13
 188 1669 188 1669 188 1702 c 0,14,15
 188 1736 188 1736 200.5 1765.5 c 128,-1,16
 213 1795 213 1795 235 1817 c 128,-1,17
 257 1839 257 1839 286.5 1851.5 c 128,-1,18
 316 1864 316 1864 350 1864 c 0,19,20
 383 1864 383 1864 412 1851.5 c 128,-1,21
 441 1839 441 1839 463 1817 c 128,-1,22
 485 1795 485 1795 497.5 1765.5 c 128,-1,23
 510 1736 510 1736 510 1702 c 0,4,5
EndSplineSet
EndChar

StartChar: j
Encoding: 106 106 9
Width: 891
Flags: W
LayerCount: 2
Fore
SplineSet
324 4 m 0,0,1
 325 32 325 32 328.5 98.5 c 128,-1,2
 332 165 332 165 337 255.5 c 128,-1,3
 342 346 342 346 348.5 452.5 c 128,-1,4
 355 559 355 559 361 665 c 0,5,6
 376 914 376 914 395 1214 c 1,7,-1
 608 1214 l 1,8,9
 596 922 596 922 586 676 c 0,10,11
 582 571 582 571 577.5 465 c 128,-1,12
 573 359 573 359 569 267.5 c 128,-1,13
 565 176 565 176 562.5 106 c 128,-1,14
 560 36 560 36 559 2 c 0,15,16
 557 -63 557 -63 554.5 -107.5 c 128,-1,17
 552 -152 552 -152 549 -189.5 c 128,-1,18
 546 -227 546 -227 543 -265 c 128,-1,19
 540 -303 540 -303 537 -354 c 0,20,21
 533 -410 533 -410 526.5 -448.5 c 128,-1,22
 520 -487 520 -487 510 -515.5 c 128,-1,23
 500 -544 500 -544 486 -565.5 c 128,-1,24
 472 -587 472 -587 453 -608 c 0,25,26
 434 -627 434 -627 415 -641.5 c 128,-1,27
 396 -656 396 -656 370 -666 c 128,-1,28
 344 -676 344 -676 307.5 -681 c 128,-1,29
 271 -686 271 -686 217 -686 c 256,30,31
 163 -686 163 -686 123.5 -673.5 c 128,-1,32
 84 -661 84 -661 58 -645 c 0,33,34
 27 -627 27 -627 6 -604 c 1,35,-1
 94 -422 l 1,36,37
 102 -431 102 -431 113 -438 c 0,38,39
 123 -443 123 -443 137 -448 c 128,-1,40
 151 -453 151 -453 170 -453 c 0,41,42
 190 -453 190 -453 211 -448.5 c 128,-1,43
 232 -444 232 -444 250.5 -431 c 128,-1,44
 269 -418 269 -418 283 -394 c 128,-1,45
 297 -370 297 -370 301 -330 c 0,46,47
 306 -290 306 -290 309 -253.5 c 128,-1,48
 312 -217 312 -217 315 -178 c 128,-1,49
 318 -139 318 -139 320 -95 c 128,-1,50
 322 -51 322 -51 324 4 c 0,0,1
664 1751 m 0,51,52
 664 1785 664 1785 651.5 1814.5 c 128,-1,53
 639 1844 639 1844 617 1866 c 128,-1,54
 595 1888 595 1888 566 1900.5 c 128,-1,55
 537 1913 537 1913 504 1913 c 0,56,57
 470 1913 470 1913 440.5 1900.5 c 128,-1,58
 411 1888 411 1888 389 1866 c 128,-1,59
 367 1844 367 1844 354.5 1814.5 c 128,-1,60
 342 1785 342 1785 342 1751 c 0,61,62
 342 1718 342 1718 354.5 1688.5 c 128,-1,63
 367 1659 367 1659 389 1637 c 128,-1,64
 411 1615 411 1615 440.5 1602 c 128,-1,65
 470 1589 470 1589 504 1589 c 0,66,67
 537 1589 537 1589 566 1602 c 128,-1,68
 595 1615 595 1615 617 1637 c 128,-1,69
 639 1659 639 1659 651.5 1688.5 c 128,-1,70
 664 1718 664 1718 664 1751 c 0,51,52
EndSplineSet
EndChar

StartChar: k
Encoding: 107 107 10
Width: 1303
Flags: W
LayerCount: 2
Fore
SplineSet
524 733 m 1,0,-1
 1155 90 l 1,1,-1
 1155 0 l 1,2,-1
 889 0 l 1,3,-1
 393 575 l 1,4,-1
 408 0 l 1,5,-1
 139 0 l 1,6,7
 144 195 144 195 148 373 c 0,8,9
 150 449 150 449 152 529 c 128,-1,10
 154 609 154 609 155.5 684 c 128,-1,11
 157 759 157 759 158 825.5 c 128,-1,12
 159 892 159 892 160 940 c 0,13,14
 160 977 160 977 161.5 1050 c 128,-1,15
 163 1123 163 1123 166 1212 c 0,16,17
 168 1268 168 1268 170.5 1327.5 c 128,-1,18
 173 1387 173 1387 175.5 1447 c 128,-1,19
 178 1507 178 1507 180.5 1564.5 c 128,-1,20
 183 1622 183 1622 185 1674 c 0,21,22
 191 1795 191 1795 197 1913 c 1,23,-1
 410 1913 l 1,24,25
 402 1780 402 1780 396 1653 c 0,26,27
 393 1598 393 1598 390.5 1539.5 c 128,-1,28
 388 1481 388 1481 385.5 1423 c 128,-1,29
 383 1365 383 1365 382 1311 c 128,-1,30
 381 1257 381 1257 381 1212 c 0,31,32
 381 1161 381 1161 382 1101.5 c 128,-1,33
 383 1042 383 1042 384 989 c 0,34,35
 385 929 385 929 387 868 c 1,36,-1
 813 1212 l 1,37,-1
 1104 1212 l 1,38,-1
 524 733 l 1,0,-1
EndSplineSet
EndChar

StartChar: l
Encoding: 108 108 11
Width: 854
Flags: W
LayerCount: 2
Fore
SplineSet
397 1913 m 1,0,1
 398 1785 398 1785 398 1659 c 0,2,3
 398 1605 398 1605 397.5 1547 c 128,-1,4
 397 1489 397 1489 396.5 1430.5 c 128,-1,5
 396 1372 396 1372 394.5 1316 c 128,-1,6
 393 1260 393 1260 391 1212 c 0,7,8
 389 1163 389 1163 387.5 1097 c 128,-1,9
 386 1031 386 1031 385.5 957.5 c 128,-1,10
 385 884 385 884 384.5 806.5 c 128,-1,11
 384 729 384 729 384 655 c 0,12,13
 384 482 384 482 385 295 c 0,14,15
 382 250 382 250 397 231 c 0,16,17
 405 220 405 220 426.5 219.5 c 128,-1,18
 448 219 448 219 483 219 c 2,19,-1
 594 219 l 1,20,-1
 684 0 l 1,21,-1
 283 0 l 2,22,23
 254 0 254 0 225.5 13 c 128,-1,24
 197 26 197 26 180 49 c 0,25,26
 165 68 165 68 156 87 c 128,-1,27
 147 106 147 106 147 135 c 2,28,-1
 147 219 l 2,29,30
 147 221 147 221 147.5 254 c 128,-1,31
 148 287 148 287 149.5 342 c 128,-1,32
 151 397 151 397 153 469 c 128,-1,33
 155 541 155 541 156.5 621 c 128,-1,34
 158 701 158 701 160.5 784.5 c 128,-1,35
 163 868 163 868 165 946.5 c 128,-1,36
 167 1025 167 1025 169 1093 c 128,-1,37
 171 1161 171 1161 172 1210 c 0,38,39
 174 1258 174 1258 175 1314 c 128,-1,40
 176 1370 176 1370 177 1428.5 c 128,-1,41
 178 1487 178 1487 179 1545.5 c 128,-1,42
 180 1604 180 1604 180 1658 c 0,43,44
 181 1784 181 1784 182 1913 c 1,45,-1
 397 1913 l 1,0,1
EndSplineSet
EndChar

StartChar: m
Encoding: 109 109 12
Width: 1962
Flags: W
LayerCount: 2
Fore
SplineSet
819 997 m 0,0,1
 806 1017 806 1017 789.5 1035 c 128,-1,2
 773 1053 773 1053 750.5 1067 c 128,-1,3
 728 1081 728 1081 698 1089.5 c 128,-1,4
 668 1098 668 1098 627 1098 c 0,5,6
 591 1098 591 1098 563.5 1092 c 128,-1,7
 536 1086 536 1086 514 1073 c 128,-1,8
 492 1060 492 1060 473.5 1041.5 c 128,-1,9
 455 1023 455 1023 436 997 c 0,10,11
 415 970 415 970 403 932 c 128,-1,12
 391 894 391 894 389 848 c 0,13,14
 389 806 389 806 391 756.5 c 128,-1,15
 393 707 393 707 391 647 c 0,16,17
 391 632 391 632 391.5 596 c 128,-1,18
 392 560 392 560 393.5 511.5 c 128,-1,19
 395 463 395 463 396.5 406.5 c 128,-1,20
 398 350 398 350 400 293 c 0,21,22
 403 159 403 159 408 0 c 1,23,-1
 139 0 l 1,24,-1
 162 1214 l 1,25,-1
 373 1214 l 1,26,-1
 373 1126 l 1,27,28
 396 1152 396 1152 421 1171 c 128,-1,29
 446 1190 446 1190 481 1208 c 0,30,31
 493 1215 493 1215 508.5 1223 c 128,-1,32
 524 1231 524 1231 547 1237.5 c 128,-1,33
 570 1244 570 1244 602.5 1248.5 c 128,-1,34
 635 1253 635 1253 680 1253 c 0,35,36
 754 1253 754 1253 804.5 1235 c 128,-1,37
 855 1217 855 1217 889 1192 c 0,38,39
 946 1154 946 1154 985 1094 c 1,40,41
 1016 1131 1016 1131 1046 1158 c 128,-1,42
 1076 1185 1076 1185 1122 1208 c 0,43,44
 1146 1220 1146 1220 1176.5 1228.5 c 128,-1,45
 1207 1237 1207 1237 1239.5 1242 c 128,-1,46
 1272 1247 1272 1247 1305 1249.5 c 128,-1,47
 1338 1252 1338 1252 1366 1253 c 0,48,49
 1472 1253 1472 1253 1563.5 1213.5 c 128,-1,50
 1655 1174 1655 1174 1718 1094 c 0,51,52
 1765 1035 1765 1035 1787.5 964 c 128,-1,53
 1810 893 1810 893 1808 797 c 2,54,-1
 1823 0 l 1,55,-1
 1554 0 l 1,56,-1
 1573 846 l 2,57,58
 1572 881 1572 881 1565 909 c 128,-1,59
 1558 937 1558 937 1548 959 c 128,-1,60
 1538 981 1538 981 1526.5 997 c 128,-1,61
 1515 1013 1515 1013 1505 1022 c 0,62,63
 1490 1037 1490 1037 1474 1050.5 c 128,-1,64
 1458 1064 1458 1064 1438 1074.5 c 128,-1,65
 1418 1085 1418 1085 1393.5 1091.5 c 128,-1,66
 1369 1098 1369 1098 1337 1098 c 0,67,68
 1300 1098 1300 1098 1271 1090 c 128,-1,69
 1242 1082 1242 1082 1219.5 1069 c 128,-1,70
 1197 1056 1197 1056 1180.5 1040 c 128,-1,71
 1164 1024 1164 1024 1151 1008 c 0,72,73
 1116 962 1116 962 1107 924.5 c 128,-1,74
 1098 887 1098 887 1098 846 c 2,75,-1
 1114 0 l 1,76,-1
 848 0 l 1,77,-1
 864 846 l 2,78,79
 864 888 864 888 852.5 926.5 c 128,-1,80
 841 965 841 965 819 997 c 0,0,1
EndSplineSet
EndChar

StartChar: n
Encoding: 110 110 13
Width: 1413
Flags: W
LayerCount: 2
Fore
SplineSet
420 618 m 0,0,1
 420 603 420 603 420.5 569 c 128,-1,2
 421 535 421 535 422.5 488.5 c 128,-1,3
 424 442 424 442 425.5 387.5 c 128,-1,4
 427 333 427 333 428 279 c 0,5,6
 432 152 432 152 436 0 c 1,7,-1
 168 0 l 1,8,9
 181 229 181 229 190 422 c 0,10,11
 194 505 194 505 198 587.5 c 128,-1,12
 202 670 202 670 204.5 742 c 128,-1,13
 207 814 207 814 208.5 869 c 128,-1,14
 210 924 210 924 209 950 c 0,15,16
 208 983 208 983 205 1028 c 128,-1,17
 202 1073 202 1073 198 1115 c 0,18,19
 193 1163 193 1163 188 1214 c 1,20,-1
 401 1214 l 1,21,-1
 416 1016 l 1,22,23
 434 1045 434 1045 454.5 1073.5 c 128,-1,24
 475 1102 475 1102 497.5 1127.5 c 128,-1,25
 520 1153 520 1153 544 1173.5 c 128,-1,26
 568 1194 568 1194 592 1206 c 0,27,28
 641 1229 641 1229 696.5 1241 c 128,-1,29
 752 1253 752 1253 811 1253 c 0,30,31
 942 1253 942 1253 1029.5 1204.5 c 128,-1,32
 1117 1156 1117 1156 1163 1065 c 0,33,34
 1188 1014 1188 1014 1199 944.5 c 128,-1,35
 1210 875 1210 875 1212 778 c 0,36,37
 1213 754 1213 754 1215 707.5 c 128,-1,38
 1217 661 1217 661 1219.5 601.5 c 128,-1,39
 1222 542 1222 542 1224.5 474.5 c 128,-1,40
 1227 407 1227 407 1230 340 c 0,41,42
 1237 183 1237 183 1245 0 c 1,43,-1
 977 0 l 1,44,45
 983 164 983 164 986 282 c 128,-1,46
 989 400 989 400 991 482 c 128,-1,47
 993 564 993 564 994 615 c 128,-1,48
 995 666 995 666 995 696 c 128,-1,49
 995 726 995 726 995 741 c 128,-1,50
 995 756 995 756 995 766 c 0,51,52
 995 841 995 841 990.5 881.5 c 128,-1,53
 986 922 986 922 975 948 c 0,54,55
 964 973 964 973 949.5 999.5 c 128,-1,56
 935 1026 935 1026 912 1048 c 128,-1,57
 889 1070 889 1070 855.5 1084 c 128,-1,58
 822 1098 822 1098 774 1098 c 0,59,60
 737 1098 737 1098 699.5 1083.5 c 128,-1,61
 662 1069 662 1069 639 1051 c 0,62,63
 597 1019 597 1019 564 985.5 c 128,-1,64
 531 952 531 952 500 911 c 0,65,66
 475 879 475 879 460 853 c 128,-1,67
 445 827 445 827 434 788 c 0,68,69
 423 753 423 753 420.5 715.5 c 128,-1,70
 418 678 418 678 420 618 c 0,0,1
EndSplineSet
EndChar

StartChar: o
Encoding: 111 111 14
Width: 1466
Flags: W
LayerCount: 2
Fore
SplineSet
1145 1073 m 0,0,1
 1183 1028 1183 1028 1215 974.5 c 128,-1,2
 1247 921 1247 921 1270 859.5 c 128,-1,3
 1293 798 1293 798 1306 729.5 c 128,-1,4
 1319 661 1319 661 1319 584 c 0,5,6
 1319 440 1319 440 1273 327 c 128,-1,7
 1227 214 1227 214 1153 127 c 0,8,9
 1006 -43 1006 -43 756 -43 c 2,10,-1
 702 -43 l 2,11,12
 452 -43 452 -43 305 127 c 0,13,14
 231 214 231 214 185 327 c 128,-1,15
 139 440 139 440 139 584 c 0,16,17
 139 661 139 661 152 729.5 c 128,-1,18
 165 798 165 798 188 859.5 c 128,-1,19
 211 921 211 921 243 974.5 c 128,-1,20
 275 1028 275 1028 313 1073 c 0,21,22
 466 1250 466 1250 725 1253 c 2,23,-1
 737 1253 l 2,24,25
 992 1250 992 1250 1145 1073 c 0,0,1
1001 334 m 0,26,27
 1023 367 1023 367 1039 399.5 c 128,-1,28
 1055 432 1055 432 1065.5 467.5 c 128,-1,29
 1076 503 1076 503 1081.5 543.5 c 128,-1,30
 1087 584 1087 584 1087 633 c 0,31,32
 1087 683 1087 683 1080.5 725 c 128,-1,33
 1074 767 1074 767 1062 804.5 c 128,-1,34
 1050 842 1050 842 1032 877 c 128,-1,35
 1014 912 1014 912 991 946 c 0,36,37
 968 981 968 981 942 1009 c 128,-1,38
 916 1037 916 1037 885 1056.5 c 128,-1,39
 854 1076 854 1076 816.5 1087 c 128,-1,40
 779 1098 779 1098 733 1098 c 2,41,-1
 725 1098 l 2,42,43
 679 1098 679 1098 641.5 1086.5 c 128,-1,44
 604 1075 604 1075 573 1054.5 c 128,-1,45
 542 1034 542 1034 516 1006.5 c 128,-1,46
 490 979 490 979 467 946 c 0,47,48
 443 912 443 912 425 878 c 128,-1,49
 407 844 407 844 395 807 c 128,-1,50
 383 770 383 770 377 728 c 128,-1,51
 371 686 371 686 371 635 c 0,52,53
 371 587 371 587 375 546 c 128,-1,54
 379 505 379 505 388 469 c 128,-1,55
 397 433 397 433 412 400 c 128,-1,56
 427 367 427 367 449 334 c 0,57,58
 491 269 491 269 558.5 244 c 128,-1,59
 626 219 626 219 719 219 c 2,60,-1
 731 219 l 2,61,62
 824 219 824 219 891.5 244 c 128,-1,63
 959 269 959 269 1001 334 c 0,26,27
EndSplineSet
EndChar

StartChar: p
Encoding: 112 112 15
Width: 1386
Flags: W
LayerCount: 2
Fore
SplineSet
1077 1051 m 0,0,1
 1095 1025 1095 1025 1114.5 988.5 c 128,-1,2
 1134 952 1134 952 1153 910.5 c 128,-1,3
 1172 869 1172 869 1189 826.5 c 128,-1,4
 1206 784 1206 784 1219 745.5 c 128,-1,5
 1232 707 1232 707 1239.5 675.5 c 128,-1,6
 1247 644 1247 644 1247 625 c 0,7,8
 1247 595 1247 595 1242.5 554 c 128,-1,9
 1238 513 1238 513 1226 464 c 128,-1,10
 1214 415 1214 415 1192 358.5 c 128,-1,11
 1170 302 1170 302 1135 242 c 0,12,13
 1087 161 1087 161 1041 106 c 128,-1,14
 995 51 995 51 945.5 18 c 128,-1,15
 896 -15 896 -15 841 -29 c 128,-1,16
 786 -43 786 -43 719 -43 c 0,17,18
 685 -44 685 -44 656 -42 c 128,-1,19
 627 -40 627 -40 601.5 -35 c 128,-1,20
 576 -30 576 -30 552 -21.5 c 128,-1,21
 528 -13 528 -13 504 0 c 0,22,23
 462 23 462 23 442 49 c 128,-1,24
 422 75 422 75 408 104 c 1,25,-1
 406 -684 l 1,26,-1
 139 -684 l 1,27,28
 152 -462 152 -462 163 -250 c 0,29,30
 167 -160 167 -160 171 -62.5 c 128,-1,31
 175 35 175 35 178.5 130 c 128,-1,32
 182 225 182 225 184 313 c 128,-1,33
 186 401 186 401 186 473 c 0,34,35
 186 618 186 618 187.5 751 c 128,-1,36
 189 884 189 884 191 987 c 0,37,38
 192 1108 192 1108 195 1214 c 1,39,-1
 408 1214 l 1,40,-1
 410 1077 l 1,41,42
 421 1091 421 1091 436.5 1108 c 128,-1,43
 452 1125 452 1125 470 1141.5 c 128,-1,44
 488 1158 488 1158 507.5 1173.5 c 128,-1,45
 527 1189 527 1189 545 1200 c 0,46,47
 566 1213 566 1213 593 1223 c 128,-1,48
 620 1233 620 1233 649.5 1239.5 c 128,-1,49
 679 1246 679 1246 708.5 1249.5 c 128,-1,50
 738 1253 738 1253 764 1253 c 0,51,52
 815 1253 815 1253 859 1238 c 128,-1,53
 903 1223 903 1223 941 1196 c 128,-1,54
 979 1169 979 1169 1012.5 1132 c 128,-1,55
 1046 1095 1046 1095 1077 1051 c 0,0,1
942 399 m 0,56,57
 961 432 961 432 978 465 c 128,-1,58
 995 498 995 498 1008 527.5 c 128,-1,59
 1021 557 1021 557 1028.5 582 c 128,-1,60
 1036 607 1036 607 1036 625 c 0,61,62
 1036 646 1036 646 1025.5 682.5 c 128,-1,63
 1015 719 1015 719 1000.5 757 c 128,-1,64
 986 795 986 795 970.5 829 c 128,-1,65
 955 863 955 863 946 881 c 0,66,67
 920 929 920 929 897 968.5 c 128,-1,68
 874 1008 874 1008 849.5 1037 c 128,-1,69
 825 1066 825 1066 797 1082 c 128,-1,70
 769 1098 769 1098 733 1098 c 0,71,72
 676 1098 676 1098 625 1072 c 128,-1,73
 574 1046 574 1046 526 1006 c 0,74,75
 505 989 505 989 484 968 c 128,-1,76
 463 947 463 947 446 922.5 c 128,-1,77
 429 898 429 898 418 871 c 128,-1,78
 407 844 407 844 406 815 c 2,79,-1
 406 604 l 1,80,-1
 410 397 l 2,81,82
 413 372 413 372 421 355 c 128,-1,83
 429 338 429 338 442 324.5 c 128,-1,84
 455 311 455 311 472.5 300 c 128,-1,85
 490 289 490 289 512 276 c 0,86,87
 557 249 557 249 598.5 234 c 128,-1,88
 640 219 640 219 692 219 c 0,89,90
 743 220 743 220 781.5 236 c 128,-1,91
 820 252 820 252 849.5 277.5 c 128,-1,92
 879 303 879 303 901 335 c 128,-1,93
 923 367 923 367 942 399 c 0,56,57
EndSplineSet
EndChar

StartChar: q
Encoding: 113 113 16
Width: 1425
Flags: W
LayerCount: 2
Fore
SplineSet
1079 0 m 1,0,-1
 1006 100 l 1,1,2
 974 68 974 68 940.5 41.5 c 128,-1,3
 907 15 907 15 865 -4 c 128,-1,4
 823 -23 823 -23 769 -33 c 128,-1,5
 715 -43 715 -43 641 -43 c 0,6,7
 522 -43 522 -43 435 -3.5 c 128,-1,8
 348 36 348 36 279 117 c 0,9,10
 243 158 243 158 217 210 c 128,-1,11
 191 262 191 262 173.5 322 c 128,-1,12
 156 382 156 382 147.5 448 c 128,-1,13
 139 514 139 514 139 582 c 0,14,15
 139 655 139 655 148 725.5 c 128,-1,16
 157 796 157 796 175.5 859.5 c 128,-1,17
 194 923 194 923 221.5 978.5 c 128,-1,18
 249 1034 249 1034 285 1077 c 0,19,20
 359 1164 359 1164 451 1208.5 c 128,-1,21
 543 1253 543 1253 668 1253 c 0,22,23
 779 1253 779 1253 863.5 1213 c 128,-1,24
 948 1173 948 1173 1022 1096 c 0,25,26
 1056 1062 1056 1062 1084.5 1012 c 128,-1,27
 1113 962 1113 962 1134 901 c 128,-1,28
 1155 840 1155 840 1167.5 771.5 c 128,-1,29
 1180 703 1180 703 1182 631 c 0,30,31
 1185 535 1185 535 1171.5 441.5 c 128,-1,32
 1158 348 1158 348 1130 276 c 1,33,-1
 1286 117 l 1,34,-1
 1286 0 l 1,35,-1
 1079 0 l 1,0,-1
662 219 m 0,36,37
 742 219 742 219 788.5 232 c 128,-1,38
 835 245 835 245 858 262 c 1,39,-1
 594 545 l 1,40,-1
 723 680 l 1,41,-1
 971 420 l 1,42,43
 989 468 989 468 991 524 c 128,-1,44
 993 580 993 580 991 627 c 0,45,46
 990 665 990 665 983.5 706 c 128,-1,47
 977 747 977 747 966.5 786 c 128,-1,48
 956 825 956 825 943.5 860 c 128,-1,49
 931 895 931 895 918 920 c 0,50,51
 898 960 898 960 874 992.5 c 128,-1,52
 850 1025 850 1025 820 1048.5 c 128,-1,53
 790 1072 790 1072 751.5 1085 c 128,-1,54
 713 1098 713 1098 664 1098 c 0,55,56
 576 1098 576 1098 518 1056.5 c 128,-1,57
 460 1015 460 1015 420 946 c 0,58,59
 400 912 400 912 383.5 869.5 c 128,-1,60
 367 827 367 827 355 780 c 128,-1,61
 343 733 343 733 336.5 683.5 c 128,-1,62
 330 634 330 634 330 586 c 0,63,64
 330 550 330 550 333.5 519.5 c 128,-1,65
 337 489 337 489 345 461 c 128,-1,66
 353 433 353 433 365 405.5 c 128,-1,67
 377 378 377 378 395 346 c 0,68,69
 407 325 407 325 429 302.5 c 128,-1,70
 451 280 451 280 484 261.5 c 128,-1,71
 517 243 517 243 561 231 c 128,-1,72
 605 219 605 219 662 219 c 0,36,37
EndSplineSet
EndChar

StartChar: r
Encoding: 114 114 17
Width: 1026
Flags: W
LayerCount: 2
Fore
SplineSet
883 1030 m 1,0,1
 865 1046 865 1046 847.5 1058.5 c 128,-1,2
 830 1071 830 1071 809.5 1080 c 128,-1,3
 789 1089 789 1089 764.5 1093.5 c 128,-1,4
 740 1098 740 1098 709 1098 c 0,5,6
 670 1098 670 1098 640 1086.5 c 128,-1,7
 610 1075 610 1075 585.5 1055 c 128,-1,8
 561 1035 561 1035 540.5 1007.5 c 128,-1,9
 520 980 520 980 500 948 c 0,10,11
 471 900 471 900 456.5 853.5 c 128,-1,12
 442 807 442 807 436.5 762 c 128,-1,13
 431 717 431 717 431.5 672.5 c 128,-1,14
 432 628 432 628 432 584 c 0,15,16
 432 562 432 562 433 525 c 128,-1,17
 434 488 434 488 435 443 c 128,-1,18
 436 398 436 398 437.5 347.5 c 128,-1,19
 439 297 439 297 440 247 c 0,20,21
 443 132 443 132 446 0 c 1,22,-1
 180 0 l 1,23,24
 190 250 190 250 198 452 c 0,25,26
 201 539 201 539 204 623.5 c 128,-1,27
 207 708 207 708 209.5 777 c 128,-1,28
 212 846 212 846 213.5 893 c 128,-1,29
 215 940 215 940 215 952 c 0,30,31
 215 994 215 994 203 1039.5 c 128,-1,32
 191 1085 191 1085 177 1124 c 0,33,34
 160 1170 160 1170 139 1214 c 1,35,-1
 352 1214 l 1,36,-1
 424 1094 l 1,37,38
 433 1109 433 1109 440 1120.5 c 128,-1,39
 447 1132 447 1132 455 1142.5 c 128,-1,40
 463 1153 463 1153 474.5 1164 c 128,-1,41
 486 1175 486 1175 504 1188 c 0,42,43
 561 1228 561 1228 619 1240.5 c 128,-1,44
 677 1253 677 1253 739 1253 c 0,45,46
 741 1253 741 1253 765.5 1252.5 c 128,-1,47
 790 1252 790 1252 824 1248 c 128,-1,48
 858 1244 858 1244 894 1235.5 c 128,-1,49
 930 1227 930 1227 954 1212 c 1,50,-1
 883 1030 l 1,0,1
EndSplineSet
EndChar

StartChar: s
Encoding: 115 115 18
Width: 1290
Flags: W
LayerCount: 2
Fore
SplineSet
1026 94 m 0,0,1
 995 65 995 65 952.5 40 c 128,-1,2
 910 15 910 15 859 -3.5 c 128,-1,3
 808 -22 808 -22 749.5 -32.5 c 128,-1,4
 691 -43 691 -43 627 -43 c 0,5,6
 489 -43 489 -43 396.5 -7 c 128,-1,7
 304 29 304 29 248 94 c 0,8,9
 222 125 222 125 203.5 153.5 c 128,-1,10
 185 182 185 182 172.5 212.5 c 128,-1,11
 160 243 160 243 152.5 278.5 c 128,-1,12
 145 314 145 314 139 358 c 1,13,-1
 401 358 l 1,14,15
 399 321 399 321 408 298.5 c 128,-1,16
 417 276 417 276 434 260 c 0,17,18
 443 252 443 252 456.5 244.5 c 128,-1,19
 470 237 470 237 492.5 231.5 c 128,-1,20
 515 226 515 226 549 222.5 c 128,-1,21
 583 219 583 219 631 219 c 0,22,23
 670 219 670 219 698 221 c 128,-1,24
 726 223 726 223 748.5 228 c 128,-1,25
 771 233 771 233 789.5 242 c 128,-1,26
 808 251 808 251 829 266 c 0,27,28
 847 278 847 278 860 290.5 c 128,-1,29
 873 303 873 303 881 317.5 c 128,-1,30
 889 332 889 332 893 349.5 c 128,-1,31
 897 367 897 367 897 391 c 0,32,33
 896 418 896 418 884.5 439 c 128,-1,34
 873 460 873 460 854 476.5 c 128,-1,35
 835 493 835 493 811.5 505 c 128,-1,36
 788 517 788 517 764 526 c 0,37,38
 756 529 756 529 742 533.5 c 128,-1,39
 728 538 728 538 710.5 543.5 c 128,-1,40
 693 549 693 549 673.5 554.5 c 128,-1,41
 654 560 654 560 635 566 c 0,42,43
 591 579 591 579 539 594 c 0,44,45
 508 602 508 602 476.5 613 c 128,-1,46
 445 624 445 624 416 636 c 128,-1,47
 387 648 387 648 362 660 c 128,-1,48
 337 672 337 672 317 684 c 0,49,50
 251 725 251 725 223 777 c 128,-1,51
 195 829 195 829 190 905 c 0,52,53
 188 949 188 949 193 983.5 c 128,-1,54
 198 1018 198 1018 211.5 1047.5 c 128,-1,55
 225 1077 225 1077 247.5 1103 c 128,-1,56
 270 1129 270 1129 301 1155 c 0,57,58
 364 1209 364 1209 441.5 1231 c 128,-1,59
 519 1253 519 1253 625 1253 c 0,60,61
 763 1253 763 1253 850 1227.5 c 128,-1,62
 937 1202 937 1202 993 1145 c 0,63,64
 1028 1110 1028 1110 1052.5 1059 c 128,-1,65
 1077 1008 1077 1008 1077 948 c 1,66,-1
 868 948 l 1,67,68
 870 971 870 971 863 991 c 128,-1,69
 856 1011 856 1011 836 1032 c 0,70,71
 811 1060 811 1060 763.5 1079 c 128,-1,72
 716 1098 716 1098 629 1098 c 0,73,74
 569 1098 569 1098 525.5 1085 c 128,-1,75
 482 1072 482 1072 451 1051 c 0,76,77
 436 1039 436 1039 424.5 1028.5 c 128,-1,78
 413 1018 413 1018 405.5 1005.5 c 128,-1,79
 398 993 398 993 394.5 976.5 c 128,-1,80
 391 960 391 960 391 936 c 0,81,82
 391 896 391 896 410 871.5 c 128,-1,83
 429 847 429 847 467 821 c 0,84,85
 495 801 495 801 525 790 c 128,-1,86
 555 779 555 779 600 768 c 2,87,-1
 729 735 l 2,88,89
 842 709 842 709 919 682.5 c 128,-1,90
 996 656 996 656 1042 621 c 0,91,92
 1068 602 1068 602 1088.5 577.5 c 128,-1,93
 1109 553 1109 553 1123.5 520.5 c 128,-1,94
 1138 488 1138 488 1144.5 447 c 128,-1,95
 1151 406 1151 406 1149 354 c 0,96,97
 1147 314 1147 314 1139 279.5 c 128,-1,98
 1131 245 1131 245 1116 213.5 c 128,-1,99
 1101 182 1101 182 1079 153 c 128,-1,100
 1057 124 1057 124 1026 94 c 0,0,1
EndSplineSet
EndChar

StartChar: t
Encoding: 116 116 19
Width: 1223
Flags: W
LayerCount: 2
Fore
SplineSet
451 41 m 0,0,1
 423 70 423 70 407.5 115 c 128,-1,2
 392 160 392 160 393 236 c 2,3,-1
 416 1028 l 1,4,-1
 113 1028 l 1,5,-1
 113 1214 l 1,6,-1
 422 1214 l 1,7,-1
 453 1737 l 1,8,-1
 549 1737 l 1,9,-1
 647 1610 l 1,10,-1
 637 1214 l 1,11,-1
 950 1214 l 1,12,-1
 1034 1104 l 1,13,-1
 1034 1028 l 1,14,-1
 637 1028 l 1,15,-1
 633 324 l 2,16,17
 633 308 633 308 634.5 290.5 c 128,-1,18
 636 273 636 273 640.5 257.5 c 128,-1,19
 645 242 645 242 652.5 228.5 c 128,-1,20
 660 215 660 215 672 207 c 0,21,22
 690 194 690 194 716.5 191 c 128,-1,23
 743 188 743 188 774 188 c 0,24,25
 806 188 806 188 849.5 195 c 128,-1,26
 893 202 893 202 928 213 c 0,27,28
 962 224 962 224 977 236 c 128,-1,29
 992 248 992 248 1006 256 c 1,30,-1
 1075 31 l 1,31,32
 1057 20 1057 20 1042.5 13.5 c 128,-1,33
 1028 7 1028 7 1012.5 2 c 128,-1,34
 997 -3 997 -3 978.5 -7 c 128,-1,35
 960 -11 960 -11 934 -16 c 0,36,37
 913 -21 913 -21 889 -26 c 128,-1,38
 865 -31 865 -31 836 -34.5 c 128,-1,39
 807 -38 807 -38 772 -40.5 c 128,-1,40
 737 -43 737 -43 692 -43 c 0,41,42
 608 -43 608 -43 545.5 -18.5 c 128,-1,43
 483 6 483 6 451 41 c 0,0,1
EndSplineSet
EndChar

StartChar: u
Encoding: 117 117 20
Width: 1442
Flags: W
LayerCount: 2
Fore
SplineSet
578 -43 m 0,0,1
 448 -43 448 -43 356.5 5.5 c 128,-1,2
 265 54 265 54 211 137 c 0,3,4
 182 182 182 182 165 253.5 c 128,-1,5
 148 325 148 325 150 424 c 2,6,-1
 170 1214 l 1,7,-1
 379 1214 l 1,8,-1
 387 426 l 2,9,10
 390 376 390 376 400 339 c 128,-1,11
 410 302 410 302 422 285 c 0,12,13
 438 263 438 263 459 249.5 c 128,-1,14
 480 236 480 236 505.5 229.5 c 128,-1,15
 531 223 531 223 562 221 c 128,-1,16
 593 219 593 219 629 219 c 0,17,18
 680 219 680 219 718.5 234.5 c 128,-1,19
 757 250 757 250 786.5 276.5 c 128,-1,20
 816 303 816 303 839 337.5 c 128,-1,21
 862 372 862 372 883 410 c 0,22,23
 907 455 907 455 917 518 c 128,-1,24
 927 581 927 581 930 680 c 2,25,-1
 936 1214 l 1,26,-1
 1143 1214 l 1,27,28
 1146 988 1146 988 1150 800 c 0,29,30
 1152 720 1152 720 1154 640 c 128,-1,31
 1156 560 1156 560 1158.5 492.5 c 128,-1,32
 1161 425 1161 425 1163.5 375 c 128,-1,33
 1166 325 1166 325 1169 305 c 0,34,35
 1176 265 1176 265 1197.5 213 c 128,-1,36
 1219 161 1219 161 1242 113 c 0,37,38
 1270 57 1270 57 1303 0 c 1,39,-1
 1049 0 l 1,40,-1
 963 217 l 1,41,42
 953 199 953 199 939 176 c 128,-1,43
 925 153 925 153 909 130 c 128,-1,44
 893 107 893 107 877 87 c 128,-1,45
 861 67 861 67 846 55 c 0,46,47
 787 7 787 7 723 -18 c 128,-1,48
 659 -43 659 -43 578 -43 c 0,0,1
EndSplineSet
EndChar

StartChar: v
Encoding: 118 118 21
Width: 1350
Flags: W
LayerCount: 2
Fore
SplineSet
1024 1214 m 1,0,-1
 1237 1214 l 1,1,-1
 809 0 l 1,2,-1
 541 0 l 1,3,-1
 113 1214 l 1,4,-1
 326 1214 l 1,5,-1
 674 336 l 1,6,-1
 1024 1214 l 1,0,-1
EndSplineSet
EndChar

StartChar: w
Encoding: 119 119 22
Width: 1905
Flags: W
LayerCount: 2
Fore
SplineSet
1544 1214 m 1,0,-1
 1757 1214 l 1,1,-1
 1405 0 l 1,2,-1
 1137 0 l 1,3,-1
 948 702 l 1,4,-1
 758 0 l 1,5,-1
 489 0 l 1,6,-1
 139 1214 l 1,7,-1
 354 1214 l 1,8,-1
 631 219 l 1,9,-1
 842 889 l 1,10,-1
 1055 889 l 1,11,-1
 1270 219 l 1,12,-1
 1544 1214 l 1,0,-1
EndSplineSet
EndChar

StartChar: x
Encoding: 120 120 23
Width: 1378
Flags: W
LayerCount: 2
Fore
SplineSet
809 633 m 1,0,-1
 1231 0 l 1,1,-1
 963 0 l 1,2,-1
 688 467 l 1,3,-1
 416 0 l 1,4,-1
 147 0 l 1,5,-1
 549 633 l 1,6,-1
 188 1214 l 1,7,-1
 401 1214 l 1,8,-1
 688 774 l 1,9,-1
 975 1214 l 1,10,-1
 1190 1214 l 1,11,-1
 809 633 l 1,0,-1
EndSplineSet
EndChar

StartChar: y
Encoding: 121 121 24
Width: 1341
Flags: W
LayerCount: 2
Fore
SplineSet
989 1214 m 1,0,-1
 1202 1214 l 1,1,2
 1091 884 1091 884 1000 612 c 0,3,4
 974 535 974 535 948 457 c 128,-1,5
 922 379 922 379 897.5 306.5 c 128,-1,6
 873 234 873 234 851.5 169 c 128,-1,7
 830 104 830 104 812.5 51.5 c 128,-1,8
 795 -1 795 -1 782.5 -38 c 128,-1,9
 770 -75 770 -75 764 -92 c 0,10,11
 728 -203 728 -203 702 -285.5 c 128,-1,12
 676 -368 676 -368 655.5 -428 c 128,-1,13
 635 -488 635 -488 617.5 -527.5 c 128,-1,14
 600 -567 600 -567 580 -592 c 0,15,16
 555 -621 555 -621 531.5 -639.5 c 128,-1,17
 508 -658 508 -658 478.5 -668.5 c 128,-1,18
 449 -679 449 -679 410 -682.5 c 128,-1,19
 371 -686 371 -686 315 -686 c 0,20,21
 252 -686 252 -686 201 -666 c 128,-1,22
 150 -646 150 -646 113 -612 c 1,23,-1
 141 -422 l 1,24,25
 153 -431 153 -431 177 -438 c 0,26,27
 197 -443 197 -443 231.5 -448 c 128,-1,28
 266 -453 266 -453 319 -453 c 0,29,30
 347 -453 347 -453 372 -447 c 128,-1,31
 397 -441 397 -441 408 -430 c 0,32,33
 426 -412 426 -412 433.5 -393.5 c 128,-1,34
 441 -375 441 -375 446 -358 c 0,35,36
 454 -336 454 -336 473 -281 c 128,-1,37
 492 -226 492 -226 515.5 -156 c 128,-1,38
 539 -86 539 -86 564 -11 c 0,39,40
 608 117 608 117 659 270 c 1,41,-1
 172 1214 l 1,42,-1
 387 1214 l 1,43,-1
 752 528 l 1,44,-1
 989 1214 l 1,0,-1
EndSplineSet
EndChar

StartChar: z
Encoding: 122 122 25
Width: 1415
Flags: W
LayerCount: 2
Fore
SplineSet
475 238 m 1,0,-1
 1192 238 l 1,1,-1
 1276 0 l 1,2,-1
 139 0 l 1,3,-1
 139 231 l 1,4,-1
 881 1038 l 1,5,-1
 190 1038 l 1,6,-1
 193 1214 l 1,7,-1
 1130 1214 l 1,8,-1
 1130 1032 l 1,9,-1
 475 238 l 1,0,-1
EndSplineSet
EndChar

StartChar: a
Encoding: 97 97 26
Width: 1442
Flags: W
LayerCount: 2
Fore
SplineSet
1315 0 m 1,0,1
 1290 -6 1290 -6 1271.5 -11 c 128,-1,2
 1253 -16 1253 -16 1229 -18 c 0,3,4
 1210 -20 1210 -20 1194.5 -20 c 128,-1,5
 1179 -20 1179 -20 1157 -18 c 0,6,7
 1126 -17 1126 -17 1102.5 -9.5 c 128,-1,8
 1079 -2 1079 -2 1062 10 c 128,-1,9
 1045 22 1045 22 1033.5 38.5 c 128,-1,10
 1022 55 1022 55 1014 74 c 0,11,12
 1009 85 1009 85 1003 99 c 128,-1,13
 997 113 997 113 992 124 c 0,14,15
 986 138 986 138 981 152 c 1,16,17
 955 120 955 120 927 92 c 0,18,19
 904 67 904 67 874 42 c 128,-1,20
 844 17 844 17 815 2 c 0,21,22
 755 -29 755 -29 685.5 -36 c 128,-1,23
 616 -43 616 -43 547 -43 c 0,24,25
 373 -43 373 -43 270 59 c 0,26,27
 216 110 216 110 187.5 174.5 c 128,-1,28
 159 239 159 239 162 317 c 0,29,30
 165 379 165 379 175 422 c 128,-1,31
 185 465 185 465 200.5 496 c 128,-1,32
 216 527 216 527 237.5 550.5 c 128,-1,33
 259 574 259 574 285 598 c 0,34,35
 339 644 339 644 401 678 c 128,-1,36
 463 712 463 712 545 723 c 0,37,38
 580 728 580 728 624 730.5 c 128,-1,39
 668 733 668 733 713.5 733.5 c 128,-1,40
 759 734 759 734 802.5 733.5 c 128,-1,41
 846 733 846 733 881 733 c 0,42,43
 915 733 915 733 934 738.5 c 128,-1,44
 953 744 953 744 962.5 755 c 128,-1,45
 972 766 972 766 974.5 782 c 128,-1,46
 977 798 977 798 977 819 c 2,47,-1
 979 887 l 2,48,49
 979 939 979 939 962 980.5 c 128,-1,50
 945 1022 945 1022 909 1047 c 0,51,52
 835 1098 835 1098 698 1098 c 0,53,54
 618 1098 618 1098 573.5 1088.5 c 128,-1,55
 529 1079 529 1079 506 1065 c 0,56,57
 476 1046 476 1046 457.5 1018 c 128,-1,58
 439 990 439 990 434 948 c 1,59,-1
 229 948 l 1,60,61
 229 977 229 977 235.5 1007 c 128,-1,62
 242 1037 242 1037 256 1066 c 128,-1,63
 270 1095 270 1095 294 1121.5 c 128,-1,64
 318 1148 318 1148 352 1169 c 0,65,66
 423 1214 423 1214 513 1233.5 c 128,-1,67
 603 1253 603 1253 696 1253 c 0,68,69
 805 1253 805 1253 891.5 1229.5 c 128,-1,70
 978 1206 978 1206 1044 1165 c 0,71,72
 1178 1082 1178 1082 1178 909 c 2,73,-1
 1180 219 l 2,74,75
 1179 210 1179 210 1182 202 c 0,76,77
 1185 195 1185 195 1191 188.5 c 128,-1,78
 1197 182 1197 182 1210 178 c 0,79,80
 1215 177 1215 177 1220 177 c 128,-1,81
 1225 177 1225 177 1230 177 c 0,82,83
 1236 177 1236 177 1241 178 c 1,84,-1
 1313 92 l 1,85,-1
 1315 0 l 1,0,1
971 594 m 1,86,87
 898 595 898 595 835 595 c 0,88,89
 808 595 808 595 780 595 c 128,-1,90
 752 595 752 595 726.5 594.5 c 128,-1,91
 701 594 701 594 680.5 593.5 c 128,-1,92
 660 593 660 593 647 592 c 0,93,94
 595 589 595 589 546 568.5 c 128,-1,95
 497 548 497 548 469 522 c 0,96,97
 447 501 447 501 433 481.5 c 128,-1,98
 419 462 419 462 411.5 441.5 c 128,-1,99
 404 421 404 421 401.5 399 c 128,-1,100
 399 377 399 377 399 350 c 0,101,102
 397 325 397 325 404.5 303 c 128,-1,103
 412 281 412 281 440 258 c 0,104,105
 457 243 457 243 480.5 235 c 128,-1,106
 504 227 504 227 530.5 223 c 128,-1,107
 557 219 557 219 583 218 c 128,-1,108
 609 217 609 217 631 217 c 0,109,110
 659 217 659 217 688.5 220 c 128,-1,111
 718 223 718 223 745 228 c 128,-1,112
 772 233 772 233 795.5 239 c 128,-1,113
 819 245 819 245 834 250 c 0,114,115
 867 262 867 262 891.5 275.5 c 128,-1,116
 916 289 916 289 933 309 c 128,-1,117
 950 329 950 329 959 359 c 128,-1,118
 968 389 968 389 969 434 c 2,119,-1
 971 594 l 1,86,87
EndSplineSet
EndChar

StartChar: b
Encoding: 98 98 27
Width: 1438
Flags: W
LayerCount: 2
Fore
SplineSet
205 383 m 0,0,1
 206 399 206 399 207.5 440 c 128,-1,2
 209 481 209 481 211 540.5 c 128,-1,3
 213 600 213 600 215 675.5 c 128,-1,4
 217 751 217 751 218.5 836 c 128,-1,5
 220 921 220 921 222 1012.5 c 128,-1,6
 224 1104 224 1104 226 1196 c 0,7,8
 233 1518 233 1518 240 1913 c 1,9,-1
 453 1913 l 1,10,-1
 428 1118 l 1,11,12
 447 1144 447 1144 470.5 1167 c 128,-1,13
 494 1190 494 1190 537 1212 c 0,14,15
 583 1237 583 1237 636.5 1245 c 128,-1,16
 690 1253 690 1253 745 1253 c 0,17,18
 814 1253 814 1253 864 1242 c 128,-1,19
 914 1231 914 1231 952 1210 c 128,-1,20
 990 1189 990 1189 1021 1158 c 128,-1,21
 1052 1127 1052 1127 1083 1087 c 0,22,23
 1146 1006 1146 1006 1190 896 c 128,-1,24
 1234 786 1234 786 1266 649 c 0,25,26
 1298 507 1298 507 1286.5 381.5 c 128,-1,27
 1275 256 1275 256 1206 160 c 0,28,29
 1171 112 1171 112 1121.5 73 c 128,-1,30
 1072 34 1072 34 1012.5 7 c 128,-1,31
 953 -20 953 -20 886 -33.5 c 128,-1,32
 819 -47 819 -47 748 -43 c 0,33,34
 678 -40 678 -40 619 -23.5 c 128,-1,35
 560 -7 560 -7 512 27 c 0,36,37
 483 47 483 47 463.5 72.5 c 128,-1,38
 444 98 444 98 424 129 c 1,39,-1
 408 0 l 1,40,-1
 139 0 l 1,41,42
 155 74 155 74 169 145 c 0,43,44
 175 175 175 175 181 207 c 128,-1,45
 187 239 187 239 191.5 270.5 c 128,-1,46
 196 302 196 302 200 331 c 128,-1,47
 204 360 204 360 205 383 c 0,0,1
975 287 m 0,48,49
 990 298 990 298 1003.5 309.5 c 128,-1,50
 1017 321 1017 321 1028 338 c 0,51,52
 1045 364 1045 364 1058 404.5 c 128,-1,53
 1071 445 1071 445 1075.5 497 c 128,-1,54
 1080 549 1080 549 1074 608.5 c 128,-1,55
 1068 668 1068 668 1047 731 c 0,56,57
 1029 786 1029 786 1013.5 828 c 128,-1,58
 998 870 998 870 982.5 902.5 c 128,-1,59
 967 935 967 935 951.5 960 c 128,-1,60
 936 985 936 985 918 1006 c 0,61,62
 894 1034 894 1034 871.5 1052 c 128,-1,63
 849 1070 849 1070 825.5 1080 c 128,-1,64
 802 1090 802 1090 776.5 1094 c 128,-1,65
 751 1098 751 1098 721 1098 c 0,66,67
 676 1098 676 1098 637.5 1086 c 128,-1,68
 599 1074 599 1074 567.5 1055 c 128,-1,69
 536 1036 536 1036 511.5 1011.5 c 128,-1,70
 487 987 487 987 469 963 c 0,71,72
 448 933 448 933 435.5 906.5 c 128,-1,73
 423 880 423 880 418 846 c 128,-1,74
 413 812 413 812 413 766.5 c 128,-1,75
 413 721 413 721 416 653 c 0,76,77
 418 600 418 600 420 554.5 c 128,-1,78
 422 509 422 509 428.5 469 c 128,-1,79
 435 429 435 429 448.5 393.5 c 128,-1,80
 462 358 462 358 489 326 c 0,81,82
 520 290 520 290 555 268.5 c 128,-1,83
 590 247 590 247 629.5 236 c 128,-1,84
 669 225 669 225 713 222 c 128,-1,85
 757 219 757 219 805 219 c 0,86,87
 833 219 833 219 880.5 237 c 128,-1,88
 928 255 928 255 975 287 c 0,48,49
EndSplineSet
EndChar

StartChar: c
Encoding: 99 99 28
Width: 1382
Flags: W
LayerCount: 2
Fore
SplineSet
692 -43 m 0,0,1
 633 -43 633 -43 576.5 -33 c 128,-1,2
 520 -23 520 -23 468 -2 c 128,-1,3
 416 19 416 19 371 51 c 128,-1,4
 326 83 326 83 291 127 c 0,5,6
 220 215 220 215 185 334 c 128,-1,7
 150 453 150 453 150 584 c 0,8,9
 150 746 150 746 188.5 864.5 c 128,-1,10
 227 983 227 983 305 1073 c 0,11,12
 384 1164 384 1164 492 1208.5 c 128,-1,13
 600 1253 600 1253 721 1253 c 0,14,15
 927 1253 927 1253 1057 1153 c 0,16,17
 1102 1119 1102 1119 1133 1067.5 c 128,-1,18
 1164 1016 1164 1016 1186 948 c 1,19,-1
 965 948 l 1,20,21
 955 973 955 973 945 993.5 c 128,-1,22
 935 1014 935 1014 920 1028 c 0,23,24
 901 1044 901 1044 881 1057 c 128,-1,25
 861 1070 861 1070 838 1079 c 128,-1,26
 815 1088 815 1088 786.5 1093 c 128,-1,27
 758 1098 758 1098 723 1098 c 0,28,29
 674 1098 674 1098 629 1083 c 128,-1,30
 584 1068 584 1068 545 1041 c 128,-1,31
 506 1014 506 1014 474.5 975.5 c 128,-1,32
 443 937 443 937 422 889 c 0,33,34
 409 858 409 858 401 834 c 128,-1,35
 393 810 393 810 388.5 784.5 c 128,-1,36
 384 759 384 759 382.5 727 c 128,-1,37
 381 695 381 695 381 649 c 0,38,39
 381 558 381 558 396 489 c 128,-1,40
 411 420 411 420 442 354 c 0,41,42
 456 325 456 325 470.5 300.5 c 128,-1,43
 485 276 485 276 512 258 c 128,-1,44
 539 240 539 240 585 230 c 128,-1,45
 631 220 631 220 709 219 c 0,46,47
 741 219 741 219 771 220 c 128,-1,48
 801 221 801 221 826.5 223.5 c 128,-1,49
 852 226 852 226 872 230 c 128,-1,50
 892 234 892 234 903 240 c 0,51,52
 926 251 926 251 937.5 264.5 c 128,-1,53
 949 278 949 278 952 307 c 1,54,-1
 1214 307 l 1,55,56
 1214 267 1214 267 1199 227 c 128,-1,57
 1184 187 1184 187 1161.5 152.5 c 128,-1,58
 1139 118 1139 118 1112.5 90 c 128,-1,59
 1086 62 1086 62 1063 45 c 0,60,61
 1024 16 1024 16 981 -1.5 c 128,-1,62
 938 -19 938 -19 891.5 -28 c 128,-1,63
 845 -37 845 -37 795 -40 c 128,-1,64
 745 -43 745 -43 692 -43 c 0,0,1
EndSplineSet
EndChar

StartChar: d
Encoding: 100 100 29
Width: 1477
Flags: W
LayerCount: 2
Fore
SplineSet
1040 0 m 1,0,-1
 1040 182 l 1,1,2
 998 116 998 116 954.5 73 c 128,-1,3
 911 30 911 30 860 4 c 0,4,5
 811 -22 811 -22 760.5 -33.5 c 128,-1,6
 710 -45 710 -45 647 -43 c 0,7,8
 583 -43 583 -43 539 -29 c 128,-1,9
 495 -15 495 -15 463 7.5 c 128,-1,10
 431 30 431 30 408 59 c 128,-1,11
 385 88 385 88 362 119 c 0,12,13
 336 154 336 154 307.5 205.5 c 128,-1,14
 279 257 279 257 251.5 318.5 c 128,-1,15
 224 380 224 380 200.5 448.5 c 128,-1,16
 177 517 177 517 162 586 c 0,17,18
 146 661 146 661 141 727.5 c 128,-1,19
 136 794 136 794 146 854 c 128,-1,20
 156 914 156 914 182 969 c 128,-1,21
 208 1024 208 1024 254 1077 c 0,22,23
 326 1161 326 1161 430 1207 c 128,-1,24
 534 1253 534 1253 659 1253 c 0,25,26
 731 1253 731 1253 786 1236 c 128,-1,27
 841 1219 841 1219 889 1190 c 0,28,29
 915 1173 915 1173 946 1149 c 128,-1,30
 977 1125 977 1125 1014 1083 c 1,31,-1
 1069 1913 l 1,32,-1
 1284 1913 l 1,33,-1
 1229 938 l 1,34,35
 1229 815 1229 815 1230 706 c 0,36,37
 1230 660 1230 660 1231 611.5 c 128,-1,38
 1232 563 1232 563 1233 519 c 128,-1,39
 1234 475 1234 475 1235.5 438 c 128,-1,40
 1237 401 1237 401 1239 377 c 256,41,42
 1241 353 1241 353 1246 324 c 128,-1,43
 1251 295 1251 295 1257.5 264 c 128,-1,44
 1264 233 1264 233 1272 201 c 128,-1,45
 1280 169 1280 169 1288 140 c 0,46,47
 1306 71 1306 71 1329 0 c 1,48,-1
 1040 0 l 1,0,-1
956 305 m 0,49,50
 980 334 980 334 994.5 364 c 128,-1,51
 1009 394 1009 394 1017.5 427 c 128,-1,52
 1026 460 1026 460 1029.5 495.5 c 128,-1,53
 1033 531 1033 531 1034 569 c 0,54,55
 1036 624 1036 624 1031.5 674 c 128,-1,56
 1027 724 1027 724 1018 767.5 c 128,-1,57
 1009 811 1009 811 996.5 846 c 128,-1,58
 984 881 984 881 969 905 c 0,59,60
 941 951 941 951 904.5 989 c 128,-1,61
 868 1027 868 1027 824 1052.5 c 128,-1,62
 780 1078 780 1078 730.5 1089 c 128,-1,63
 681 1100 681 1100 627 1092 c 0,64,65
 543 1079 543 1079 485.5 1038 c 128,-1,66
 428 997 428 997 385 932 c 0,67,68
 360 897 360 897 353.5 843.5 c 128,-1,69
 347 790 347 790 351.5 733.5 c 128,-1,70
 356 677 356 677 368.5 624.5 c 128,-1,71
 381 572 381 572 393 539 c 0,72,73
 410 494 410 494 422.5 464 c 128,-1,74
 435 434 435 434 447 410.5 c 128,-1,75
 459 387 459 387 473 366 c 128,-1,76
 487 345 487 345 506 317 c 0,77,78
 528 287 528 287 545.5 267.5 c 128,-1,79
 563 248 563 248 588 236.5 c 128,-1,80
 613 225 613 225 651.5 221 c 128,-1,81
 690 217 690 217 754 217 c 0,82,83
 823 217 823 217 873.5 242 c 128,-1,84
 924 267 924 267 956 305 c 0,49,50
EndSplineSet
EndChar

StartChar: L
Encoding: 76 76 30
Width: 1501
Flags: W
LayerCount: 2
Fore
SplineSet
496 1913 m 1,0,-1
 541 297 l 1,1,-1
 1204 297 l 1,2,-1
 1296 168 l 1,3,-1
 1296 0 l 1,4,-1
 205 0 l 1,5,-1
 258 1913 l 1,6,-1
 496 1913 l 1,0,-1
EndSplineSet
EndChar

StartChar: grave
Encoding: 96 96 31
Width: 1706
Flags: W
LayerCount: 2
Fore
SplineSet
593 1914 m 1,0,-1
 951 1533 l 1,1,-1
 787 1369 l 1,2,-1
 402 1727 l 1,3,-1
 593 1914 l 1,0,-1
EndSplineSet
EndChar

StartChar: A
Encoding: 65 65 32
Width: 2066
Flags: W
LayerCount: 2
Fore
SplineSet
1171 1913 m 1,0,-1
 1896 0 l 1,1,-1
 1532 0 l 1,2,-1
 1376 565 l 1,3,-1
 690 565 l 1,4,-1
 535 0 l 1,5,-1
 168 0 l 1,6,-1
 895 1913 l 1,7,-1
 1171 1913 l 1,0,-1
750 805 m 1,8,-1
 1315 805 l 1,9,-1
 1032 1692 l 1,10,-1
 750 805 l 1,8,-1
EndSplineSet
EndChar

StartChar: B
Encoding: 66 66 33
Width: 1849
Flags: W
LayerCount: 2
Fore
SplineSet
1292 1081 m 1,0,1
 1375 1056 1375 1056 1445 1006.5 c 128,-1,2
 1515 957 1515 957 1566 889.5 c 128,-1,3
 1617 822 1617 822 1645.5 739.5 c 128,-1,4
 1674 657 1674 657 1673 565 c 0,5,6
 1673 489 1673 489 1652 418 c 128,-1,7
 1631 347 1631 347 1593.5 284 c 128,-1,8
 1556 221 1556 221 1503.5 169 c 128,-1,9
 1451 117 1451 117 1388.5 79.5 c 128,-1,10
 1326 42 1326 42 1255.5 21 c 128,-1,11
 1185 0 1185 0 1110 0 c 2,12,-1
 207 0 l 1,13,-1
 260 1913 l 1,14,-1
 999 1913 l 2,15,16
 1101 1913 1101 1913 1197.5 1878.5 c 128,-1,17
 1294 1844 1294 1844 1370 1784 c 128,-1,18
 1446 1724 1446 1724 1492 1644 c 128,-1,19
 1538 1564 1538 1564 1538 1473 c 0,20,21
 1538 1410 1538 1410 1527.5 1352 c 128,-1,22
 1517 1294 1517 1294 1490 1243.5 c 128,-1,23
 1463 1193 1463 1193 1415.5 1152.5 c 128,-1,24
 1368 1112 1368 1112 1294 1083 c 1,25,-1
 1292 1081 l 1,0,1
518 1188 m 1,26,-1
 997 1188 l 2,27,28
 1052 1188 1052 1188 1100 1211 c 128,-1,29
 1148 1234 1148 1234 1184 1271 c 128,-1,30
 1220 1308 1220 1308 1241 1355.5 c 128,-1,31
 1262 1403 1262 1403 1262 1452 c 0,32,33
 1262 1502 1262 1502 1240.5 1545.5 c 128,-1,34
 1219 1589 1219 1589 1182.5 1621.5 c 128,-1,35
 1146 1654 1146 1654 1098 1673 c 128,-1,36
 1050 1692 1050 1692 997 1692 c 2,37,-1
 504 1692 l 1,38,-1
 518 1188 l 1,26,-1
1083 295 m 2,39,40
 1147 295 1147 295 1203 319.5 c 128,-1,41
 1259 344 1259 344 1301 386 c 128,-1,42
 1343 428 1343 428 1367 484 c 128,-1,43
 1391 540 1391 540 1391 604 c 256,44,45
 1391 668 1391 668 1367 724 c 128,-1,46
 1343 780 1343 780 1301 822 c 128,-1,47
 1259 864 1259 864 1203 888.5 c 128,-1,48
 1147 913 1147 913 1083 913 c 2,49,-1
 526 913 l 1,50,-1
 543 295 l 1,51,-1
 1083 295 l 2,39,40
EndSplineSet
EndChar

StartChar: C
Encoding: 67 67 34
Width: 2007
Flags: W
LayerCount: 2
Fore
SplineSet
1012 -25 m 0,0,1
 832 -25 832 -25 679.5 39 c 128,-1,2
 527 103 527 103 420 236 c 0,3,4
 311 369 311 369 250.5 545.5 c 128,-1,5
 190 722 190 722 190 922 c 0,6,7
 190 1164 190 1164 249.5 1345 c 128,-1,8
 309 1526 309 1526 426 1661 c 0,9,10
 485 1729 485 1729 557 1779.5 c 128,-1,11
 629 1830 629 1830 709.5 1863.5 c 128,-1,12
 790 1897 790 1897 878 1914 c 128,-1,13
 966 1931 966 1931 1057 1931 c 0,14,15
 1366 1931 1366 1931 1561 1780 c 0,16,17
 1629 1729 1629 1729 1679.5 1651 c 128,-1,18
 1730 1573 1730 1573 1749 1473 c 1,19,-1
 1438 1473 l 1,20,21
 1430 1511 1430 1511 1411.5 1543 c 128,-1,22
 1393 1575 1393 1575 1364 1606 c 0,23,24
 1311 1658 1311 1658 1238 1681 c 128,-1,25
 1165 1704 1165 1704 1057 1704 c 0,26,27
 983 1704 983 1704 912.5 1681 c 128,-1,28
 842 1658 842 1658 780.5 1616 c 128,-1,29
 719 1574 719 1574 669.5 1515 c 128,-1,30
 620 1456 620 1456 588 1384 c 0,31,32
 567 1338 567 1338 552 1299.5 c 128,-1,33
 537 1261 537 1261 528 1220.5 c 128,-1,34
 519 1180 519 1180 514.5 1130.5 c 128,-1,35
 510 1081 510 1081 510 1012 c 0,36,37
 509 942 509 942 521 873.5 c 128,-1,38
 533 805 533 805 550.5 745 c 128,-1,39
 568 685 568 685 588.5 637.5 c 128,-1,40
 609 590 609 590 625 561 c 0,41,42
 633 547 633 547 644.5 523 c 128,-1,43
 656 499 656 499 675 471.5 c 128,-1,44
 694 444 694 444 723 415.5 c 128,-1,45
 752 387 752 387 795 364.5 c 128,-1,46
 838 342 838 342 896.5 327.5 c 128,-1,47
 955 313 955 313 1034 313 c 0,48,49
 1082 314 1082 314 1128.5 318.5 c 128,-1,50
 1175 323 1175 323 1214.5 330 c 128,-1,51
 1254 337 1254 337 1284 346 c 128,-1,52
 1314 355 1314 355 1329 365 c 0,53,54
 1361 388 1361 388 1379.5 424 c 128,-1,55
 1398 460 1398 460 1403 504 c 1,56,-1
 1800 504 l 1,57,58
 1799 420 1799 420 1777 354.5 c 128,-1,59
 1755 289 1755 289 1721 239 c 128,-1,60
 1687 189 1687 189 1647 152.5 c 128,-1,61
 1607 116 1607 116 1571 90 c 0,62,63
 1516 53 1516 53 1452 30 c 128,-1,64
 1388 7 1388 7 1317 -5 c 128,-1,65
 1246 -17 1246 -17 1169.5 -21 c 128,-1,66
 1093 -25 1093 -25 1012 -25 c 0,0,1
EndSplineSet
EndChar

StartChar: D
Encoding: 68 68 35
Width: 1966
Flags: W
LayerCount: 2
Fore
SplineSet
901 1913 m 2,0,1
 1024 1914 1024 1914 1137 1880 c 128,-1,2
 1250 1846 1250 1846 1348.5 1783.5 c 128,-1,3
 1447 1721 1447 1721 1528 1633.5 c 128,-1,4
 1609 1546 1609 1546 1667 1439.5 c 128,-1,5
 1725 1333 1725 1333 1756.5 1210.5 c 128,-1,6
 1788 1088 1788 1088 1788 956 c 256,7,8
 1788 824 1788 824 1764 702 c 128,-1,9
 1740 580 1740 580 1693.5 473.5 c 128,-1,10
 1647 367 1647 367 1579.5 280 c 128,-1,11
 1512 193 1512 193 1424.5 130.5 c 128,-1,12
 1337 68 1337 68 1231.5 34 c 128,-1,13
 1126 0 1126 0 1004 0 c 2,14,-1
 205 0 l 1,15,-1
 258 1913 l 1,16,-1
 901 1913 l 2,0,1
907 297 m 2,17,18
 1038 297 1038 297 1147 348.5 c 128,-1,19
 1256 400 1256 400 1334 490.5 c 128,-1,20
 1412 581 1412 581 1455.5 703.5 c 128,-1,21
 1499 826 1499 826 1499 967 c 0,22,23
 1499 1061 1499 1061 1477 1150.5 c 128,-1,24
 1455 1240 1455 1240 1414 1319.5 c 128,-1,25
 1373 1399 1373 1399 1316 1466 c 128,-1,26
 1259 1533 1259 1533 1188.5 1581 c 128,-1,27
 1118 1629 1118 1629 1037 1656 c 128,-1,28
 956 1683 956 1683 868 1683 c 2,29,-1
 504 1683 l 1,30,-1
 543 295 l 1,31,-1
 907 297 l 2,17,18
EndSplineSet
EndChar

StartChar: E
Encoding: 69 69 36
Width: 1630
Flags: W
LayerCount: 2
Fore
SplineSet
1395 1913 m 1,0,-1
 1395 1683 l 1,1,-1
 504 1683 l 1,2,-1
 518 1137 l 1,3,-1
 1221 1137 l 1,4,-1
 1219 870 l 1,5,-1
 526 870 l 1,6,-1
 541 297 l 1,7,-1
 1395 297 l 1,8,-1
 1395 0 l 1,9,-1
 205 0 l 1,10,-1
 258 1913 l 1,11,-1
 1395 1915 l 1,12,-1
 1395 1913 l 1,0,-1
EndSplineSet
EndChar

StartChar: F
Encoding: 70 70 37
Width: 1589
Flags: W
LayerCount: 2
Fore
SplineSet
1364 1913 m 1,0,-1
 1364 1683 l 1,1,-1
 502 1683 l 1,2,-1
 516 1137 l 1,3,-1
 1171 1137 l 1,4,-1
 1171 1008 l 1,5,-1
 1063 874 l 1,6,-1
 524 874 l 1,7,-1
 549 0 l 1,8,-1
 205 0 l 1,9,-1
 258 1913 l 1,10,-1
 1364 1913 l 1,0,-1
EndSplineSet
EndChar

StartChar: G
Encoding: 71 71 38
Width: 2077
Flags: W
LayerCount: 2
Fore
SplineSet
1012 -25 m 1,0,1
 829 -25 829 -25 677.5 39.5 c 128,-1,2
 526 104 526 104 418 236 c 0,3,4
 311 369 311 369 250.5 545.5 c 128,-1,5
 190 722 190 722 190 922 c 0,6,7
 190 1164 190 1164 249 1345 c 128,-1,8
 308 1526 308 1526 426 1661 c 0,9,10
 485 1729 485 1729 556.5 1779.5 c 128,-1,11
 628 1830 628 1830 708.5 1863.5 c 128,-1,12
 789 1897 789 1897 876.5 1914 c 128,-1,13
 964 1931 964 1931 1055 1931 c 0,14,15
 1211 1931 1211 1931 1337.5 1894 c 128,-1,16
 1464 1857 1464 1857 1561 1780 c 0,17,18
 1694 1677 1694 1677 1755 1473 c 1,19,-1
 1436 1473 l 1,20,21
 1422 1508 1422 1508 1405 1536.5 c 128,-1,22
 1388 1565 1388 1565 1360 1591 c 256,23,24
 1332 1617 1332 1617 1301.5 1637.5 c 128,-1,25
 1271 1658 1271 1658 1234.5 1673 c 128,-1,26
 1198 1688 1198 1688 1154.5 1696 c 128,-1,27
 1111 1704 1111 1704 1057 1704 c 0,28,29
 983 1704 983 1704 912.5 1681 c 128,-1,30
 842 1658 842 1658 780.5 1616 c 128,-1,31
 719 1574 719 1574 669.5 1515 c 128,-1,32
 620 1456 620 1456 588 1384 c 0,33,34
 567 1338 567 1338 552 1299.5 c 128,-1,35
 537 1261 537 1261 527.5 1220.5 c 128,-1,36
 518 1180 518 1180 513.5 1130.5 c 128,-1,37
 509 1081 509 1081 508 1012 c 0,38,39
 508 942 508 942 521 871.5 c 128,-1,40
 534 801 534 801 552 740 c 128,-1,41
 570 679 570 679 589.5 632 c 128,-1,42
 609 585 609 585 623 561 c 0,43,44
 633 545 633 545 646 520 c 128,-1,45
 659 495 659 495 680 466.5 c 128,-1,46
 701 438 701 438 730.5 409.5 c 128,-1,47
 760 381 760 381 802.5 357.5 c 128,-1,48
 845 334 845 334 902 319.5 c 128,-1,49
 959 305 959 305 1034 305 c 2,50,-1
 1040 305 l 2,51,52
 1096 305 1096 305 1140.5 308 c 128,-1,53
 1185 311 1185 311 1224 319.5 c 128,-1,54
 1263 328 1263 328 1300 343 c 128,-1,55
 1337 358 1337 358 1378 383 c 0,56,57
 1392 392 1392 392 1412.5 407 c 128,-1,58
 1433 422 1433 422 1452.5 447.5 c 128,-1,59
 1472 473 1472 473 1486 510 c 128,-1,60
 1500 547 1500 547 1501 598 c 1,61,-1
 1204 598 l 1,62,-1
 1204 872 l 1,63,-1
 1843 872 l 1,64,-1
 1872 -25 l 1,65,-1
 1565 -25 l 1,66,-1
 1577 231 l 1,67,68
 1552 183 1552 183 1515 140.5 c 128,-1,69
 1478 98 1478 98 1419 57 c 0,70,71
 1348 11 1348 11 1248.5 -7 c 128,-1,72
 1149 -25 1149 -25 1012 -25 c 1,73,-1
 1012 -25 l 1,0,1
EndSplineSet
EndChar

StartChar: H
Encoding: 72 72 39
Width: 1964
Flags: W
LayerCount: 2
Fore
SplineSet
1708 1913 m 1,0,-1
 1759 0 l 1,1,-1
 1415 0 l 1,2,-1
 1440 874 l 1,3,-1
 946 885 l 1,4,-1
 524 874 l 1,5,-1
 549 0 l 1,6,-1
 205 0 l 1,7,-1
 258 1913 l 1,8,-1
 496 1913 l 1,9,-1
 516 1159 l 1,10,-1
 944 1147 l 1,11,-1
 1448 1159 l 1,12,-1
 1468 1913 l 1,13,-1
 1708 1913 l 1,0,-1
EndSplineSet
EndChar

StartChar: I
Encoding: 73 73 40
Width: 795
Flags: W
LayerCount: 2
Fore
SplineSet
225 0 m 1,0,-1
 279 1913 l 1,1,-1
 516 1913 l 1,2,-1
 569 0 l 1,3,-1
 225 0 l 1,0,-1
EndSplineSet
EndChar

StartChar: J
Encoding: 74 74 41
Width: 1489
Flags: W
LayerCount: 2
Fore
SplineSet
1255 487 m 2,0,1
 1255 378 1255 378 1214 284 c 128,-1,2
 1173 190 1173 190 1101 121.5 c 128,-1,3
 1029 53 1029 53 932 14 c 128,-1,4
 835 -25 835 -25 723 -25 c 0,5,6
 612 -25 612 -25 513.5 14 c 128,-1,7
 415 53 415 53 341.5 121.5 c 128,-1,8
 268 190 268 190 225 284 c 128,-1,9
 182 378 182 378 182 487 c 1,10,-1
 457 487 l 1,11,12
 457 448 457 448 476 413.5 c 128,-1,13
 495 379 495 379 527.5 353 c 128,-1,14
 560 327 560 327 604 312 c 128,-1,15
 648 297 648 297 698 297 c 0,16,17
 747 297 747 297 790 312 c 128,-1,18
 833 327 833 327 865.5 353 c 128,-1,19
 898 379 898 379 917.5 413.5 c 128,-1,20
 937 448 937 448 938 487 c 2,21,-1
 993 1913 l 1,22,-1
 1231 1913 l 1,23,-1
 1255 487 l 2,0,1
EndSplineSet
EndChar

StartChar: K
Encoding: 75 75 42
Width: 1806
Flags: W
LayerCount: 2
Fore
SplineSet
1518 1913 m 1,0,-1
 758 1061 l 1,1,-1
 1602 94 l 1,2,-1
 1602 0 l 1,3,-1
 1221 0 l 1,4,-1
 524 877 l 1,5,-1
 569 0 l 1,6,-1
 205 0 l 1,7,-1
 258 1913 l 1,8,-1
 504 1913 l 1,9,-1
 518 1149 l 1,10,-1
 1225 1913 l 1,11,-1
 1518 1915 l 1,12,-1
 1518 1913 l 1,0,-1
EndSplineSet
EndChar

StartChar: M
Encoding: 77 77 43
Width: 2439
Flags: W
LayerCount: 2
Fore
SplineSet
1219 584 m 1,0,-1
 1784 1913 l 1,1,-1
 2105 1913 l 1,2,-1
 2234 0 l 1,3,-1
 1868 0 l 1,4,-1
 1913 1686 l 1,5,-1
 1415 297 l 1,6,-1
 1024 297 l 1,7,-1
 524 1686 l 1,8,-1
 569 0 l 1,9,-1
 205 0 l 1,10,-1
 334 1913 l 1,11,-1
 655 1913 l 1,12,-1
 1219 584 l 1,0,-1
EndSplineSet
EndChar

StartChar: N
Encoding: 78 78 44
Width: 2013
Flags: W
LayerCount: 2
Fore
SplineSet
1755 1913 m 1,0,-1
 1808 0 l 1,1,-1
 1409 0 l 1,2,-1
 537 1446 l 1,3,-1
 569 0 l 1,4,-1
 205 0 l 1,5,-1
 262 1913 l 1,6,-1
 530 1913 l 1,7,-1
 1479 487 l 1,8,-1
 1511 1694 l 1,9,-1
 1673 1913 l 1,10,-1
 1755 1913 l 1,0,-1
EndSplineSet
EndChar

StartChar: O
Encoding: 79 79 45
Width: 2128
Flags: W
LayerCount: 2
Fore
SplineSet
1026 -25 m 2,0,1
 935 -25 935 -25 853.5 -10.5 c 128,-1,2
 772 4 772 4 700 35 c 0,3,4
 628 64 628 64 565.5 110.5 c 128,-1,5
 503 157 503 157 451 219 c 0,6,7
 394 285 394 285 349.5 357 c 128,-1,8
 305 429 305 429 274 510 c 0,9,10
 256 554 256 554 243 605 c 128,-1,11
 230 656 230 656 221.5 710 c 128,-1,12
 213 764 213 764 209 818.5 c 128,-1,13
 205 873 205 873 205 924 c 0,14,15
 205 978 205 978 209.5 1035.5 c 128,-1,16
 214 1093 214 1093 223 1150 c 128,-1,17
 232 1207 232 1207 245 1261 c 128,-1,18
 258 1315 258 1315 276 1362 c 0,19,20
 308 1449 308 1449 355.5 1526.5 c 128,-1,21
 403 1604 403 1604 463 1675 c 0,22,23
 572 1805 572 1805 723 1870 c 0,24,25
 797 1902 797 1902 881 1915.5 c 128,-1,26
 965 1929 965 1929 1061 1931 c 2,27,-1
 1067 1931 l 2,28,29
 1163 1929 1163 1929 1247 1915.5 c 128,-1,30
 1331 1902 1331 1902 1405 1870 c 0,31,32
 1480 1838 1480 1838 1544.5 1789 c 128,-1,33
 1609 1740 1609 1740 1665 1675 c 0,34,35
 1725 1604 1725 1604 1772 1526.5 c 128,-1,36
 1819 1449 1819 1449 1851 1362 c 0,37,38
 1869 1315 1869 1315 1882.5 1261 c 128,-1,39
 1896 1207 1896 1207 1905 1150 c 128,-1,40
 1914 1093 1914 1093 1918.5 1035.5 c 128,-1,41
 1923 978 1923 978 1923 924 c 0,42,43
 1923 873 1923 873 1918.5 818.5 c 128,-1,44
 1914 764 1914 764 1905 710 c 128,-1,45
 1896 656 1896 656 1883 605 c 128,-1,46
 1870 554 1870 554 1853 510 c 0,47,48
 1822 429 1822 429 1778 357 c 128,-1,49
 1734 285 1734 285 1677 219 c 0,50,51
 1625 157 1625 157 1562.5 110.5 c 128,-1,52
 1500 64 1500 64 1427 35 c 0,53,54
 1356 4 1356 4 1274.5 -10.5 c 128,-1,55
 1193 -25 1193 -25 1102 -25 c 2,56,-1
 1026 -25 l 2,0,1
1077 315 m 2,57,58
 1227 315 1227 315 1327 354 c 0,59,60
 1386 379 1386 379 1429.5 419 c 128,-1,61
 1473 459 1473 459 1505 512 c 0,62,63
 1567 608 1567 608 1595.5 732.5 c 128,-1,64
 1624 857 1624 857 1624 1012 c 0,65,66
 1624 1161 1624 1161 1584.5 1284.5 c 128,-1,67
 1545 1408 1545 1408 1477 1501 c 0,68,69
 1436 1556 1436 1556 1386.5 1594 c 128,-1,70
 1337 1632 1337 1632 1284 1656 c 128,-1,71
 1231 1680 1231 1680 1176.5 1691 c 128,-1,72
 1122 1702 1122 1702 1071 1702 c 2,73,-1
 1057 1702 l 2,74,75
 1006 1702 1006 1702 952 1691 c 128,-1,76
 898 1680 898 1680 844.5 1656 c 128,-1,77
 791 1632 791 1632 741.5 1594 c 128,-1,78
 692 1556 692 1556 651 1501 c 0,79,80
 583 1408 583 1408 543.5 1284.5 c 128,-1,81
 504 1161 504 1161 504 1012 c 0,82,83
 504 857 504 857 532.5 732.5 c 128,-1,84
 561 608 561 608 623 512 c 0,85,86
 655 459 655 459 698.5 419 c 128,-1,87
 742 379 742 379 801 354 c 0,88,89
 852 334 852 334 912.5 324.5 c 128,-1,90
 973 315 973 315 1051 315 c 2,91,-1
 1077 315 l 2,57,58
EndSplineSet
EndChar

StartChar: P
Encoding: 80 80 46
Width: 1729
Flags: W
LayerCount: 2
Fore
SplineSet
958 1913 m 0,0,1
 1076 1913 1076 1913 1179 1869.5 c 128,-1,2
 1282 1826 1282 1826 1358.5 1750.5 c 128,-1,3
 1435 1675 1435 1675 1479.5 1573 c 128,-1,4
 1524 1471 1524 1471 1524 1354 c 256,5,6
 1524 1237 1524 1237 1477 1136 c 128,-1,7
 1430 1035 1430 1035 1351 961 c 128,-1,8
 1272 887 1272 887 1170 844 c 128,-1,9
 1068 801 1068 801 958 799 c 2,10,-1
 954 799 l 2,11,12
 908 798 908 798 868 799 c 128,-1,13
 828 800 828 800 792 803 c 128,-1,14
 756 806 756 806 722 810.5 c 128,-1,15
 688 815 688 815 653 821 c 0,16,17
 623 827 623 827 602 834 c 128,-1,18
 581 841 581 841 566 847 c 128,-1,19
 551 853 551 853 541.5 858 c 128,-1,20
 532 863 532 863 526 866 c 1,21,-1
 555 0 l 1,22,-1
 205 0 l 1,23,24
 215 172 215 172 224 334 c 0,25,26
 227 403 227 403 231 477 c 128,-1,27
 235 551 235 551 238 622 c 128,-1,28
 241 693 241 693 244 758 c 128,-1,29
 247 823 247 823 248 874 c 0,30,31
 250 926 250 926 251 998.5 c 128,-1,32
 252 1071 252 1071 252.5 1153.5 c 128,-1,33
 253 1236 253 1236 253.5 1324.5 c 128,-1,34
 254 1413 254 1413 254 1497 c 0,35,36
 254 1695 254 1695 254 1913 c 1,37,-1
 492 1913 l 1,38,-1
 500 1821 l 1,39,40
 506 1826 506 1826 511 1831 c 0,41,42
 516 1835 516 1835 520 1838 c 128,-1,43
 524 1841 524 1841 526 1843 c 0,44,45
 548 1857 548 1857 568.5 1865.5 c 128,-1,46
 589 1874 589 1874 610.5 1880.5 c 128,-1,47
 632 1887 632 1887 655 1892 c 128,-1,48
 678 1897 678 1897 705 1903 c 0,49,50
 733 1909 733 1909 775.5 1911.5 c 128,-1,51
 818 1914 818 1914 859 1914 c 0,52,53
 907 1914 907 1914 958 1913 c 0,0,1
969 1079 m 256,54,55
 1028 1079 1028 1079 1079.5 1104 c 128,-1,56
 1131 1129 1131 1129 1169.5 1170.5 c 128,-1,57
 1208 1212 1208 1212 1230.5 1266.5 c 128,-1,58
 1253 1321 1253 1321 1253 1380 c 256,59,60
 1253 1439 1253 1439 1230.5 1493.5 c 128,-1,61
 1208 1548 1208 1548 1169 1589.5 c 128,-1,62
 1130 1631 1130 1631 1078.5 1656 c 128,-1,63
 1027 1681 1027 1681 969 1681 c 0,64,65
 850 1681 850 1681 768 1679 c 128,-1,66
 686 1677 686 1677 635 1663 c 0,67,68
 612 1656 612 1656 590 1646 c 128,-1,69
 568 1636 568 1636 550.5 1622.5 c 128,-1,70
 533 1609 533 1609 521 1592 c 128,-1,71
 509 1575 509 1575 506 1554 c 2,72,-1
 516 1167 l 2,73,74
 516 1143 516 1143 530.5 1126.5 c 128,-1,75
 545 1110 545 1110 575 1098 c 0,76,77
 596 1090 596 1090 638 1086 c 128,-1,78
 680 1082 680 1082 734 1080.5 c 128,-1,79
 788 1079 788 1079 849 1079 c 128,-1,80
 910 1079 910 1079 969 1079 c 256,54,55
EndSplineSet
EndChar

StartChar: Q
Encoding: 81 81 47
Width: 2073
Flags: W
LayerCount: 2
Fore
SplineSet
1896 162 m 1,0,-1
 1896 0 l 1,1,-1
 1671 0 l 1,2,-1
 1507 184 l 1,3,4
 1464 135 1464 135 1415 98 c 128,-1,5
 1366 61 1366 61 1311 35 c 0,6,7
 1246 4 1246 4 1172.5 -10.5 c 128,-1,8
 1099 -25 1099 -25 1016 -25 c 2,9,-1
 948 -25 l 2,10,11
 865 -25 865 -25 791.5 -10.5 c 128,-1,12
 718 4 718 4 653 35 c 0,13,14
 588 64 588 64 532 110.5 c 128,-1,15
 476 157 476 157 426 219 c 0,16,17
 324 351 324 351 266 510 c 0,18,19
 251 554 251 554 239.5 605 c 128,-1,20
 228 656 228 656 220.5 710 c 128,-1,21
 213 764 213 764 209 818.5 c 128,-1,22
 205 873 205 873 205 924 c 0,23,24
 205 978 205 978 209 1035.5 c 128,-1,25
 213 1093 213 1093 221.5 1150 c 128,-1,26
 230 1207 230 1207 242 1261 c 128,-1,27
 254 1315 254 1315 270 1362 c 0,28,29
 328 1534 328 1534 438 1675 c 0,30,31
 538 1805 538 1805 674 1870 c 0,32,33
 740 1902 740 1902 816 1915.5 c 128,-1,34
 892 1929 892 1929 979 1931 c 2,35,-1
 985 1931 l 2,36,37
 1070 1929 1070 1929 1147 1915.5 c 128,-1,38
 1224 1902 1224 1902 1290 1870 c 0,39,40
 1426 1805 1426 1805 1526 1675 c 0,41,42
 1580 1604 1580 1604 1622.5 1526.5 c 128,-1,43
 1665 1449 1665 1449 1694 1362 c 0,44,45
 1710 1315 1710 1315 1722 1261 c 128,-1,46
 1734 1207 1734 1207 1742.5 1150 c 128,-1,47
 1751 1093 1751 1093 1755 1035.5 c 128,-1,48
 1759 978 1759 978 1759 924 c 0,49,50
 1759 873 1759 873 1755 818.5 c 128,-1,51
 1751 764 1751 764 1743 710 c 128,-1,52
 1735 656 1735 656 1723 605 c 128,-1,53
 1711 554 1711 554 1696 510 c 0,54,55
 1686 485 1686 485 1676.5 460.5 c 128,-1,56
 1667 436 1667 436 1655 412 c 1,57,-1
 1896 162 l 1,0,-1
1438 639 m 1,58,59
 1464 719 1464 719 1475.5 812 c 128,-1,60
 1487 905 1487 905 1487 1012 c 0,61,62
 1487 1161 1487 1161 1452.5 1283.5 c 128,-1,63
 1418 1406 1418 1406 1356 1499 c 0,64,65
 1319 1554 1319 1554 1274 1592.5 c 128,-1,66
 1229 1631 1229 1631 1181 1655.5 c 128,-1,67
 1133 1680 1133 1680 1083.5 1691 c 128,-1,68
 1034 1702 1034 1702 989 1702 c 2,69,-1
 975 1702 l 2,70,71
 930 1702 930 1702 880.5 1691 c 128,-1,72
 831 1680 831 1680 783 1655.5 c 128,-1,73
 735 1631 735 1631 690 1592.5 c 128,-1,74
 645 1554 645 1554 608 1499 c 0,75,76
 546 1406 546 1406 510.5 1283.5 c 128,-1,77
 475 1161 475 1161 475 1012 c 0,78,79
 475 857 475 857 500.5 732.5 c 128,-1,80
 526 608 526 608 582 512 c 0,81,82
 613 459 613 459 652 419 c 128,-1,83
 691 379 691 379 743 354 c 0,84,85
 790 334 790 334 846 324.5 c 128,-1,86
 902 315 902 315 971 315 c 2,87,-1
 993 315 l 2,88,89
 1062 315 1062 315 1117.5 324.5 c 128,-1,90
 1173 334 1173 334 1221 354 c 1,91,92
 1268 378 1268 378 1300 414 c 1,93,-1
 983 770 l 1,94,-1
 1149 942 l 1,95,-1
 1438 639 l 1,58,59
EndSplineSet
EndChar

StartChar: R
Encoding: 82 82 48
Width: 1952
Flags: W
LayerCount: 2
Fore
SplineSet
1747 0 m 1,0,-1
 1403 0 l 1,1,-1
 1020 668 l 2,2,3
 1012 682 1012 682 997 704 c 128,-1,4
 982 726 982 726 957.5 747 c 128,-1,5
 933 768 933 768 898 783.5 c 128,-1,6
 863 799 863 799 815 799 c 2,7,-1
 526 799 l 1,8,-1
 549 0 l 1,9,-1
 205 0 l 1,10,-1
 258 1913 l 1,11,-1
 1053 1913 l 1,12,-1
 1067 1913 l 2,13,14
 1193 1913 1193 1913 1299 1868.5 c 128,-1,15
 1405 1824 1405 1824 1482 1748 c 128,-1,16
 1559 1672 1559 1672 1602 1570 c 128,-1,17
 1645 1468 1645 1468 1645 1354 c 0,18,19
 1645 1261 1645 1261 1614 1176 c 128,-1,20
 1583 1091 1583 1091 1529.5 1021.5 c 128,-1,21
 1476 952 1476 952 1403.5 900 c 128,-1,22
 1331 848 1331 848 1247 821 c 1,23,-1
 1747 125 l 1,24,-1
 1747 0 l 1,0,-1
1085 1077 m 2,25,26
 1144 1077 1144 1077 1195.5 1103.5 c 128,-1,27
 1247 1130 1247 1130 1286 1173.5 c 128,-1,28
 1325 1217 1325 1217 1347.5 1273.5 c 128,-1,29
 1370 1330 1370 1330 1370 1389 c 256,30,31
 1370 1448 1370 1448 1350.5 1501 c 128,-1,32
 1331 1554 1331 1554 1294 1594 c 128,-1,33
 1257 1634 1257 1634 1204 1657.5 c 128,-1,34
 1151 1681 1151 1681 1085 1681 c 2,35,-1
 502 1681 l 1,36,-1
 518 1077 l 1,37,-1
 1085 1077 l 2,25,26
EndSplineSet
EndChar

StartChar: S
Encoding: 83 83 49
Width: 1886
Flags: W
LayerCount: 2
Fore
SplineSet
1249 408 m 0,0,1
 1300 440 1300 440 1320 487.5 c 128,-1,2
 1340 535 1340 535 1341 608 c 0,3,4
 1343 646 1343 646 1336 671 c 128,-1,5
 1329 696 1329 696 1315 721 c 0,6,7
 1299 746 1299 746 1276 765.5 c 128,-1,8
 1253 785 1253 785 1221 799 c 0,9,10
 1198 810 1198 810 1151 825 c 128,-1,11
 1104 840 1104 840 1045 858.5 c 128,-1,12
 986 877 986 877 920 898 c 128,-1,13
 854 919 854 919 793 940 c 0,14,15
 734 961 734 961 689 978.5 c 128,-1,16
 644 996 644 996 605 1013.5 c 128,-1,17
 566 1031 566 1031 529.5 1051 c 128,-1,18
 493 1071 493 1071 451 1096 c 0,19,20
 366 1145 366 1145 323.5 1222.5 c 128,-1,21
 281 1300 281 1300 281 1411 c 0,22,23
 281 1537 281 1537 319 1628 c 128,-1,24
 357 1719 357 1719 444 1794 c 0,25,26
 488 1831 488 1831 536 1857 c 128,-1,27
 584 1883 584 1883 641 1899.5 c 128,-1,28
 698 1916 698 1916 765.5 1923.5 c 128,-1,29
 833 1931 833 1931 915 1931 c 0,30,31
 1016 1931 1016 1931 1093 1921.5 c 128,-1,32
 1170 1912 1170 1912 1233 1890 c 0,33,34
 1261 1880 1261 1880 1287.5 1870 c 128,-1,35
 1314 1860 1314 1860 1340 1846 c 128,-1,36
 1366 1832 1366 1832 1391.5 1812 c 128,-1,37
 1417 1792 1417 1792 1442 1763 c 0,38,39
 1467 1735 1467 1735 1488 1700.5 c 128,-1,40
 1509 1666 1509 1666 1524 1628.5 c 128,-1,41
 1539 1591 1539 1591 1547.5 1551.5 c 128,-1,42
 1556 1512 1556 1512 1556 1473 c 1,43,-1
 1290 1473 l 1,44,45
 1290 1511 1290 1511 1272.5 1552.5 c 128,-1,46
 1255 1594 1255 1594 1217 1626 c 0,47,48
 1198 1642 1198 1642 1172 1656 c 128,-1,49
 1146 1670 1146 1670 1108 1680 c 128,-1,50
 1070 1690 1070 1690 1017.5 1696 c 128,-1,51
 965 1702 965 1702 893 1702 c 0,52,53
 795 1702 795 1702 731.5 1676 c 128,-1,54
 668 1650 668 1650 621 1610 c 0,55,56
 582 1578 582 1578 567.5 1541 c 128,-1,57
 553 1504 553 1504 553 1450 c 0,58,59
 553 1416 553 1416 560 1398 c 128,-1,60
 567 1380 567 1380 584 1360 c 0,61,62
 602 1338 602 1338 625 1324 c 128,-1,63
 648 1310 648 1310 682 1294 c 0,64,65
 691 1290 691 1290 713 1282.5 c 128,-1,66
 735 1275 735 1275 765 1265.5 c 128,-1,67
 795 1256 795 1256 830 1244.5 c 128,-1,68
 865 1233 865 1233 901 1222 c 0,69,70
 985 1196 985 1196 1085 1165 c 0,71,72
 1147 1147 1147 1147 1207.5 1128.5 c 128,-1,73
 1268 1110 1268 1110 1322.5 1090.5 c 128,-1,74
 1377 1071 1377 1071 1423 1051 c 128,-1,75
 1469 1031 1469 1031 1503 1010 c 0,76,77
 1545 984 1545 984 1578.5 942.5 c 128,-1,78
 1612 901 1612 901 1634.5 848.5 c 128,-1,79
 1657 796 1657 796 1669 736 c 128,-1,80
 1681 676 1681 676 1681 612 c 2,81,-1
 1681 573 l 1,82,83
 1675 458 1675 458 1633.5 360 c 128,-1,84
 1592 262 1592 262 1501 174 c 0,85,86
 1456 131 1456 131 1395 95.5 c 128,-1,87
 1334 60 1334 60 1260 35 c 0,88,89
 1181 7 1181 7 1095 -9 c 128,-1,90
 1009 -25 1009 -25 918 -25 c 0,91,92
 820 -25 820 -25 736.5 -10 c 128,-1,93
 653 5 653 5 582 33 c 0,94,95
 517 56 517 56 464 91 c 128,-1,96
 411 126 411 126 369 172 c 0,97,98
 330 214 330 214 301.5 251.5 c 128,-1,99
 273 289 273 289 253.5 327 c 128,-1,100
 234 365 234 365 222.5 408 c 128,-1,101
 211 451 211 451 205 504 c 1,102,-1
 555 504 l 1,103,104
 563 481 563 481 572 467 c 128,-1,105
 581 453 581 453 590 442 c 0,106,107
 613 411 613 411 642.5 387 c 128,-1,108
 672 363 672 363 713 347 c 128,-1,109
 754 331 754 331 808 323 c 128,-1,110
 862 315 862 315 934 315 c 0,111,112
 1034 315 1034 315 1110.5 341 c 128,-1,113
 1187 367 1187 367 1249 408 c 0,0,1
EndSplineSet
EndChar

StartChar: T
Encoding: 84 84 50
Width: 1661
Flags: W
LayerCount: 2
Fore
SplineSet
1579 1913 m 1,0,-1
 1579 1683 l 1,1,-1
 954 1683 l 1,2,-1
 1001 0 l 1,3,-1
 657 0 l 1,4,-1
 705 1683 l 1,5,-1
 82 1683 l 1,6,-1
 82 1913 l 1,7,-1
 1579 1913 l 1,0,-1
EndSplineSet
EndChar

StartChar: U
Encoding: 85 85 51
Width: 2007
Flags: W
LayerCount: 2
Fore
SplineSet
481 1913 m 1,0,-1
 516 659 l 2,1,2
 516 641 516 641 516 612 c 128,-1,3
 516 583 516 583 520 551.5 c 128,-1,4
 524 520 524 520 534 488.5 c 128,-1,5
 544 457 544 457 563 434 c 0,6,7
 601 389 601 389 644.5 364.5 c 128,-1,8
 688 340 688 340 730.5 328.5 c 128,-1,9
 773 317 773 317 810.5 315 c 128,-1,10
 848 313 848 313 874 313 c 0,11,12
 916 313 916 313 955.5 323 c 128,-1,13
 995 333 995 333 1031 349.5 c 128,-1,14
 1067 366 1067 366 1100 387.5 c 128,-1,15
 1133 409 1133 409 1161 432 c 0,16,17
 1188 455 1188 455 1214.5 483.5 c 128,-1,18
 1241 512 1241 512 1264.5 546 c 128,-1,19
 1288 580 1288 580 1307 618 c 128,-1,20
 1326 656 1326 656 1339 696 c 0,21,22
 1353 741 1353 741 1363 776 c 128,-1,23
 1373 811 1373 811 1380 850 c 128,-1,24
 1387 889 1387 889 1390 937 c 128,-1,25
 1393 985 1393 985 1393 1055 c 2,26,-1
 1417 1913 l 1,27,-1
 1655 1913 l 1,28,29
 1664 1551 1664 1551 1673 1252 c 0,30,31
 1676 1167 1676 1167 1678.5 1082.5 c 128,-1,32
 1681 998 1681 998 1683.5 918.5 c 128,-1,33
 1686 839 1686 839 1688.5 768 c 128,-1,34
 1691 697 1691 697 1693.5 640 c 128,-1,35
 1696 583 1696 583 1698 543 c 128,-1,36
 1700 503 1700 503 1702 485 c 0,37,38
 1705 459 1705 459 1710.5 424 c 128,-1,39
 1716 389 1716 389 1723.5 350 c 128,-1,40
 1731 311 1731 311 1739.5 270 c 128,-1,41
 1748 229 1748 229 1757 190 c 0,42,43
 1778 98 1778 98 1802 0 c 1,44,-1
 1528 0 l 1,45,-1
 1444 117 l 1,46,-1
 1442 418 l 1,47,48
 1439 410 1439 410 1431 396 c 0,49,50
 1425 384 1425 384 1414 363.5 c 128,-1,51
 1403 343 1403 343 1386 311 c 0,52,53
 1321 181 1321 181 1212 102 c 0,54,55
 1162 66 1162 66 1115 41.5 c 128,-1,56
 1068 17 1068 17 1019.5 2.5 c 128,-1,57
 971 -12 971 -12 919.5 -18.5 c 128,-1,58
 868 -25 868 -25 809 -25 c 0,59,60
 610 -25 610 -25 470.5 44.5 c 128,-1,61
 331 114 331 114 266 236 c 0,62,63
 229 305 229 305 217 399 c 128,-1,64
 205 493 205 493 205 610 c 2,65,-1
 242 1913 l 1,66,-1
 481 1913 l 1,0,-1
EndSplineSet
EndChar

StartChar: V
Encoding: 86 86 52
Width: 1937
Flags: W
LayerCount: 2
Fore
SplineSet
1769 1913 m 1,0,-1
 1145 0 l 1,1,-1
 793 0 l 1,2,-1
 168 1913 l 1,3,-1
 406 1913 l 1,4,-1
 969 487 l 1,5,-1
 1530 1913 l 1,6,-1
 1769 1913 l 1,0,-1
EndSplineSet
EndChar

StartChar: W
Encoding: 87 87 53
Width: 2732
Flags: W
LayerCount: 2
Fore
SplineSet
1522 1368 m 1,0,-1
 1864 328 l 1,1,-1
 2279 1913 l 1,2,-1
 2564 1913 l 1,3,-1
 2046 0 l 1,4,-1
 1681 0 l 1,5,-1
 1366 1139 l 1,6,-1
 1051 0 l 1,7,-1
 686 0 l 1,8,-1
 168 1913 l 1,9,-1
 453 1913 l 1,10,-1
 868 328 l 1,11,-1
 1210 1368 l 1,12,-1
 1522 1368 l 1,0,-1
EndSplineSet
EndChar

StartChar: X
Encoding: 88 88 54
Width: 2064
Flags: W
LayerCount: 2
Fore
SplineSet
1219 1063 m 1,0,-1
 1860 0 l 1,1,-1
 1464 0 l 1,2,-1
 1032 862 l 1,3,-1
 598 0 l 1,4,-1
 205 0 l 1,5,-1
 811 1063 l 1,6,-1
 297 1913 l 1,7,-1
 578 1913 l 1,8,-1
 1032 1264 l 1,9,-1
 1483 1913 l 1,10,-1
 1767 1913 l 1,11,-1
 1219 1063 l 1,0,-1
EndSplineSet
EndChar

StartChar: Y
Encoding: 89 89 55
Width: 1837
Flags: W
LayerCount: 2
Fore
SplineSet
1669 1913 m 1,0,-1
 1092 817 l 1,1,2
 1079 643 1079 643 1068 505 c 0,3,4
 1064 446 1064 446 1059.5 389 c 128,-1,5
 1055 332 1055 332 1051.5 286 c 128,-1,6
 1048 240 1048 240 1046 211 c 128,-1,7
 1044 182 1044 182 1044 178 c 0,8,9
 1042 175 1042 175 1034.5 166 c 128,-1,10
 1027 157 1027 157 1016 144.5 c 128,-1,11
 1005 132 1005 132 991.5 116 c 128,-1,12
 978 100 978 100 964 84 c 0,13,14
 931 46 931 46 891 0 c 1,15,-1
 682 0 l 1,16,-1
 803 817 l 1,17,-1
 168 1913 l 1,18,-1
 424 1913 l 1,19,-1
 963 995 l 1,20,-1
 1395 1913 l 1,21,-1
 1669 1913 l 1,0,-1
EndSplineSet
EndChar

StartChar: Z
Encoding: 90 90 56
Width: 2095
Flags: W
LayerCount: 2
Fore
SplineSet
1716 1913 m 1,0,-1
 1716 1649 l 1,1,-1
 668 313 l 1,2,-1
 1774 313 l 1,3,-1
 1890 0 l 1,4,-1
 205 0 l 1,5,-1
 213 328 l 1,6,-1
 1378 1683 l 1,7,-1
 350 1683 l 1,8,-1
 350 1913 l 1,9,-1
 1716 1913 l 1,0,-1
EndSplineSet
EndChar

StartChar: question
Encoding: 63 63 57
Width: 1378
Flags: W
LayerCount: 2
Fore
SplineSet
274 1790 m 0,0,1
 346 1856 346 1856 446 1884.5 c 128,-1,2
 546 1913 546 1913 668 1913 c 0,3,4
 725 1913 725 1913 782 1906 c 128,-1,5
 839 1899 839 1899 892 1885 c 128,-1,6
 945 1871 945 1871 991 1849 c 128,-1,7
 1037 1827 1037 1827 1071 1798 c 0,8,9
 1206 1684 1206 1684 1206 1507 c 0,10,11
 1206 1481 1206 1481 1204.5 1450 c 128,-1,12
 1203 1419 1203 1419 1198 1387.5 c 128,-1,13
 1193 1356 1193 1356 1183.5 1327 c 128,-1,14
 1174 1298 1174 1298 1157 1276 c 0,15,16
 1140 1253 1140 1253 1121 1231.5 c 128,-1,17
 1102 1210 1102 1210 1078 1186.5 c 128,-1,18
 1054 1163 1054 1163 1024 1137 c 128,-1,19
 994 1111 994 1111 956 1079 c 0,20,21
 929 1056 929 1056 908 1030 c 128,-1,22
 887 1004 887 1004 871 978 c 128,-1,23
 855 952 855 952 843.5 929 c 128,-1,24
 832 906 832 906 823 889 c 0,25,26
 815 873 815 873 810.5 835.5 c 128,-1,27
 806 798 806 798 804 753.5 c 128,-1,28
 802 709 802 709 801.5 663.5 c 128,-1,29
 801 618 801 618 801 586 c 1,30,-1
 508 586 l 1,31,32
 508 623 508 623 511 673 c 128,-1,33
 514 723 514 723 519.5 772.5 c 128,-1,34
 525 822 525 822 533 865 c 128,-1,35
 541 908 541 908 551 930 c 0,36,37
 560 952 560 952 579 984 c 128,-1,38
 598 1016 598 1016 623.5 1051.5 c 128,-1,39
 649 1087 649 1087 680 1123 c 128,-1,40
 711 1159 711 1159 745 1188 c 2,41,-1
 829 1260 l 2,42,43
 849 1278 849 1278 867 1295 c 128,-1,44
 885 1312 885 1312 905 1339 c 0,45,46
 917 1355 917 1355 925.5 1377 c 128,-1,47
 934 1399 934 1399 940 1422.5 c 128,-1,48
 946 1446 946 1446 949 1468.5 c 128,-1,49
 952 1491 952 1491 952 1509 c 0,50,51
 952 1535 952 1535 951 1556.5 c 128,-1,52
 950 1578 950 1578 945.5 1598 c 128,-1,53
 941 1618 941 1618 931.5 1636.5 c 128,-1,54
 922 1655 922 1655 905 1673 c 0,55,56
 871 1710 871 1710 805.5 1727.5 c 128,-1,57
 740 1745 740 1745 662 1745 c 0,58,59
 613 1745 613 1745 576 1741 c 128,-1,60
 539 1737 539 1737 510 1726.5 c 128,-1,61
 481 1716 481 1716 459.5 1699 c 128,-1,62
 438 1682 438 1682 420 1655 c 0,63,64
 408 1638 408 1638 402 1614 c 128,-1,65
 396 1590 396 1590 393.5 1568 c 128,-1,66
 391 1546 391 1546 391 1529.5 c 128,-1,67
 391 1513 391 1513 391 1511 c 1,68,-1
 184 1511 l 1,69,70
 183 1535 183 1535 183.5 1569 c 128,-1,71
 184 1603 184 1603 193 1641.5 c 128,-1,72
 202 1680 202 1680 221 1718.5 c 128,-1,73
 240 1757 240 1757 274 1790 c 0,0,1
866 160 m 256,74,75
 866 118 866 118 850 81.5 c 128,-1,76
 834 45 834 45 807 17 c 128,-1,77
 780 -11 780 -11 743 -27 c 128,-1,78
 706 -43 706 -43 664 -43 c 256,79,80
 622 -43 622 -43 585 -27 c 128,-1,81
 548 -11 548 -11 520.5 17 c 128,-1,82
 493 45 493 45 477 81.5 c 128,-1,83
 461 118 461 118 461 160 c 256,84,85
 461 202 461 202 477 239.5 c 128,-1,86
 493 277 493 277 520.5 304.5 c 128,-1,87
 548 332 548 332 585 348.5 c 128,-1,88
 622 365 622 365 664 365 c 256,89,90
 706 365 706 365 743 348.5 c 128,-1,91
 780 332 780 332 807 304.5 c 128,-1,92
 834 277 834 277 850 239.5 c 128,-1,93
 866 202 866 202 866 160 c 256,74,75
EndSplineSet
EndChar

StartChar: quotesinglbase
Encoding: 8218 8218 58
Width: 813
Flags: W
LayerCount: 2
Fore
SplineSet
408 365 m 256,0,1
 450 365 450 365 487 349 c 128,-1,2
 524 333 524 333 551 305.5 c 128,-1,3
 578 278 578 278 594 241 c 128,-1,4
 610 204 610 204 610 162 c 0,5,6
 610 40 610 40 605 -41.5 c 128,-1,7
 600 -123 600 -123 589 -177.5 c 128,-1,8
 578 -232 578 -232 561 -266 c 128,-1,9
 544 -300 544 -300 520 -328 c 0,10,11
 495 -358 495 -358 462 -378 c 128,-1,12
 429 -398 429 -398 399 -409 c 0,13,14
 364 -423 364 -423 328 -430 c 1,15,-1
 305 -299 l 1,16,17
 343 -288 343 -288 371 -269.5 c 128,-1,18
 399 -251 399 -251 424 -223 c 0,19,20
 436 -206 436 -206 444.5 -188 c 128,-1,21
 453 -170 453 -170 458 -147.5 c 128,-1,22
 463 -125 463 -125 465 -97 c 128,-1,23
 467 -69 467 -69 467 -31 c 1,24,25
 456 -37 456 -37 438 -39 c 128,-1,26
 420 -41 420 -41 408 -41 c 0,27,28
 366 -41 366 -41 329 -25 c 128,-1,29
 292 -9 292 -9 264.5 18.5 c 128,-1,30
 237 46 237 46 221 83 c 128,-1,31
 205 120 205 120 205 162 c 256,32,33
 205 204 205 204 221 241 c 128,-1,34
 237 278 237 278 264.5 305.5 c 128,-1,35
 292 333 292 333 329 349 c 128,-1,36
 366 365 366 365 408 365 c 256,0,1
EndSplineSet
EndChar

StartChar: comma
Encoding: 44 44 59
Width: 813
Flags: W
LayerCount: 2
Fore
SplineSet
408 365 m 256,0,1
 450 365 450 365 487 349 c 128,-1,2
 524 333 524 333 551 305.5 c 128,-1,3
 578 278 578 278 594 241 c 128,-1,4
 610 204 610 204 610 162 c 0,5,6
 610 40 610 40 605 -41.5 c 128,-1,7
 600 -123 600 -123 589 -177.5 c 128,-1,8
 578 -232 578 -232 561 -266 c 128,-1,9
 544 -300 544 -300 520 -328 c 0,10,11
 495 -358 495 -358 462 -378 c 128,-1,12
 429 -398 429 -398 399 -409 c 0,13,14
 364 -423 364 -423 328 -430 c 1,15,-1
 305 -299 l 1,16,17
 343 -288 343 -288 371 -269.5 c 128,-1,18
 399 -251 399 -251 424 -223 c 0,19,20
 436 -206 436 -206 444.5 -188 c 128,-1,21
 453 -170 453 -170 458 -147.5 c 128,-1,22
 463 -125 463 -125 465 -97 c 128,-1,23
 467 -69 467 -69 467 -31 c 1,24,25
 456 -37 456 -37 438 -39 c 128,-1,26
 420 -41 420 -41 408 -41 c 0,27,28
 366 -41 366 -41 329 -25 c 128,-1,29
 292 -9 292 -9 264.5 18.5 c 128,-1,30
 237 46 237 46 221 83 c 128,-1,31
 205 120 205 120 205 162 c 256,32,33
 205 204 205 204 221 241 c 128,-1,34
 237 278 237 278 264.5 305.5 c 128,-1,35
 292 333 292 333 329 349 c 128,-1,36
 366 365 366 365 408 365 c 256,0,1
EndSplineSet
EndChar

StartChar: period
Encoding: 46 46 60
Width: 817
Flags: W
LayerCount: 2
Fore
SplineSet
610 178 m 0,0,1
 610 137 610 137 594 100 c 128,-1,2
 578 63 578 63 551 35.5 c 128,-1,3
 524 8 524 8 487 -8.5 c 128,-1,4
 450 -25 450 -25 408 -25 c 256,5,6
 366 -25 366 -25 329 -8.5 c 128,-1,7
 292 8 292 8 264.5 35.5 c 128,-1,8
 237 63 237 63 221 100 c 128,-1,9
 205 137 205 137 205 178 c 0,10,11
 205 220 205 220 221 257.5 c 128,-1,12
 237 295 237 295 264.5 323 c 128,-1,13
 292 351 292 351 329 367 c 128,-1,14
 366 383 366 383 408 383 c 256,15,16
 450 383 450 383 487 367 c 128,-1,17
 524 351 524 351 551 323 c 128,-1,18
 578 295 578 295 594 257.5 c 128,-1,19
 610 220 610 220 610 178 c 0,0,1
EndSplineSet
EndChar

StartChar: parenleft
Encoding: 40 40 61
Width: 868
Flags: W
LayerCount: 2
Fore
SplineSet
682 1913 m 1,0,1
 604 1704 604 1704 560.5 1552 c 128,-1,2
 517 1400 517 1400 494 1303 c 0,3,4
 475 1228 475 1228 459.5 1153 c 128,-1,5
 444 1078 444 1078 433 999 c 128,-1,6
 422 920 422 920 416 834.5 c 128,-1,7
 410 749 410 749 410 651 c 0,8,9
 410 552 410 552 419 451.5 c 128,-1,10
 428 351 428 351 442.5 253.5 c 128,-1,11
 457 156 457 156 475.5 63.5 c 128,-1,12
 494 -29 494 -29 514 -111 c 0,13,14
 539 -211 539 -211 592 -355.5 c 128,-1,15
 645 -500 645 -500 719 -690 c 1,16,-1
 481 -690 l 1,17,18
 409 -534 409 -534 363.5 -435.5 c 128,-1,19
 318 -337 318 -337 301 -295 c 0,20,21
 284 -252 284 -252 259.5 -194 c 128,-1,22
 235 -136 235 -136 215 -61 c 0,23,24
 187 41 187 41 162.5 147.5 c 128,-1,25
 138 254 138 254 127 369 c 0,26,27
 124 399 124 399 122 434 c 128,-1,28
 120 469 120 469 118.5 505 c 128,-1,29
 117 541 117 541 116 574.5 c 128,-1,30
 115 608 115 608 115 635 c 0,31,32
 115 736 115 736 122.5 825 c 128,-1,33
 130 914 130 914 143.5 996.5 c 128,-1,34
 157 1079 157 1079 176 1157.5 c 128,-1,35
 195 1236 195 1236 219 1315 c 0,36,37
 248 1415 248 1415 314.5 1563.5 c 128,-1,38
 381 1712 381 1712 475 1913 c 1,39,-1
 682 1913 l 1,0,1
EndSplineSet
EndChar

StartChar: parenright
Encoding: 41 41 62
Width: 889
Flags: W
LayerCount: 2
Fore
SplineSet
440 1913 m 1,0,1
 534 1712 534 1712 600.5 1564.5 c 128,-1,2
 667 1417 667 1417 696 1317 c 0,3,4
 719 1238 719 1238 738 1159.5 c 128,-1,5
 757 1081 757 1081 770.5 998.5 c 128,-1,6
 784 916 784 916 791.5 827 c 128,-1,7
 799 738 799 738 799 637 c 0,8,9
 799 610 799 610 798.5 576.5 c 128,-1,10
 798 543 798 543 797 507 c 128,-1,11
 796 471 796 471 793.5 436 c 128,-1,12
 791 401 791 401 788 371 c 0,13,14
 777 256 777 256 752.5 149.5 c 128,-1,15
 728 43 728 43 700 -59 c 0,16,17
 680 -134 680 -134 655.5 -192 c 128,-1,18
 631 -250 631 -250 614 -293 c 0,19,20
 596 -335 596 -335 551 -433.5 c 128,-1,21
 506 -532 506 -532 432 -688 c 1,22,-1
 195 -688 l 1,23,24
 269 -498 269 -498 322 -353.5 c 128,-1,25
 375 -209 375 -209 401 -109 c 0,26,27
 421 -27 421 -27 440 65.5 c 128,-1,28
 459 158 459 158 473.5 255.5 c 128,-1,29
 488 353 488 353 497 453.5 c 128,-1,30
 506 554 506 554 506 653 c 0,31,32
 506 751 506 751 499.5 836.5 c 128,-1,33
 493 922 493 922 481.5 1001 c 128,-1,34
 470 1080 470 1080 455 1155 c 128,-1,35
 440 1230 440 1230 422 1305 c 0,36,37
 399 1402 399 1402 355.5 1553.5 c 128,-1,38
 312 1705 312 1705 233 1913 c 1,39,-1
 440 1913 l 1,0,1
EndSplineSet
EndChar

StartChar: slash
Encoding: 47 47 63
Width: 1176
Flags: W
LayerCount: 2
Fore
SplineSet
418 -86 m 1,0,-1
 131 -86 l 1,1,-1
 776 1913 l 1,2,-1
 1012 1913 l 1,3,-1
 418 -86 l 1,0,-1
EndSplineSet
EndChar

StartChar: zero
Encoding: 48 48 64
Width: 1350
Flags: W
LayerCount: 2
Fore
SplineSet
655 1501 m 1,0,1
 814 1501 814 1501 925 1417.5 c 128,-1,2
 1036 1334 1036 1334 1098 1163 c 0,3,4
 1163 980 1163 980 1163 729 c 0,5,6
 1163 565 1163 565 1136 435.5 c 128,-1,7
 1109 306 1109 306 1055 209 c 0,8,9
 926 -25 926 -25 659 -25 c 2,10,-1
 657 -25 l 2,11,12
 391 -25 391 -25 262 209 c 0,13,14
 154 403 154 403 154 729 c 0,15,16
 154 856 154 856 169.5 964 c 128,-1,17
 185 1072 185 1072 219 1163 c 0,18,19
 339 1501 339 1501 655 1501 c 1,20,-1
 655 1501 l 1,0,1
662 1331 m 1,21,22
 621 1331 621 1331 582 1319.5 c 128,-1,23
 543 1308 543 1308 509.5 1286 c 128,-1,24
 476 1264 476 1264 449 1232.5 c 128,-1,25
 422 1201 422 1201 406 1161 c 256,26,27
 390 1121 390 1121 379.5 1087 c 128,-1,28
 369 1053 369 1053 363.5 1013 c 128,-1,29
 358 973 358 973 356 921.5 c 128,-1,30
 354 870 354 870 354 795 c 0,31,32
 354 680 354 680 378 582.5 c 128,-1,33
 402 485 402 485 436 420 c 0,34,35
 451 391 451 391 470.5 366 c 128,-1,36
 490 341 490 341 516 323 c 128,-1,37
 542 305 542 305 576.5 295 c 128,-1,38
 611 285 611 285 655 285 c 2,39,-1
 659 285 l 2,40,41
 704 285 704 285 739 295 c 128,-1,42
 774 305 774 305 800 323 c 128,-1,43
 826 341 826 341 846 366 c 128,-1,44
 866 391 866 391 881 420 c 0,45,46
 915 485 915 485 939 582.5 c 128,-1,47
 963 680 963 680 963 795 c 0,48,49
 963 870 963 870 961 921.5 c 128,-1,50
 959 973 959 973 953 1013 c 128,-1,51
 947 1053 947 1053 936.5 1087 c 128,-1,52
 926 1121 926 1121 909 1161 c 0,53,54
 893 1201 893 1201 866.5 1232.5 c 128,-1,55
 840 1264 840 1264 806.5 1286 c 128,-1,56
 773 1308 773 1308 734 1319.5 c 128,-1,57
 695 1331 695 1331 653 1331 c 1,58,-1
 662 1331 l 1,21,22
EndSplineSet
EndChar

StartChar: one
Encoding: 49 49 65
Width: 1350
Flags: W
LayerCount: 2
Fore
SplineSet
294 1118 m 1,0,-1
 294 1272 l 1,1,2
 396 1281 396 1281 469 1298 c 128,-1,3
 542 1315 542 1315 582 1335 c 0,4,5
 603 1347 603 1347 619 1357 c 128,-1,6
 635 1367 635 1367 648 1381 c 128,-1,7
 661 1395 661 1395 672 1417 c 128,-1,8
 683 1439 683 1439 693 1475 c 1,9,-1
 838 1475 l 1,10,-1
 898 0 l 1,11,-1
 578 0 l 1,12,-1
 640 1118 l 1,13,-1
 294 1118 l 1,0,-1
EndSplineSet
EndChar

StartChar: two
Encoding: 50 50 66
Width: 1350
Flags: W
LayerCount: 2
Fore
SplineSet
225 348 m 0,0,1
 243 383 243 383 272 420.5 c 128,-1,2
 301 458 301 458 339 494.5 c 128,-1,3
 377 531 377 531 422 565.5 c 128,-1,4
 467 600 467 600 516 629 c 2,5,-1
 714 741 l 2,6,7
 780 780 780 780 826.5 813.5 c 128,-1,8
 873 847 873 847 901 874 c 0,9,10
 942 918 942 918 956 962 c 128,-1,11
 970 1006 970 1006 970 1061 c 0,12,13
 970 1093 970 1093 968.5 1118 c 128,-1,14
 967 1143 967 1143 961.5 1164 c 128,-1,15
 956 1185 956 1185 945 1203.5 c 128,-1,16
 934 1222 934 1222 915 1241 c 0,17,18
 877 1278 877 1278 820 1300.5 c 128,-1,19
 763 1323 763 1323 698 1323 c 0,20,21
 615 1323 615 1323 567.5 1302.5 c 128,-1,22
 520 1282 520 1282 491 1251 c 0,23,24
 473 1234 473 1234 456.5 1201.5 c 128,-1,25
 440 1169 440 1169 434 1130 c 1,26,-1
 245 1130 l 1,27,28
 246 1155 246 1155 250 1180 c 0,29,30
 253 1203 253 1203 260 1229 c 128,-1,31
 267 1255 267 1255 278 1280 c 0,32,33
 299 1326 299 1326 331.5 1366.5 c 128,-1,34
 364 1407 364 1407 414 1437 c 128,-1,35
 464 1467 464 1467 534.5 1484 c 128,-1,36
 605 1501 605 1501 702 1501 c 0,37,38
 830 1501 830 1501 922 1464 c 128,-1,39
 1014 1427 1014 1427 1073 1358 c 0,40,41
 1132 1290 1132 1290 1160.5 1205.5 c 128,-1,42
 1189 1121 1189 1121 1189 1036 c 0,43,44
 1189 948 1189 948 1159.5 880 c 128,-1,45
 1130 812 1130 812 1065 752 c 0,46,47
 1033 721 1033 721 1003.5 696 c 128,-1,48
 974 671 974 671 945.5 648.5 c 128,-1,49
 917 626 917 626 888 604.5 c 128,-1,50
 859 583 859 583 827 559 c 0,51,52
 775 521 775 521 730 487 c 0,53,54
 711 473 711 473 691.5 458.5 c 128,-1,55
 672 444 672 444 655 430.5 c 128,-1,56
 638 417 638 417 625 406.5 c 128,-1,57
 612 396 612 396 604 389 c 0,58,59
 578 367 578 367 565.5 344 c 128,-1,60
 553 321 553 321 548 301 c 0,61,62
 542 279 542 279 544 258 c 1,63,-1
 1181 258 l 1,64,-1
 1181 0 l 1,65,-1
 172 0 l 1,66,67
 174 48 174 48 176.5 95 c 128,-1,68
 179 142 179 142 184 186.5 c 128,-1,69
 189 231 189 231 198.5 272 c 128,-1,70
 208 313 208 313 225 348 c 0,0,1
EndSplineSet
EndChar

StartChar: three
Encoding: 51 51 67
Width: 1350
Flags: W
LayerCount: 2
Fore
SplineSet
254 121 m 0,0,1
 231 148 231 148 213.5 175.5 c 128,-1,2
 196 203 196 203 184 235 c 128,-1,3
 172 267 172 267 164.5 305.5 c 128,-1,4
 157 344 157 344 154 393 c 1,5,-1
 403 393 l 1,6,7
 407 387 407 387 412 379 c 256,8,9
 417 371 417 371 424 360 c 128,-1,10
 431 349 431 349 442 332 c 0,11,12
 458 309 458 309 503.5 296 c 128,-1,13
 549 283 549 283 643 283 c 0,14,15
 679 283 679 283 713 283.5 c 128,-1,16
 747 284 747 284 777 288 c 128,-1,17
 807 292 807 292 831 301 c 128,-1,18
 855 310 855 310 870 326 c 0,19,20
 890 347 890 347 901.5 367.5 c 128,-1,21
 913 388 913 388 919 410 c 128,-1,22
 925 432 925 432 926.5 457.5 c 128,-1,23
 928 483 928 483 928 514 c 0,24,25
 928 552 928 552 924.5 576.5 c 128,-1,26
 921 601 921 601 912 618 c 128,-1,27
 903 635 903 635 887.5 648 c 128,-1,28
 872 661 872 661 848 676 c 0,29,30
 825 691 825 691 801 701.5 c 128,-1,31
 777 712 777 712 749.5 718 c 128,-1,32
 722 724 722 724 689 726.5 c 128,-1,33
 656 729 656 729 614 729 c 2,34,-1
 578 729 l 2,35,36
 568 729 568 729 558 728 c 128,-1,37
 548 727 548 727 539 727 c 1,38,-1
 539 893 l 1,39,40
 554 891 554 891 565.5 890 c 128,-1,41
 577 889 577 889 588 889 c 2,42,-1
 629 889 l 2,43,44
 681 889 681 889 724 897 c 128,-1,45
 767 905 767 905 801 922 c 0,46,47
 830 937 830 937 852 953.5 c 128,-1,48
 874 970 874 970 888.5 991 c 128,-1,49
 903 1012 903 1012 910.5 1039.5 c 128,-1,50
 918 1067 918 1067 918 1104 c 0,51,52
 918 1160 918 1160 906 1203.5 c 128,-1,53
 894 1247 894 1247 856 1276 c 0,54,55
 836 1291 836 1291 810 1302 c 128,-1,56
 784 1313 784 1313 755.5 1320 c 128,-1,57
 727 1327 727 1327 698 1330 c 128,-1,58
 669 1333 669 1333 643 1333 c 0,59,60
 597 1333 597 1333 563.5 1324 c 128,-1,61
 530 1315 530 1315 506 1301 c 128,-1,62
 482 1287 482 1287 467.5 1271 c 128,-1,63
 453 1255 453 1255 444 1241 c 256,64,65
 435 1227 435 1227 431.5 1210 c 128,-1,66
 428 1193 428 1193 426 1178 c 0,67,68
 425 1162 425 1162 426 1145 c 1,69,-1
 211 1145 l 1,70,71
 212 1175 212 1175 215 1203 c 0,72,73
 218 1227 218 1227 224 1253.5 c 128,-1,74
 230 1280 230 1280 240 1298 c 0,75,76
 294 1399 294 1399 393.5 1451 c 128,-1,77
 493 1503 493 1503 637 1503 c 0,78,79
 751 1503 751 1503 837 1479.5 c 128,-1,80
 923 1456 923 1456 985 1405 c 0,81,82
 1110 1304 1110 1304 1110 1112 c 0,83,84
 1110 1078 1110 1078 1105.5 1050.5 c 128,-1,85
 1101 1023 1101 1023 1091.5 1000 c 128,-1,86
 1082 977 1082 977 1068 956 c 128,-1,87
 1054 935 1054 935 1036 913 c 0,88,89
 1013 887 1013 887 984 866 c 128,-1,90
 955 845 955 845 920 831 c 1,91,92
 1035 798 1035 798 1102 707 c 0,93,94
 1134 660 1134 660 1149.5 610 c 128,-1,95
 1165 560 1165 560 1165 494 c 0,96,97
 1165 441 1165 441 1158.5 386 c 128,-1,98
 1152 331 1152 331 1137 280 c 128,-1,99
 1122 229 1122 229 1098 183.5 c 128,-1,100
 1074 138 1074 138 1038 104 c 0,101,102
 969 38 969 38 865 6.5 c 128,-1,103
 761 -25 761 -25 633 -25 c 0,104,105
 502 -25 502 -25 408 12.5 c 128,-1,106
 314 50 314 50 254 121 c 0,0,1
EndSplineSet
EndChar

StartChar: four
Encoding: 52 52 68
Width: 1350
Flags: W
LayerCount: 2
Fore
SplineSet
737 0 m 1,0,-1
 768 254 l 1,1,-1
 154 254 l 1,2,-1
 154 518 l 1,3,-1
 829 1479 l 1,4,-1
 985 1479 l 1,5,-1
 999 498 l 1,6,-1
 1202 498 l 1,7,-1
 1202 254 l 1,8,-1
 1016 254 l 1,9,-1
 1044 0 l 1,10,-1
 737 0 l 1,0,-1
778 498 m 1,11,-1
 834 1243 l 1,12,-1
 356 498 l 1,13,-1
 778 498 l 1,11,-1
EndSplineSet
EndChar

StartChar: five
Encoding: 53 53 69
Width: 1350
Flags: W
LayerCount: 2
Fore
SplineSet
413 377 m 1,0,1
 413 369 413 369 415.5 358.5 c 128,-1,2
 418 348 418 348 425 337.5 c 128,-1,3
 432 327 432 327 444.5 317 c 128,-1,4
 457 307 457 307 477 299 c 0,5,6
 494 293 494 293 509 290 c 128,-1,7
 524 287 524 287 543.5 285.5 c 128,-1,8
 563 284 563 284 591 283.5 c 128,-1,9
 619 283 619 283 661 283 c 256,10,11
 703 283 703 283 737.5 286 c 128,-1,12
 772 289 772 289 800.5 298 c 128,-1,13
 829 307 829 307 853 323.5 c 128,-1,14
 877 340 877 340 897 367 c 256,15,16
 917 394 917 394 928.5 417.5 c 128,-1,17
 940 441 940 441 946 465.5 c 128,-1,18
 952 490 952 490 954 516.5 c 128,-1,19
 956 543 956 543 956 575 c 0,20,21
 956 656 956 656 938 718 c 128,-1,22
 920 780 920 780 872 825 c 0,23,24
 849 847 849 847 825.5 861.5 c 128,-1,25
 802 876 802 876 776.5 885 c 128,-1,26
 751 894 751 894 722.5 897.5 c 128,-1,27
 694 901 694 901 661 901 c 0,28,29
 637 901 637 901 619 900 c 128,-1,30
 601 899 601 899 585 895.5 c 128,-1,31
 569 892 569 892 554 886 c 128,-1,32
 539 880 539 880 522 870 c 0,33,34
 488 852 488 852 456 831.5 c 128,-1,35
 424 811 424 811 405 788 c 1,36,-1
 221 788 l 1,37,-1
 225 1479 l 1,38,-1
 1099 1479 l 1,39,-1
 1099 1307 l 1,40,-1
 411 1307 l 1,41,-1
 409 977 l 1,42,43
 434 999 434 999 458 1013 c 128,-1,44
 482 1027 482 1027 505 1038 c 0,45,46
 590 1073 590 1073 696 1073 c 0,47,48
 899 1073 899 1073 1040 938 c 0,49,50
 1075 905 1075 905 1101.5 864 c 128,-1,51
 1128 823 1128 823 1145.5 776.5 c 128,-1,52
 1163 730 1163 730 1172 679.5 c 128,-1,53
 1181 629 1181 629 1181 578 c 0,54,55
 1181 429 1181 429 1151 323.5 c 128,-1,56
 1121 218 1121 218 1056 135 c 0,57,58
 991 54 991 54 887 14.5 c 128,-1,59
 783 -25 783 -25 641 -25 c 0,60,61
 550 -25 550 -25 471 -7 c 128,-1,62
 392 11 392 11 323 63 c 0,63,64
 288 89 288 89 261.5 124.5 c 128,-1,65
 235 160 235 160 217 201.5 c 128,-1,66
 199 243 199 243 188.5 287.5 c 128,-1,67
 178 332 178 332 174 377 c 1,68,-1
 413 377 l 1,0,1
EndSplineSet
EndChar

StartChar: six
Encoding: 54 54 70
Width: 1350
Flags: W
LayerCount: 2
Fore
SplineSet
1022 1391 m 0,0,1
 1034 1382 1034 1382 1049.5 1360 c 128,-1,2
 1065 1338 1065 1338 1079.5 1310.5 c 128,-1,3
 1094 1283 1094 1283 1103.5 1253.5 c 128,-1,4
 1113 1224 1113 1224 1112 1200 c 1,5,-1
 928 1200 l 1,6,7
 923 1222 923 1222 915 1239.5 c 128,-1,8
 907 1257 907 1257 881 1280 c 256,9,10
 855 1303 855 1303 809.5 1319 c 128,-1,11
 764 1335 764 1335 696 1335 c 0,12,13
 648 1334 648 1334 610.5 1328.5 c 128,-1,14
 573 1323 573 1323 542.5 1309 c 128,-1,15
 512 1295 512 1295 486.5 1271.5 c 128,-1,16
 461 1248 461 1248 438 1212 c 256,17,18
 415 1176 415 1176 398.5 1129 c 128,-1,19
 382 1082 382 1082 370.5 1026.5 c 128,-1,20
 359 971 359 971 352.5 909 c 128,-1,21
 346 847 346 847 344 780 c 1,22,23
 408 876 408 876 504 922 c 0,24,25
 549 942 549 942 598 952.5 c 128,-1,26
 647 963 647 963 702 963 c 0,27,28
 889 963 889 963 1026 844 c 256,29,30
 1163 725 1163 725 1163 489 c 0,31,32
 1163 287 1163 287 1032 131 c 0,33,34
 967 54 967 54 874.5 14.5 c 128,-1,35
 782 -25 782 -25 662 -25 c 0,36,37
 556 -25 556 -25 467 15 c 128,-1,38
 378 55 378 55 303 133 c 0,39,40
 154 292 154 292 154 664 c 0,41,42
 154 938 154 938 219 1133 c 0,43,44
 348 1501 348 1501 690 1501 c 0,45,46
 752 1501 752 1501 799.5 1493 c 128,-1,47
 847 1485 847 1485 886 1471 c 128,-1,48
 925 1457 925 1457 957.5 1436.5 c 128,-1,49
 990 1416 990 1416 1022 1391 c 0,0,1
928 362 m 256,50,51
 946 387 946 387 956 404 c 128,-1,52
 966 421 966 421 970 439 c 128,-1,53
 974 457 974 457 974.5 479 c 128,-1,54
 975 501 975 501 975 535 c 0,55,56
 975 591 975 591 960 630.5 c 128,-1,57
 945 670 945 670 918 707 c 0,58,59
 880 755 880 755 817 774 c 128,-1,60
 754 793 754 793 668 793 c 0,61,62
 608 793 608 793 557 777 c 128,-1,63
 506 761 506 761 461 721 c 0,64,65
 439 701 439 701 422.5 681 c 128,-1,66
 406 661 406 661 395 636.5 c 128,-1,67
 384 612 384 612 378.5 582 c 128,-1,68
 373 552 373 552 371 512 c 0,69,70
 370 485 370 485 370.5 464.5 c 128,-1,71
 371 444 371 444 375.5 427 c 128,-1,72
 380 410 380 410 388.5 394.5 c 128,-1,73
 397 379 397 379 410 362 c 0,74,75
 451 313 451 313 513 298 c 128,-1,76
 575 283 575 283 664 283 c 0,77,78
 700 283 700 283 739 286 c 128,-1,79
 778 289 778 289 814 297.5 c 128,-1,80
 850 306 850 306 880 321.5 c 128,-1,81
 910 337 910 337 928 362 c 256,50,51
EndSplineSet
EndChar

StartChar: seven
Encoding: 55 55 71
Width: 1350
Flags: W
LayerCount: 2
Fore
SplineSet
1196 1479 m 1,0,-1
 1196 1270 l 1,1,2
 1174 1253 1174 1253 1153 1235.5 c 128,-1,3
 1132 1218 1132 1218 1109.5 1195.5 c 128,-1,4
 1087 1173 1087 1173 1062 1142.5 c 128,-1,5
 1037 1112 1037 1112 1007 1069 c 0,6,7
 978 1025 978 1025 953 985.5 c 128,-1,8
 928 946 928 946 905.5 906 c 128,-1,9
 883 866 883 866 861 823 c 128,-1,10
 839 780 839 780 815 729 c 0,11,12
 797 692 797 692 782 637 c 128,-1,13
 767 582 767 582 755 525 c 128,-1,14
 743 468 743 468 735 416.5 c 128,-1,15
 727 365 727 365 723 334 c 0,16,17
 716 280 716 280 704.5 199 c 128,-1,18
 693 118 693 118 682 0 c 1,19,-1
 362 0 l 1,20,21
 380 108 380 108 411 220.5 c 128,-1,22
 442 333 442 333 484.5 447 c 128,-1,23
 527 561 527 561 579 673 c 128,-1,24
 631 785 631 785 690 891 c 0,25,26
 725 954 725 954 762.5 1007.5 c 128,-1,27
 800 1061 800 1061 838.5 1110.5 c 128,-1,28
 877 1160 877 1160 916 1207.5 c 128,-1,29
 955 1255 955 1255 993 1307 c 1,30,-1
 172 1307 l 1,31,-1
 172 1479 l 1,32,-1
 1196 1479 l 1,0,-1
EndSplineSet
EndChar

StartChar: eight
Encoding: 56 56 72
Width: 1350
Flags: W
LayerCount: 2
Fore
SplineSet
287 883 m 0,0,1
 205 967 205 967 205 1098 c 0,2,3
 205 1265 205 1265 324 1382 c 0,4,5
 442 1501 442 1501 662 1501 c 0,6,7
 872 1501 872 1501 993 1391 c 0,8,9
 1114 1276 1114 1276 1114 1128 c 0,10,11
 1114 1057 1114 1057 1096.5 1002 c 128,-1,12
 1079 947 1079 947 1044 903 c 0,13,14
 1024 878 1024 878 994 855 c 128,-1,15
 964 832 964 832 922 809 c 1,16,17
 968 787 968 787 1004.5 763 c 128,-1,18
 1041 739 1041 739 1067 711 c 0,19,20
 1165 607 1165 607 1165 442 c 0,21,22
 1165 245 1165 245 1034 111 c 0,23,24
 969 41 969 41 877.5 8 c 128,-1,25
 786 -25 786 -25 666 -25 c 0,26,27
 557 -25 557 -25 467 3.5 c 128,-1,28
 377 32 377 32 303 92 c 0,29,30
 154 208 154 208 154 432 c 0,31,32
 154 498 154 498 169.5 554.5 c 128,-1,33
 185 611 185 611 217 659 c 0,34,35
 281 754 281 754 408 807 c 1,36,37
 369 822 369 822 338.5 841.5 c 128,-1,38
 308 861 308 861 287 883 c 0,0,1
918 365 m 0,39,40
 935 386 935 386 945 400.5 c 128,-1,41
 955 415 955 415 960.5 427.5 c 128,-1,42
 966 440 966 440 967.5 453.5 c 128,-1,43
 969 467 969 467 969 487 c 0,44,45
 969 523 969 523 963.5 548.5 c 128,-1,46
 958 574 958 574 946.5 593.5 c 128,-1,47
 935 613 935 613 918.5 629 c 128,-1,48
 902 645 902 645 881 664 c 0,49,50
 793 739 793 739 657 739 c 0,51,52
 589 739 589 739 535.5 720 c 128,-1,53
 482 701 482 701 440 664 c 0,54,55
 419 645 419 645 403 628 c 128,-1,56
 387 611 387 611 376.5 592.5 c 128,-1,57
 366 574 366 574 360.5 550.5 c 128,-1,58
 355 527 355 527 356 494 c 0,59,60
 356 470 356 470 359 451.5 c 128,-1,61
 362 433 362 433 368 417.5 c 128,-1,62
 374 402 374 402 383.5 387.5 c 128,-1,63
 393 373 393 373 406 358 c 0,64,65
 427 333 427 333 449.5 318 c 128,-1,66
 472 303 472 303 502.5 295.5 c 128,-1,67
 533 288 533 288 573.5 285.5 c 128,-1,68
 614 283 614 283 670 283 c 0,69,70
 756 283 756 283 821.5 303.5 c 128,-1,71
 887 324 887 324 918 365 c 0,39,40
848 973 m 0,72,73
 883 1008 883 1008 900.5 1037.5 c 128,-1,74
 918 1067 918 1067 918 1114 c 0,75,76
 918 1156 918 1156 909 1193.5 c 128,-1,77
 900 1231 900 1231 868 1266 c 0,78,79
 834 1300 834 1300 780 1315.5 c 128,-1,80
 726 1331 726 1331 659 1331 c 0,81,82
 591 1331 591 1331 535.5 1315 c 128,-1,83
 480 1299 480 1299 451 1264 c 0,84,85
 420 1229 420 1229 409.5 1189.5 c 128,-1,86
 399 1150 399 1150 399 1104 c 0,87,88
 399 1078 399 1078 404 1058.5 c 128,-1,89
 409 1039 409 1039 419 1023 c 128,-1,90
 429 1007 429 1007 443.5 993.5 c 128,-1,91
 458 980 458 980 477 965 c 0,92,93
 552 905 552 905 657 905 c 0,94,95
 780 905 780 905 848 973 c 0,72,73
EndSplineSet
EndChar

StartChar: nine
Encoding: 57 57 73
Width: 1350
Flags: W
LayerCount: 2
Fore
SplineSet
423 389 m 1,0,1
 434 366 434 366 441.5 348.5 c 128,-1,2
 449 331 449 331 466 317 c 0,3,4
 479 308 479 308 500.5 301.5 c 128,-1,5
 522 295 522 295 545.5 290.5 c 128,-1,6
 569 286 569 286 592.5 284 c 128,-1,7
 616 282 616 282 634 283 c 0,8,9
 667 284 667 284 701 283 c 128,-1,10
 735 282 735 282 767.5 286.5 c 128,-1,11
 800 291 800 291 829.5 304.5 c 128,-1,12
 859 318 859 318 882 346 c 0,13,14
 906 374 906 374 924 407.5 c 128,-1,15
 942 441 942 441 956 487.5 c 128,-1,16
 970 534 970 534 981 596.5 c 128,-1,17
 992 659 992 659 1001 745 c 1,18,19
 986 720 986 720 970.5 701 c 128,-1,20
 955 682 955 682 938 667.5 c 128,-1,21
 921 653 921 653 902.5 642 c 128,-1,22
 884 631 884 631 861 621 c 0,23,24
 815 601 815 601 760 595.5 c 128,-1,25
 705 590 705 590 652 590 c 256,26,27
 599 590 599 590 548 598.5 c 128,-1,28
 497 607 497 607 452.5 621.5 c 128,-1,29
 408 636 408 636 372.5 656 c 128,-1,30
 337 676 337 676 316 700 c 0,31,32
 255 769 255 769 224.5 851 c 128,-1,33
 194 933 194 933 194 1038 c 0,34,35
 194 1089 194 1089 201.5 1129.5 c 128,-1,36
 209 1170 209 1170 224 1205.5 c 128,-1,37
 239 1241 239 1241 261.5 1275 c 128,-1,38
 284 1309 284 1309 314 1348 c 0,39,40
 437 1501 437 1501 675 1501 c 0,41,42
 996 1501 996 1501 1119 1208 c 0,43,44
 1153 1128 1153 1128 1160.5 1029.5 c 128,-1,45
 1168 931 1168 931 1168 809 c 0,46,47
 1168 673 1168 673 1157.5 552.5 c 128,-1,48
 1147 432 1147 432 1107 326 c 0,49,50
 972 -25 972 -25 650 -25 c 0,51,52
 433 -25 433 -25 323 90 c 0,53,54
 266 147 266 147 239 224.5 c 128,-1,55
 212 302 212 302 212 389 c 1,56,-1
 423 389 l 1,0,1
906 864 m 256,57,58
 929 882 929 882 943.5 905 c 128,-1,59
 958 928 958 928 966 951.5 c 128,-1,60
 974 975 974 975 977 998.5 c 128,-1,61
 980 1022 980 1022 980 1042 c 0,62,63
 980 1083 980 1083 976.5 1112.5 c 128,-1,64
 973 1142 973 1142 964 1165.5 c 128,-1,65
 955 1189 955 1189 941 1208.5 c 128,-1,66
 927 1228 927 1228 906 1249 c 0,67,68
 864 1290 864 1290 804 1310.5 c 128,-1,69
 744 1331 744 1331 681 1331 c 0,70,71
 613 1331 613 1331 551.5 1303 c 128,-1,72
 490 1275 490 1275 450 1229 c 0,73,74
 430 1206 430 1206 417 1183.5 c 128,-1,75
 404 1161 404 1161 396.5 1135.5 c 128,-1,76
 389 1110 389 1110 386.5 1080 c 128,-1,77
 384 1050 384 1050 384 1012 c 0,78,79
 384 996 384 996 384.5 981 c 128,-1,80
 385 966 385 966 389 950 c 128,-1,81
 393 934 393 934 402 917 c 128,-1,82
 411 900 411 900 429 879 c 0,83,84
 464 836 464 836 530 815.5 c 128,-1,85
 596 795 596 795 673 795 c 0,86,87
 701 795 701 795 732 799 c 128,-1,88
 763 803 763 803 794 811 c 128,-1,89
 825 819 825 819 854 832.5 c 128,-1,90
 883 846 883 846 906 864 c 256,57,58
EndSplineSet
EndChar

StartChar: colon
Encoding: 58 58 74
Width: 817
Flags: W
LayerCount: 2
Fore
SplineSet
610 178 m 256,0,1
 610 136 610 136 594 99 c 128,-1,2
 578 62 578 62 551 34.5 c 128,-1,3
 524 7 524 7 487 -9 c 128,-1,4
 450 -25 450 -25 408 -25 c 256,5,6
 366 -25 366 -25 329 -9 c 128,-1,7
 292 7 292 7 264.5 34.5 c 128,-1,8
 237 62 237 62 221 99 c 128,-1,9
 205 136 205 136 205 178 c 256,10,11
 205 220 205 220 221 257 c 128,-1,12
 237 294 237 294 264.5 321.5 c 128,-1,13
 292 349 292 349 329 365 c 128,-1,14
 366 381 366 381 408 381 c 256,15,16
 450 381 450 381 487 365 c 128,-1,17
 524 349 524 349 551 321.5 c 128,-1,18
 578 294 578 294 594 257 c 128,-1,19
 610 220 610 220 610 178 c 256,0,1
610 1028 m 256,20,21
 610 986 610 986 594 949 c 128,-1,22
 578 912 578 912 551 884.5 c 128,-1,23
 524 857 524 857 487 841 c 128,-1,24
 450 825 450 825 408 825 c 256,25,26
 366 825 366 825 329 841 c 128,-1,27
 292 857 292 857 264.5 884.5 c 128,-1,28
 237 912 237 912 221 949 c 128,-1,29
 205 986 205 986 205 1028 c 256,30,31
 205 1070 205 1070 221 1107 c 128,-1,32
 237 1144 237 1144 264.5 1171.5 c 128,-1,33
 292 1199 292 1199 329 1215 c 128,-1,34
 366 1231 366 1231 408 1231 c 256,35,36
 450 1231 450 1231 487 1215 c 128,-1,37
 524 1199 524 1199 551 1171.5 c 128,-1,38
 578 1144 578 1144 594 1107 c 128,-1,39
 610 1070 610 1070 610 1028 c 256,20,21
EndSplineSet
EndChar

StartChar: hyphen
Encoding: 45 45 75
Width: 1544
Flags: W
LayerCount: 2
Fore
SplineSet
1350 483 m 1,0,-1
 215 483 l 1,1,-1
 215 776 l 1,2,-1
 1350 776 l 1,3,-1
 1350 483 l 1,0,-1
EndSplineSet
EndChar

StartChar: semicolon
Encoding: 59 59 76
Width: 817
Flags: W
LayerCount: 2
Fore
SplineSet
610 1012 m 256,0,1
 610 1054 610 1054 594 1091 c 128,-1,2
 578 1128 578 1128 551 1155 c 128,-1,3
 524 1182 524 1182 487 1198 c 128,-1,4
 450 1214 450 1214 408 1214 c 256,5,6
 366 1214 366 1214 329 1198 c 128,-1,7
 292 1182 292 1182 264.5 1155 c 128,-1,8
 237 1128 237 1128 221 1091 c 128,-1,9
 205 1054 205 1054 205 1012 c 256,10,11
 205 970 205 970 221 933 c 128,-1,12
 237 896 237 896 264.5 868.5 c 128,-1,13
 292 841 292 841 329 825 c 128,-1,14
 366 809 366 809 408 809 c 256,15,16
 450 809 450 809 487 825 c 128,-1,17
 524 841 524 841 551 868.5 c 128,-1,18
 578 896 578 896 594 933 c 128,-1,19
 610 970 610 970 610 1012 c 256,0,1
408 365 m 256,20,21
 450 365 450 365 487 349 c 128,-1,22
 524 333 524 333 551 305.5 c 128,-1,23
 578 278 578 278 594 241 c 128,-1,24
 610 204 610 204 610 162 c 0,25,26
 610 40 610 40 605 -41.5 c 128,-1,27
 600 -123 600 -123 589 -177.5 c 128,-1,28
 578 -232 578 -232 561 -266 c 128,-1,29
 544 -300 544 -300 520 -328 c 0,30,31
 495 -358 495 -358 462 -378 c 128,-1,32
 429 -398 429 -398 399 -409 c 0,33,34
 364 -423 364 -423 328 -430 c 1,35,-1
 305 -299 l 1,36,37
 343 -288 343 -288 371 -269.5 c 128,-1,38
 399 -251 399 -251 424 -223 c 0,39,40
 436 -206 436 -206 444.5 -188 c 128,-1,41
 453 -170 453 -170 458 -147.5 c 128,-1,42
 463 -125 463 -125 465 -97 c 128,-1,43
 467 -69 467 -69 467 -31 c 1,44,45
 456 -37 456 -37 438 -39 c 128,-1,46
 420 -41 420 -41 408 -41 c 0,47,48
 366 -41 366 -41 329 -25 c 128,-1,49
 292 -9 292 -9 264.5 18.5 c 128,-1,50
 237 46 237 46 221 83 c 128,-1,51
 205 120 205 120 205 162 c 256,52,53
 205 204 205 204 221 241 c 128,-1,54
 237 278 237 278 264.5 305.5 c 128,-1,55
 292 333 292 333 329 349 c 128,-1,56
 366 365 366 365 408 365 c 256,20,21
EndSplineSet
EndChar

StartChar: quotesingle
Encoding: 39 39 77
Width: 797
Flags: W
LayerCount: 2
Fore
SplineSet
408 1597 m 256,0,1
 450 1597 450 1597 487 1581 c 128,-1,2
 524 1565 524 1565 552 1538 c 128,-1,3
 580 1511 580 1511 596 1474 c 128,-1,4
 612 1437 612 1437 612 1395 c 0,5,6
 612 1273 612 1273 606.5 1191.5 c 128,-1,7
 601 1110 601 1110 590 1055.5 c 128,-1,8
 579 1001 579 1001 562 967 c 128,-1,9
 545 933 545 933 522 905 c 0,10,11
 497 875 497 875 464 855.5 c 128,-1,12
 431 836 431 836 401 824 c 0,13,14
 366 810 366 810 330 803 c 1,15,-1
 305 936 l 1,16,17
 345 945 345 945 373 963.5 c 128,-1,18
 401 982 401 982 424 1010 c 0,19,20
 436 1027 436 1027 444.5 1045 c 128,-1,21
 453 1063 453 1063 458 1085.5 c 128,-1,22
 463 1108 463 1108 465 1136.5 c 128,-1,23
 467 1165 467 1165 467 1202 c 1,24,25
 456 1196 456 1196 439 1194 c 128,-1,26
 422 1192 422 1192 408 1192 c 0,27,28
 366 1192 366 1192 329.5 1208 c 128,-1,29
 293 1224 293 1224 265 1251.5 c 128,-1,30
 237 1279 237 1279 221 1316 c 128,-1,31
 205 1353 205 1353 205 1395 c 256,32,33
 205 1437 205 1437 221 1474 c 128,-1,34
 237 1511 237 1511 265 1538 c 128,-1,35
 293 1565 293 1565 329.5 1581 c 128,-1,36
 366 1597 366 1597 408 1597 c 256,0,1
EndSplineSet
EndChar

StartChar: quotedbl
Encoding: 34 34 78
Width: 1452
Flags: W
LayerCount: 2
Fore
SplineSet
1065 1602 m 256,0,1
 1107 1602 1107 1602 1143.5 1586 c 128,-1,2
 1180 1570 1180 1570 1208 1542.5 c 128,-1,3
 1236 1515 1236 1515 1252 1478 c 128,-1,4
 1268 1441 1268 1441 1268 1399 c 0,5,6
 1268 1277 1268 1277 1262.5 1195.5 c 128,-1,7
 1257 1114 1257 1114 1246 1059.5 c 128,-1,8
 1235 1005 1235 1005 1218 971 c 128,-1,9
 1201 937 1201 937 1178 909 c 0,10,11
 1152 879 1152 879 1119 859.5 c 128,-1,12
 1086 840 1086 840 1056 828 c 0,13,14
 1021 814 1021 814 985 807 c 1,15,-1
 963 938 l 1,16,17
 1001 949 1001 949 1028.5 967.5 c 128,-1,18
 1056 986 1056 986 1079 1014 c 0,19,20
 1092 1031 1092 1031 1100.5 1049 c 128,-1,21
 1109 1067 1109 1067 1114.5 1089.5 c 128,-1,22
 1120 1112 1120 1112 1122 1140.5 c 128,-1,23
 1124 1169 1124 1169 1124 1206 c 1,24,25
 1112 1200 1112 1200 1094.5 1198 c 128,-1,26
 1077 1196 1077 1196 1065 1196 c 0,27,28
 1023 1196 1023 1196 985.5 1212 c 128,-1,29
 948 1228 948 1228 920 1255.5 c 128,-1,30
 892 1283 892 1283 876 1320 c 128,-1,31
 860 1357 860 1357 860 1399 c 256,32,33
 860 1441 860 1441 876 1478 c 128,-1,34
 892 1515 892 1515 920 1542.5 c 128,-1,35
 948 1570 948 1570 985.5 1586 c 128,-1,36
 1023 1602 1023 1602 1065 1602 c 256,0,1
408 1602 m 256,37,38
 450 1602 450 1602 487 1586 c 128,-1,39
 524 1570 524 1570 551 1542.5 c 128,-1,40
 578 1515 578 1515 594 1478 c 128,-1,41
 610 1441 610 1441 610 1399 c 0,42,43
 610 1277 610 1277 605 1195.5 c 128,-1,44
 600 1114 600 1114 589.5 1059.5 c 128,-1,45
 579 1005 579 1005 562 971 c 128,-1,46
 545 937 545 937 522 909 c 0,47,48
 497 879 497 879 464 859.5 c 128,-1,49
 431 840 431 840 401 828 c 0,50,51
 366 814 366 814 330 807 c 1,52,-1
 305 938 l 1,53,54
 343 949 343 949 371 967.5 c 128,-1,55
 399 986 399 986 424 1014 c 0,56,57
 436 1031 436 1031 444.5 1049 c 128,-1,58
 453 1067 453 1067 458 1089.5 c 128,-1,59
 463 1112 463 1112 465 1140.5 c 128,-1,60
 467 1169 467 1169 467 1206 c 1,61,62
 456 1200 456 1200 439 1198 c 128,-1,63
 422 1196 422 1196 408 1196 c 0,64,65
 366 1196 366 1196 329 1212 c 128,-1,66
 292 1228 292 1228 264.5 1255.5 c 128,-1,67
 237 1283 237 1283 221 1320 c 128,-1,68
 205 1357 205 1357 205 1399 c 256,69,70
 205 1441 205 1441 221 1478 c 128,-1,71
 237 1515 237 1515 264.5 1542.5 c 128,-1,72
 292 1570 292 1570 329 1586 c 128,-1,73
 366 1602 366 1602 408 1602 c 256,37,38
EndSplineSet
EndChar

StartChar: edieresis
Encoding: 235 235 79
Width: 1374
Flags: W
LayerCount: 2
Fore
SplineSet
1124 1636 m 256,0,1
 1124 1600 1124 1600 1110.5 1568.5 c 128,-1,2
 1097 1537 1097 1537 1073.5 1513 c 128,-1,3
 1050 1489 1050 1489 1018 1475.5 c 128,-1,4
 986 1462 986 1462 950 1462 c 256,5,6
 914 1462 914 1462 882.5 1475.5 c 128,-1,7
 851 1489 851 1489 827 1513 c 128,-1,8
 803 1537 803 1537 789.5 1568.5 c 128,-1,9
 776 1600 776 1600 776 1636 c 256,10,11
 776 1672 776 1672 789.5 1704 c 128,-1,12
 803 1736 803 1736 827 1759.5 c 128,-1,13
 851 1783 851 1783 882.5 1796.5 c 128,-1,14
 914 1810 914 1810 950 1810 c 256,15,16
 986 1810 986 1810 1018 1796.5 c 128,-1,17
 1050 1783 1050 1783 1073.5 1759.5 c 128,-1,18
 1097 1736 1097 1736 1110.5 1704 c 128,-1,19
 1124 1672 1124 1672 1124 1636 c 256,0,1
621 1636 m 256,20,21
 621 1600 621 1600 607.5 1568.5 c 128,-1,22
 594 1537 594 1537 570 1513 c 128,-1,23
 546 1489 546 1489 514 1475.5 c 128,-1,24
 482 1462 482 1462 446 1462 c 256,25,26
 410 1462 410 1462 378.5 1475.5 c 128,-1,27
 347 1489 347 1489 323 1513 c 128,-1,28
 299 1537 299 1537 285.5 1568.5 c 128,-1,29
 272 1600 272 1600 272 1636 c 256,30,31
 272 1672 272 1672 285.5 1704 c 128,-1,32
 299 1736 299 1736 323 1759.5 c 128,-1,33
 347 1783 347 1783 378.5 1796.5 c 128,-1,34
 410 1810 410 1810 446 1810 c 256,35,36
 482 1810 482 1810 514 1796.5 c 128,-1,37
 546 1783 546 1783 570 1759.5 c 128,-1,38
 594 1736 594 1736 607.5 1704 c 128,-1,39
 621 1672 621 1672 621 1636 c 256,20,21
1249 307 m 1,40,41
 1248 256 1248 256 1232.5 215 c 128,-1,42
 1217 174 1217 174 1194.5 142 c 128,-1,43
 1172 110 1172 110 1145.5 86.5 c 128,-1,44
 1119 63 1119 63 1096 45 c 0,45,46
 1042 5 1042 5 986 -12 c 128,-1,47
 930 -29 930 -29 881 -37 c 0,48,49
 862 -39 862 -39 838.5 -40.5 c 128,-1,50
 815 -42 815 -42 789.5 -42.5 c 128,-1,51
 764 -43 764 -43 738 -43 c 128,-1,52
 712 -43 712 -43 688 -43 c 0,53,54
 556 -43 556 -43 453.5 5 c 128,-1,55
 351 53 351 53 281.5 135.5 c 128,-1,56
 212 218 212 218 175.5 329 c 128,-1,57
 139 440 139 440 139 565 c 0,58,59
 139 712 139 712 183 835 c 128,-1,60
 227 958 227 958 307 1051 c 0,61,62
 386 1144 386 1144 489.5 1198.5 c 128,-1,63
 593 1253 593 1253 721 1253 c 0,64,65
 809 1253 809 1253 870.5 1235.5 c 128,-1,66
 932 1218 932 1218 975 1196 c 0,67,68
 996 1186 996 1186 1021 1169 c 128,-1,69
 1046 1152 1046 1152 1070.5 1130 c 128,-1,70
 1095 1108 1095 1108 1117.5 1081.5 c 128,-1,71
 1140 1055 1140 1055 1155 1026 c 0,72,73
 1181 977 1181 977 1203.5 925 c 128,-1,74
 1226 873 1226 873 1237 811 c 1,75,76
 1244 741 1244 741 1221.5 691.5 c 128,-1,77
 1199 642 1199 642 1154.5 609.5 c 128,-1,78
 1110 577 1110 577 1047.5 561 c 128,-1,79
 985 545 985 545 911 543 c 2,80,-1
 381 514 l 1,81,82
 382 490 382 490 386 463.5 c 128,-1,83
 390 437 390 437 397.5 411 c 128,-1,84
 405 385 405 385 417 361 c 128,-1,85
 429 337 429 337 446 317 c 0,86,87
 465 294 465 294 485.5 276 c 128,-1,88
 506 258 506 258 533.5 245 c 128,-1,89
 561 232 561 232 598.5 225.5 c 128,-1,90
 636 219 636 219 688 219 c 0,91,92
 727 220 727 220 764.5 220.5 c 128,-1,93
 802 221 802 221 834 222.5 c 128,-1,94
 866 224 866 224 890.5 227 c 128,-1,95
 915 230 915 230 930 236 c 0,96,97
 947 242 947 242 964.5 256 c 128,-1,98
 982 270 982 270 987 307 c 1,99,-1
 1249 307 l 1,40,41
471 965 m 0,100,101
 425 914 425 914 399.5 839.5 c 128,-1,102
 374 765 374 765 371 686 c 1,103,-1
 891 713 l 2,104,105
 994 716 994 716 1025 774 c 128,-1,106
 1056 832 1056 832 1008 934 c 0,107,108
 970 1011 970 1011 898 1054.5 c 128,-1,109
 826 1098 826 1098 727 1098 c 0,110,111
 679 1098 679 1098 642 1087 c 128,-1,112
 605 1076 605 1076 575 1057.5 c 128,-1,113
 545 1039 545 1039 520 1015 c 128,-1,114
 495 991 495 991 471 965 c 0,100,101
EndSplineSet
EndChar

StartChar: eacute
Encoding: 233 233 80
Width: 1374
Flags: W
LayerCount: 2
Fore
SplineSet
1130 1722 m 1,0,-1
 745 1364 l 1,1,-1
 582 1530 l 1,2,-1
 940 1913 l 1,3,-1
 1130 1722 l 1,0,-1
1249 307 m 1,4,5
 1248 256 1248 256 1232.5 215 c 128,-1,6
 1217 174 1217 174 1194.5 142 c 128,-1,7
 1172 110 1172 110 1145.5 86.5 c 128,-1,8
 1119 63 1119 63 1096 45 c 0,9,10
 1042 5 1042 5 986 -12 c 128,-1,11
 930 -29 930 -29 881 -37 c 0,12,13
 862 -39 862 -39 838.5 -40.5 c 128,-1,14
 815 -42 815 -42 789.5 -42.5 c 128,-1,15
 764 -43 764 -43 738 -43 c 128,-1,16
 712 -43 712 -43 688 -43 c 0,17,18
 556 -43 556 -43 453.5 5 c 128,-1,19
 351 53 351 53 281.5 135.5 c 128,-1,20
 212 218 212 218 175.5 329 c 128,-1,21
 139 440 139 440 139 565 c 0,22,23
 139 712 139 712 183 835 c 128,-1,24
 227 958 227 958 307 1051 c 0,25,26
 386 1144 386 1144 489.5 1198.5 c 128,-1,27
 593 1253 593 1253 721 1253 c 0,28,29
 809 1253 809 1253 870.5 1235.5 c 128,-1,30
 932 1218 932 1218 975 1196 c 0,31,32
 996 1186 996 1186 1021 1169 c 128,-1,33
 1046 1152 1046 1152 1070.5 1130 c 128,-1,34
 1095 1108 1095 1108 1117.5 1081.5 c 128,-1,35
 1140 1055 1140 1055 1155 1026 c 0,36,37
 1181 977 1181 977 1203.5 925 c 128,-1,38
 1226 873 1226 873 1237 811 c 1,39,40
 1244 741 1244 741 1221.5 691.5 c 128,-1,41
 1199 642 1199 642 1154.5 609.5 c 128,-1,42
 1110 577 1110 577 1047.5 561 c 128,-1,43
 985 545 985 545 911 543 c 2,44,-1
 381 514 l 1,45,46
 382 490 382 490 386 463.5 c 128,-1,47
 390 437 390 437 397.5 411 c 128,-1,48
 405 385 405 385 417 361 c 128,-1,49
 429 337 429 337 446 317 c 0,50,51
 465 294 465 294 485.5 276 c 128,-1,52
 506 258 506 258 533.5 245 c 128,-1,53
 561 232 561 232 598.5 225.5 c 128,-1,54
 636 219 636 219 688 219 c 0,55,56
 727 220 727 220 764.5 220.5 c 128,-1,57
 802 221 802 221 834 222.5 c 128,-1,58
 866 224 866 224 890.5 227 c 128,-1,59
 915 230 915 230 930 236 c 0,60,61
 947 242 947 242 964.5 256 c 128,-1,62
 982 270 982 270 987 307 c 1,63,-1
 1249 307 l 1,4,5
471 965 m 0,64,65
 425 914 425 914 399.5 839.5 c 128,-1,66
 374 765 374 765 371 686 c 1,67,-1
 891 713 l 2,68,69
 994 716 994 716 1025 774 c 128,-1,70
 1056 832 1056 832 1008 934 c 0,71,72
 970 1011 970 1011 898 1054.5 c 128,-1,73
 826 1098 826 1098 727 1098 c 0,74,75
 679 1098 679 1098 642 1087 c 128,-1,76
 605 1076 605 1076 575 1057.5 c 128,-1,77
 545 1039 545 1039 520 1015 c 128,-1,78
 495 991 495 991 471 965 c 0,64,65
EndSplineSet
EndChar

StartChar: egrave
Encoding: 232 232 81
Width: 1374
Flags: W
LayerCount: 2
Fore
SplineSet
514 1913 m 1,0,-1
 883 1522 l 1,1,-1
 717 1356 l 1,2,-1
 324 1722 l 1,3,-1
 514 1913 l 1,0,-1
1249 307 m 1,4,5
 1248 256 1248 256 1232.5 215 c 128,-1,6
 1217 174 1217 174 1194.5 142 c 128,-1,7
 1172 110 1172 110 1145.5 86.5 c 128,-1,8
 1119 63 1119 63 1096 45 c 0,9,10
 1042 5 1042 5 986 -12 c 128,-1,11
 930 -29 930 -29 881 -37 c 0,12,13
 862 -39 862 -39 838.5 -40.5 c 128,-1,14
 815 -42 815 -42 789.5 -42.5 c 128,-1,15
 764 -43 764 -43 738 -43 c 128,-1,16
 712 -43 712 -43 688 -43 c 0,17,18
 556 -43 556 -43 453.5 5 c 128,-1,19
 351 53 351 53 281.5 135.5 c 128,-1,20
 212 218 212 218 175.5 329 c 128,-1,21
 139 440 139 440 139 565 c 0,22,23
 139 712 139 712 183 835 c 128,-1,24
 227 958 227 958 307 1051 c 0,25,26
 386 1144 386 1144 489.5 1198.5 c 128,-1,27
 593 1253 593 1253 721 1253 c 0,28,29
 809 1253 809 1253 870.5 1235.5 c 128,-1,30
 932 1218 932 1218 975 1196 c 0,31,32
 996 1186 996 1186 1021 1169 c 128,-1,33
 1046 1152 1046 1152 1070.5 1130 c 128,-1,34
 1095 1108 1095 1108 1117.5 1081.5 c 128,-1,35
 1140 1055 1140 1055 1155 1026 c 0,36,37
 1181 977 1181 977 1203.5 925 c 128,-1,38
 1226 873 1226 873 1237 811 c 1,39,40
 1244 741 1244 741 1221.5 691.5 c 128,-1,41
 1199 642 1199 642 1154.5 609.5 c 128,-1,42
 1110 577 1110 577 1047.5 561 c 128,-1,43
 985 545 985 545 911 543 c 2,44,-1
 381 514 l 1,45,46
 382 490 382 490 386 463.5 c 128,-1,47
 390 437 390 437 397.5 411 c 128,-1,48
 405 385 405 385 417 361 c 128,-1,49
 429 337 429 337 446 317 c 0,50,51
 465 294 465 294 485.5 276 c 128,-1,52
 506 258 506 258 533.5 245 c 128,-1,53
 561 232 561 232 598.5 225.5 c 128,-1,54
 636 219 636 219 688 219 c 0,55,56
 727 220 727 220 764.5 220.5 c 128,-1,57
 802 221 802 221 834 222.5 c 128,-1,58
 866 224 866 224 890.5 227 c 128,-1,59
 915 230 915 230 930 236 c 0,60,61
 947 242 947 242 964.5 256 c 128,-1,62
 982 270 982 270 987 307 c 1,63,-1
 1249 307 l 1,4,5
471 965 m 0,64,65
 425 914 425 914 399.5 839.5 c 128,-1,66
 374 765 374 765 371 686 c 1,67,-1
 891 713 l 2,68,69
 994 716 994 716 1025 774 c 128,-1,70
 1056 832 1056 832 1008 934 c 0,71,72
 970 1011 970 1011 898 1054.5 c 128,-1,73
 826 1098 826 1098 727 1098 c 0,74,75
 679 1098 679 1098 642 1087 c 128,-1,76
 605 1076 605 1076 575 1057.5 c 128,-1,77
 545 1039 545 1039 520 1015 c 128,-1,78
 495 991 495 991 471 965 c 0,64,65
EndSplineSet
EndChar

StartChar: idieresis
Encoding: 239 239 85
Width: 1141
Flags: W
LayerCount: 2
Fore
SplineSet
995 1636 m 256,0,1
 995 1600 995 1600 981.5 1568.5 c 128,-1,2
 968 1537 968 1537 944.5 1513 c 128,-1,3
 921 1489 921 1489 889 1475.5 c 128,-1,4
 857 1462 857 1462 821 1462 c 256,5,6
 785 1462 785 1462 753.5 1475.5 c 128,-1,7
 722 1489 722 1489 698 1513 c 128,-1,8
 674 1537 674 1537 660.5 1568.5 c 128,-1,9
 647 1600 647 1600 647 1636 c 256,10,11
 647 1672 647 1672 660.5 1704 c 128,-1,12
 674 1736 674 1736 698 1759.5 c 128,-1,13
 722 1783 722 1783 753.5 1796.5 c 128,-1,14
 785 1810 785 1810 821 1810 c 256,15,16
 857 1810 857 1810 889 1796.5 c 128,-1,17
 921 1783 921 1783 944.5 1759.5 c 128,-1,18
 968 1736 968 1736 981.5 1704 c 128,-1,19
 995 1672 995 1672 995 1636 c 256,0,1
492 1636 m 256,20,21
 492 1600 492 1600 478.5 1568.5 c 128,-1,22
 465 1537 465 1537 441 1513 c 128,-1,23
 417 1489 417 1489 385 1475.5 c 128,-1,24
 353 1462 353 1462 317 1462 c 256,25,26
 281 1462 281 1462 249.5 1475.5 c 128,-1,27
 218 1489 218 1489 194 1513 c 128,-1,28
 170 1537 170 1537 156.5 1568.5 c 128,-1,29
 143 1600 143 1600 143 1636 c 256,30,31
 143 1672 143 1672 156.5 1704 c 128,-1,32
 170 1736 170 1736 194 1759.5 c 128,-1,33
 218 1783 218 1783 249.5 1796.5 c 128,-1,34
 281 1810 281 1810 317 1810 c 256,35,36
 353 1810 353 1810 385 1796.5 c 128,-1,37
 417 1783 417 1783 441 1759.5 c 128,-1,38
 465 1736 465 1736 478.5 1704 c 128,-1,39
 492 1672 492 1672 492 1636 c 256,20,21
702 0 m 1,40,-1
 434 0 l 1,41,-1
 461 1214 l 1,42,-1
 676 1214 l 1,43,-1
 702 0 l 1,40,-1
EndSplineSet
EndChar

StartChar: underscore
Encoding: 95 95 86
Width: 1858
Flags: W
LayerCount: 2
Fore
SplineSet
1763 -284 m 1,0,-1
 95 -284 l 1,1,-1
 95 -50 l 1,2,-1
 1763 -50 l 1,3,-1
 1763 -284 l 1,0,-1
EndSplineSet
EndChar

StartChar: exclam
Encoding: 33 33 87
Width: 1227
Flags: W
LayerCount: 2
Fore
SplineSet
817 156 m 256,0,1
 817 198 817 198 801 235 c 128,-1,2
 785 272 785 272 757.5 300 c 128,-1,3
 730 328 730 328 693 344 c 128,-1,4
 656 360 656 360 614 360 c 256,5,6
 572 360 572 360 535 344 c 128,-1,7
 498 328 498 328 471 300 c 128,-1,8
 444 272 444 272 428 235 c 128,-1,9
 412 198 412 198 412 156 c 256,10,11
 412 114 412 114 428 77.5 c 128,-1,12
 444 41 444 41 471 13 c 128,-1,13
 498 -15 498 -15 535 -31 c 128,-1,14
 572 -47 572 -47 614 -47 c 256,15,16
 656 -47 656 -47 693 -31 c 128,-1,17
 730 -15 730 -15 757.5 13 c 128,-1,18
 785 41 785 41 801 77.5 c 128,-1,19
 817 114 817 114 817 156 c 256,0,1
508 1913 m 1,20,-1
 723 1913 l 1,21,-1
 762 580 l 1,22,-1
 467 580 l 1,23,-1
 508 1913 l 1,20,-1
EndSplineSet
EndChar

StartChar: fraction
Encoding: 8260 8260 88
Width: 1208
Flags: W
LayerCount: 2
Fore
SplineSet
438 0 m 1,0,-1
 123 0 l 1,1,-1
 770 1999 l 1,2,-1
 1004 1999 l 1,3,-1
 438 0 l 1,0,-1
EndSplineSet
EndChar

StartChar: backslash
Encoding: 92 92 89
Width: 1208
Flags: W
LayerCount: 2
Fore
SplineSet
205 1999 m 1,0,-1
 440 1999 l 1,1,-1
 1085 0 l 1,2,-1
 770 0 l 1,3,-1
 205 1999 l 1,0,-1
EndSplineSet
EndChar

StartChar: odieresis
Encoding: 246 246 90
Width: 1448
Flags: W
LayerCount: 2
Fore
SplineSet
1155 1636 m 256,0,1
 1155 1600 1155 1600 1141.5 1568.5 c 128,-1,2
 1128 1537 1128 1537 1104 1513 c 128,-1,3
 1080 1489 1080 1489 1048.5 1475.5 c 128,-1,4
 1017 1462 1017 1462 981 1462 c 256,5,6
 945 1462 945 1462 913.5 1475.5 c 128,-1,7
 882 1489 882 1489 858 1513 c 128,-1,8
 834 1537 834 1537 820.5 1568.5 c 128,-1,9
 807 1600 807 1600 807 1636 c 256,10,11
 807 1672 807 1672 820.5 1704 c 128,-1,12
 834 1736 834 1736 858 1759.5 c 128,-1,13
 882 1783 882 1783 913.5 1796.5 c 128,-1,14
 945 1810 945 1810 981 1810 c 256,15,16
 1017 1810 1017 1810 1048.5 1796.5 c 128,-1,17
 1080 1783 1080 1783 1104 1759.5 c 128,-1,18
 1128 1736 1128 1736 1141.5 1704 c 128,-1,19
 1155 1672 1155 1672 1155 1636 c 256,0,1
651 1636 m 256,20,21
 651 1600 651 1600 637.5 1568.5 c 128,-1,22
 624 1537 624 1537 600 1513 c 128,-1,23
 576 1489 576 1489 544.5 1475.5 c 128,-1,24
 513 1462 513 1462 477 1462 c 256,25,26
 441 1462 441 1462 409.5 1475.5 c 128,-1,27
 378 1489 378 1489 354 1513 c 128,-1,28
 330 1537 330 1537 316.5 1568.5 c 128,-1,29
 303 1600 303 1600 303 1636 c 256,30,31
 303 1672 303 1672 316.5 1704 c 128,-1,32
 330 1736 330 1736 354 1759.5 c 128,-1,33
 378 1783 378 1783 409.5 1796.5 c 128,-1,34
 441 1810 441 1810 477 1810 c 256,35,36
 513 1810 513 1810 544.5 1796.5 c 128,-1,37
 576 1783 576 1783 600 1759.5 c 128,-1,38
 624 1736 624 1736 637.5 1704 c 128,-1,39
 651 1672 651 1672 651 1636 c 256,20,21
1145 1073 m 0,40,41
 1183 1028 1183 1028 1215 974.5 c 128,-1,42
 1247 921 1247 921 1270 859.5 c 128,-1,43
 1293 798 1293 798 1306 729.5 c 128,-1,44
 1319 661 1319 661 1319 584 c 0,45,46
 1319 440 1319 440 1273 327 c 128,-1,47
 1227 214 1227 214 1153 127 c 0,48,49
 1006 -43 1006 -43 756 -43 c 2,50,-1
 702 -43 l 2,51,52
 452 -43 452 -43 305 127 c 0,53,54
 231 214 231 214 185 327 c 128,-1,55
 139 440 139 440 139 584 c 0,56,57
 139 661 139 661 152 729.5 c 128,-1,58
 165 798 165 798 188 859.5 c 128,-1,59
 211 921 211 921 243 974.5 c 128,-1,60
 275 1028 275 1028 313 1073 c 0,61,62
 466 1250 466 1250 725 1253 c 2,63,-1
 737 1253 l 2,64,65
 992 1250 992 1250 1145 1073 c 0,40,41
1001 334 m 0,66,67
 1023 367 1023 367 1039 399.5 c 128,-1,68
 1055 432 1055 432 1065.5 467.5 c 128,-1,69
 1076 503 1076 503 1081.5 543.5 c 128,-1,70
 1087 584 1087 584 1087 633 c 0,71,72
 1087 683 1087 683 1080.5 725 c 128,-1,73
 1074 767 1074 767 1062 804.5 c 128,-1,74
 1050 842 1050 842 1032 877 c 128,-1,75
 1014 912 1014 912 991 946 c 0,76,77
 968 981 968 981 942 1009 c 128,-1,78
 916 1037 916 1037 885 1056.5 c 128,-1,79
 854 1076 854 1076 816.5 1087 c 128,-1,80
 779 1098 779 1098 733 1098 c 2,81,-1
 725 1098 l 2,82,83
 679 1098 679 1098 641.5 1086.5 c 128,-1,84
 604 1075 604 1075 573 1054.5 c 128,-1,85
 542 1034 542 1034 516 1006.5 c 128,-1,86
 490 979 490 979 467 946 c 0,87,88
 443 912 443 912 425 878 c 128,-1,89
 407 844 407 844 395 807 c 128,-1,90
 383 770 383 770 377 728 c 128,-1,91
 371 686 371 686 371 635 c 0,92,93
 371 587 371 587 375 546 c 128,-1,94
 379 505 379 505 388 469 c 128,-1,95
 397 433 397 433 412 400 c 128,-1,96
 427 367 427 367 449 334 c 0,97,98
 491 269 491 269 558.5 244 c 128,-1,99
 626 219 626 219 719 219 c 2,100,-1
 731 219 l 2,101,102
 824 219 824 219 891.5 244 c 128,-1,103
 959 269 959 269 1001 334 c 0,66,67
EndSplineSet
EndChar

StartChar: oacute
Encoding: 243 243 94
Width: 1448
Flags: W
LayerCount: 2
Fore
SplineSet
1122 1722 m 1,0,-1
 729 1356 l 1,1,-1
 565 1522 l 1,2,-1
 932 1913 l 1,3,-1
 1122 1722 l 1,0,-1
1145 1073 m 0,4,5
 1183 1028 1183 1028 1215 974.5 c 128,-1,6
 1247 921 1247 921 1270 859.5 c 128,-1,7
 1293 798 1293 798 1306 729.5 c 128,-1,8
 1319 661 1319 661 1319 584 c 0,9,10
 1319 440 1319 440 1273 327 c 128,-1,11
 1227 214 1227 214 1153 127 c 0,12,13
 1006 -43 1006 -43 756 -43 c 2,14,-1
 702 -43 l 2,15,16
 452 -43 452 -43 305 127 c 0,17,18
 231 214 231 214 185 327 c 128,-1,19
 139 440 139 440 139 584 c 0,20,21
 139 661 139 661 152 729.5 c 128,-1,22
 165 798 165 798 188 859.5 c 128,-1,23
 211 921 211 921 243 974.5 c 128,-1,24
 275 1028 275 1028 313 1073 c 0,25,26
 466 1250 466 1250 725 1253 c 2,27,-1
 737 1253 l 2,28,29
 992 1250 992 1250 1145 1073 c 0,4,5
1001 334 m 0,30,31
 1023 367 1023 367 1039 399.5 c 128,-1,32
 1055 432 1055 432 1065.5 467.5 c 128,-1,33
 1076 503 1076 503 1081.5 543.5 c 128,-1,34
 1087 584 1087 584 1087 633 c 0,35,36
 1087 683 1087 683 1080.5 725 c 128,-1,37
 1074 767 1074 767 1062 804.5 c 128,-1,38
 1050 842 1050 842 1032 877 c 128,-1,39
 1014 912 1014 912 991 946 c 0,40,41
 968 981 968 981 942 1009 c 128,-1,42
 916 1037 916 1037 885 1056.5 c 128,-1,43
 854 1076 854 1076 816.5 1087 c 128,-1,44
 779 1098 779 1098 733 1098 c 2,45,-1
 725 1098 l 2,46,47
 679 1098 679 1098 641.5 1086.5 c 128,-1,48
 604 1075 604 1075 573 1054.5 c 128,-1,49
 542 1034 542 1034 516 1006.5 c 128,-1,50
 490 979 490 979 467 946 c 0,51,52
 443 912 443 912 425 878 c 128,-1,53
 407 844 407 844 395 807 c 128,-1,54
 383 770 383 770 377 728 c 128,-1,55
 371 686 371 686 371 635 c 0,56,57
 371 587 371 587 375 546 c 128,-1,58
 379 505 379 505 388 469 c 128,-1,59
 397 433 397 433 412 400 c 128,-1,60
 427 367 427 367 449 334 c 0,61,62
 491 269 491 269 558.5 244 c 128,-1,63
 626 219 626 219 719 219 c 2,64,-1
 731 219 l 2,65,66
 824 219 824 219 891.5 244 c 128,-1,67
 959 269 959 269 1001 334 c 0,30,31
EndSplineSet
EndChar

StartChar: ograve
Encoding: 242 242 95
Width: 1448
Flags: W
LayerCount: 2
Fore
SplineSet
530 1913 m 1,0,-1
 897 1522 l 1,1,-1
 731 1356 l 1,2,-1
 340 1722 l 1,3,-1
 530 1913 l 1,0,-1
1145 1073 m 0,4,5
 1183 1028 1183 1028 1215 974.5 c 128,-1,6
 1247 921 1247 921 1270 859.5 c 128,-1,7
 1293 798 1293 798 1306 729.5 c 128,-1,8
 1319 661 1319 661 1319 584 c 0,9,10
 1319 440 1319 440 1273 327 c 128,-1,11
 1227 214 1227 214 1153 127 c 0,12,13
 1006 -43 1006 -43 756 -43 c 2,14,-1
 702 -43 l 2,15,16
 452 -43 452 -43 305 127 c 0,17,18
 231 214 231 214 185 327 c 128,-1,19
 139 440 139 440 139 584 c 0,20,21
 139 661 139 661 152 729.5 c 128,-1,22
 165 798 165 798 188 859.5 c 128,-1,23
 211 921 211 921 243 974.5 c 128,-1,24
 275 1028 275 1028 313 1073 c 0,25,26
 466 1250 466 1250 725 1253 c 2,27,-1
 737 1253 l 2,28,29
 992 1250 992 1250 1145 1073 c 0,4,5
1001 334 m 0,30,31
 1023 367 1023 367 1039 399.5 c 128,-1,32
 1055 432 1055 432 1065.5 467.5 c 128,-1,33
 1076 503 1076 503 1081.5 543.5 c 128,-1,34
 1087 584 1087 584 1087 633 c 0,35,36
 1087 683 1087 683 1080.5 725 c 128,-1,37
 1074 767 1074 767 1062 804.5 c 128,-1,38
 1050 842 1050 842 1032 877 c 128,-1,39
 1014 912 1014 912 991 946 c 0,40,41
 968 981 968 981 942 1009 c 128,-1,42
 916 1037 916 1037 885 1056.5 c 128,-1,43
 854 1076 854 1076 816.5 1087 c 128,-1,44
 779 1098 779 1098 733 1098 c 2,45,-1
 725 1098 l 2,46,47
 679 1098 679 1098 641.5 1086.5 c 128,-1,48
 604 1075 604 1075 573 1054.5 c 128,-1,49
 542 1034 542 1034 516 1006.5 c 128,-1,50
 490 979 490 979 467 946 c 0,51,52
 443 912 443 912 425 878 c 128,-1,53
 407 844 407 844 395 807 c 128,-1,54
 383 770 383 770 377 728 c 128,-1,55
 371 686 371 686 371 635 c 0,56,57
 371 587 371 587 375 546 c 128,-1,58
 379 505 379 505 388 469 c 128,-1,59
 397 433 397 433 412 400 c 128,-1,60
 427 367 427 367 449 334 c 0,61,62
 491 269 491 269 558.5 244 c 128,-1,63
 626 219 626 219 719 219 c 2,64,-1
 731 219 l 2,65,66
 824 219 824 219 891.5 244 c 128,-1,67
 959 269 959 269 1001 334 c 0,30,31
EndSplineSet
EndChar

StartChar: igrave
Encoding: 236 236 96
Width: 1141
Flags: W
LayerCount: 2
Fore
SplineSet
333 1914 m 1,0,-1
 691 1533 l 1,1,-1
 527 1369 l 1,2,-1
 142 1727 l 1,3,-1
 333 1914 l 1,0,-1
702 0 m 1,4,-1
 434 0 l 1,5,-1
 461 1214 l 1,6,-1
 676 1214 l 1,7,-1
 702 0 l 1,4,-1
EndSplineSet
EndChar

StartChar: iacute
Encoding: 237 237 97
Width: 844
Flags: W
LayerCount: 2
Fore
SplineSet
508 -2 m 1,0,-1
 240 -2 l 1,1,-1
 266 1212 l 1,2,-1
 481 1212 l 1,3,-1
 508 -2 l 1,0,-1
573 1913 m 1,4,-1
 205 1522 l 1,5,-1
 371 1356 l 1,6,-1
 764 1722 l 1,7,-1
 573 1913 l 1,4,-1
EndSplineSet
EndChar

StartChar: minus
Encoding: 8722 8722 98
Width: 1350
Flags: W
LayerCount: 2
Fore
SplineSet
1239 410 m 1,0,-1
 105 410 l 1,1,-1
 105 702 l 1,2,-1
 1239 702 l 1,3,-1
 1239 410 l 1,0,-1
EndSplineSet
EndChar

StartChar: quotedblright
Encoding: 8221 8221 99
Width: 1526
Flags: W
LayerCount: 2
Fore
SplineSet
1014 1563 m 0,0,1
 1055 1563 1055 1563 1092 1547 c 128,-1,2
 1129 1531 1129 1531 1157 1503.5 c 128,-1,3
 1185 1476 1185 1476 1201 1439 c 128,-1,4
 1217 1402 1217 1402 1217 1360 c 0,5,6
 1217 1238 1217 1238 1211.5 1156.5 c 128,-1,7
 1206 1075 1206 1075 1195 1020.5 c 128,-1,8
 1184 966 1184 966 1166.5 932 c 128,-1,9
 1149 898 1149 898 1126 870 c 0,10,11
 1101 841 1101 841 1068 821 c 128,-1,12
 1035 801 1035 801 1005 789 c 0,13,14
 970 776 970 776 934 768 c 1,15,-1
 911 899 l 1,16,17
 950 910 950 910 977.5 928.5 c 128,-1,18
 1005 947 1005 947 1028 975 c 0,19,20
 1041 992 1041 992 1049.5 1010 c 128,-1,21
 1058 1028 1058 1028 1063.5 1050.5 c 128,-1,22
 1069 1073 1069 1073 1071 1101.5 c 128,-1,23
 1073 1130 1073 1130 1073 1167 c 1,24,25
 1061 1161 1061 1161 1043.5 1159 c 128,-1,26
 1026 1157 1026 1157 1014 1157 c 0,27,28
 972 1157 972 1157 934.5 1173 c 128,-1,29
 897 1189 897 1189 869 1216.5 c 128,-1,30
 841 1244 841 1244 825 1281 c 128,-1,31
 809 1318 809 1318 809 1360 c 256,32,33
 809 1402 809 1402 825 1439 c 128,-1,34
 841 1476 841 1476 869 1503.5 c 128,-1,35
 897 1531 897 1531 934.5 1547 c 128,-1,36
 972 1563 972 1563 1014 1563 c 0,0,1
356 1563 m 256,37,38
 398 1563 398 1563 435 1547 c 128,-1,39
 472 1531 472 1531 499.5 1503.5 c 128,-1,40
 527 1476 527 1476 543 1439 c 128,-1,41
 559 1402 559 1402 559 1360 c 0,42,43
 559 1238 559 1238 554 1156.5 c 128,-1,44
 549 1075 549 1075 538 1020.5 c 128,-1,45
 527 966 527 966 510.5 932 c 128,-1,46
 494 898 494 898 471 870 c 0,47,48
 445 841 445 841 412 821 c 128,-1,49
 379 801 379 801 350 789 c 0,50,51
 315 776 315 776 279 768 c 1,52,-1
 254 899 l 1,53,54
 292 910 292 910 320 928.5 c 128,-1,55
 348 947 348 947 373 975 c 0,56,57
 385 992 385 992 393.5 1010 c 128,-1,58
 402 1028 402 1028 407 1050.5 c 128,-1,59
 412 1073 412 1073 414 1101.5 c 128,-1,60
 416 1130 416 1130 416 1167 c 1,61,62
 405 1161 405 1161 387.5 1159 c 128,-1,63
 370 1157 370 1157 356 1157 c 0,64,65
 314 1157 314 1157 277 1173 c 128,-1,66
 240 1189 240 1189 213 1216.5 c 128,-1,67
 186 1244 186 1244 170 1281 c 128,-1,68
 154 1318 154 1318 154 1360 c 256,69,70
 154 1402 154 1402 170 1439 c 128,-1,71
 186 1476 186 1476 213 1503.5 c 128,-1,72
 240 1531 240 1531 277 1547 c 128,-1,73
 314 1563 314 1563 356 1563 c 256,37,38
EndSplineSet
EndChar

StartChar: quotedblbase
Encoding: 8222 8222 100
Width: 1468
Flags: W
LayerCount: 2
Fore
SplineSet
1065 365 m 256,0,1
 1107 365 1107 365 1143.5 349 c 128,-1,2
 1180 333 1180 333 1208 305.5 c 128,-1,3
 1236 278 1236 278 1252 241 c 128,-1,4
 1268 204 1268 204 1268 162 c 0,5,6
 1268 40 1268 40 1262.5 -41.5 c 128,-1,7
 1257 -123 1257 -123 1246 -177.5 c 128,-1,8
 1235 -232 1235 -232 1218 -266 c 128,-1,9
 1201 -300 1201 -300 1178 -328 c 0,10,11
 1152 -358 1152 -358 1119 -378 c 128,-1,12
 1086 -398 1086 -398 1056 -409 c 0,13,14
 1021 -423 1021 -423 985 -430 c 1,15,-1
 963 -299 l 1,16,17
 1001 -288 1001 -288 1028.5 -269.5 c 128,-1,18
 1056 -251 1056 -251 1079 -223 c 0,19,20
 1092 -206 1092 -206 1100.5 -188 c 128,-1,21
 1109 -170 1109 -170 1114.5 -147.5 c 128,-1,22
 1120 -125 1120 -125 1122 -97 c 128,-1,23
 1124 -69 1124 -69 1124 -31 c 1,24,25
 1112 -37 1112 -37 1094.5 -39 c 128,-1,26
 1077 -41 1077 -41 1065 -41 c 0,27,28
 1023 -41 1023 -41 985.5 -25 c 128,-1,29
 948 -9 948 -9 920 18.5 c 128,-1,30
 892 46 892 46 876 83 c 128,-1,31
 860 120 860 120 860 162 c 256,32,33
 860 204 860 204 876 241 c 128,-1,34
 892 278 892 278 920 305.5 c 128,-1,35
 948 333 948 333 985.5 349 c 128,-1,36
 1023 365 1023 365 1065 365 c 256,0,1
408 365 m 256,37,38
 450 365 450 365 487 349 c 128,-1,39
 524 333 524 333 551 305.5 c 128,-1,40
 578 278 578 278 594 241 c 128,-1,41
 610 204 610 204 610 162 c 0,42,43
 610 40 610 40 605 -41.5 c 128,-1,44
 600 -123 600 -123 589.5 -177.5 c 128,-1,45
 579 -232 579 -232 562 -266 c 128,-1,46
 545 -300 545 -300 522 -328 c 0,47,48
 497 -358 497 -358 464 -378 c 128,-1,49
 431 -398 431 -398 401 -409 c 0,50,51
 366 -423 366 -423 330 -430 c 1,52,-1
 305 -299 l 1,53,54
 343 -288 343 -288 371 -269.5 c 128,-1,55
 399 -251 399 -251 424 -223 c 0,56,57
 436 -206 436 -206 444.5 -188 c 128,-1,58
 453 -170 453 -170 458 -147.5 c 128,-1,59
 463 -125 463 -125 465 -97 c 128,-1,60
 467 -69 467 -69 467 -31 c 1,61,62
 456 -37 456 -37 439 -39 c 128,-1,63
 422 -41 422 -41 408 -41 c 0,64,65
 366 -41 366 -41 329 -25 c 128,-1,66
 292 -9 292 -9 264.5 18.5 c 128,-1,67
 237 46 237 46 221 83 c 128,-1,68
 205 120 205 120 205 162 c 256,69,70
 205 204 205 204 221 241 c 128,-1,71
 237 278 237 278 264.5 305.5 c 128,-1,72
 292 333 292 333 329 349 c 128,-1,73
 366 365 366 365 408 365 c 256,37,38
EndSplineSet
EndChar

StartChar: quotedblleft
Encoding: 8220 8220 101
Width: 1522
Flags: W
LayerCount: 2
Fore
SplineSet
356 807 m 256,0,1
 314 807 314 807 277 823 c 128,-1,2
 240 839 240 839 213 866.5 c 128,-1,3
 186 894 186 894 170 931 c 128,-1,4
 154 968 154 968 154 1010 c 0,5,6
 154 1132 154 1132 159 1213 c 128,-1,7
 164 1294 164 1294 174.5 1348.5 c 128,-1,8
 185 1403 185 1403 202 1437 c 128,-1,9
 219 1471 219 1471 242 1499 c 0,10,11
 268 1529 268 1529 301 1549 c 128,-1,12
 334 1569 334 1569 363 1581 c 0,13,14
 398 1594 398 1594 434 1602 c 1,15,-1
 459 1468 l 1,16,17
 421 1459 421 1459 393 1441 c 128,-1,18
 365 1423 365 1423 340 1395 c 0,19,20
 328 1378 328 1378 319.5 1360 c 128,-1,21
 311 1342 311 1342 306 1319.5 c 128,-1,22
 301 1297 301 1297 299 1268.5 c 128,-1,23
 297 1240 297 1240 297 1202 c 1,24,25
 308 1208 308 1208 325 1210 c 128,-1,26
 342 1212 342 1212 356 1212 c 0,27,28
 398 1212 398 1212 435 1196 c 128,-1,29
 472 1180 472 1180 499.5 1153 c 128,-1,30
 527 1126 527 1126 543 1089 c 128,-1,31
 559 1052 559 1052 559 1010 c 256,32,33
 559 968 559 968 543 931 c 128,-1,34
 527 894 527 894 499.5 866.5 c 128,-1,35
 472 839 472 839 435 823 c 128,-1,36
 398 807 398 807 356 807 c 256,0,1
1012 807 m 256,37,38
 970 807 970 807 933 823 c 128,-1,39
 896 839 896 839 868.5 866.5 c 128,-1,40
 841 894 841 894 825 931 c 128,-1,41
 809 968 809 968 809 1010 c 0,42,43
 809 1132 809 1132 814.5 1213 c 128,-1,44
 820 1294 820 1294 831 1348.5 c 128,-1,45
 842 1403 842 1403 859 1437 c 128,-1,46
 876 1471 876 1471 899 1499 c 0,47,48
 925 1529 925 1529 958 1549 c 128,-1,49
 991 1569 991 1569 1021 1581 c 0,50,51
 1056 1594 1056 1594 1092 1602 c 1,52,-1
 1114 1468 l 1,53,54
 1076 1459 1076 1459 1048 1441 c 128,-1,55
 1020 1423 1020 1423 997 1395 c 0,56,57
 984 1378 984 1378 975.5 1360 c 128,-1,58
 967 1342 967 1342 962 1319.5 c 128,-1,59
 957 1297 957 1297 954.5 1268.5 c 128,-1,60
 952 1240 952 1240 952 1202 c 1,61,62
 965 1208 965 1208 982 1210 c 128,-1,63
 999 1212 999 1212 1012 1212 c 0,64,65
 1054 1212 1054 1212 1091 1196 c 128,-1,66
 1128 1180 1128 1180 1155 1153 c 128,-1,67
 1182 1126 1182 1126 1198 1089 c 128,-1,68
 1214 1052 1214 1052 1214 1010 c 256,69,70
 1214 968 1214 968 1198 931 c 128,-1,71
 1182 894 1182 894 1155 866.5 c 128,-1,72
 1128 839 1128 839 1091 823 c 128,-1,73
 1054 807 1054 807 1012 807 c 256,37,38
EndSplineSet
EndChar

StartChar: Euro
Encoding: 8364 8364 102
Width: 2404
Flags: W
LayerCount: 2
Fore
SplineSet
2159 485 m 1,0,1
 2159 401 2159 401 2137 335.5 c 128,-1,2
 2115 270 2115 270 2081.5 220 c 128,-1,3
 2048 170 2048 170 2007.5 134 c 128,-1,4
 1967 98 1967 98 1931 74 c 0,5,6
 1876 36 1876 36 1811.5 13 c 128,-1,7
 1747 -10 1747 -10 1676 -22.5 c 128,-1,8
 1605 -35 1605 -35 1528.5 -39 c 128,-1,9
 1452 -43 1452 -43 1372 -43 c 0,10,11
 1189 -43 1189 -43 1038 21.5 c 128,-1,12
 887 86 887 86 778 219 c 0,13,14
 698 316 698 316 644 440 c 128,-1,15
 590 564 590 564 567 705 c 1,16,-1
 225 705 l 1,17,-1
 225 920 l 1,18,-1
 551 920 l 1,19,20
 551 1026 551 1026 563 1120 c 1,21,-1
 225 1120 l 1,22,-1
 225 1303 l 1,23,-1
 602 1303 l 1,24,25
 660 1501 660 1501 786 1642 c 0,26,27
 845 1710 845 1710 916.5 1761 c 128,-1,28
 988 1812 988 1812 1068.5 1845.5 c 128,-1,29
 1149 1879 1149 1879 1237 1896 c 128,-1,30
 1325 1913 1325 1913 1415 1913 c 0,31,32
 1571 1913 1571 1913 1697.5 1876 c 128,-1,33
 1824 1839 1824 1839 1921 1763 c 0,34,35
 2055 1658 2055 1658 2116 1454 c 1,36,-1
 1798 1454 l 1,37,38
 1792 1492 1792 1492 1772 1524 c 128,-1,39
 1752 1556 1752 1556 1731 1579 c 0,40,41
 1677 1638 1677 1638 1601 1662 c 128,-1,42
 1525 1686 1525 1686 1417 1686 c 0,43,44
 1344 1686 1344 1686 1273 1663 c 128,-1,45
 1202 1640 1202 1640 1140.5 1598 c 128,-1,46
 1079 1556 1079 1556 1029.5 1497 c 128,-1,47
 980 1438 980 1438 948 1366 c 0,48,49
 940 1349 940 1349 934 1333.5 c 128,-1,50
 928 1318 928 1318 922 1303 c 1,51,-1
 1569 1303 l 1,52,-1
 1569 1120 l 1,53,-1
 874 1120 l 1,54,55
 868 1068 868 1068 868 993 c 0,56,57
 868 975 868 975 869 956.5 c 128,-1,58
 870 938 870 938 872 920 c 1,59,-1
 1569 920 l 1,60,-1
 1569 705 l 1,61,-1
 915 705 l 1,62,63
 932 652 932 652 950.5 610.5 c 128,-1,64
 969 569 969 569 983 543 c 0,65,66
 991 529 991 529 1003 505 c 128,-1,67
 1015 481 1015 481 1034.5 453.5 c 128,-1,68
 1054 426 1054 426 1083 398 c 128,-1,69
 1112 370 1112 370 1155 347.5 c 128,-1,70
 1198 325 1198 325 1257 311 c 128,-1,71
 1316 297 1316 297 1395 297 c 0,72,73
 1443 297 1443 297 1489.5 301 c 128,-1,74
 1536 305 1536 305 1575 311.5 c 128,-1,75
 1614 318 1614 318 1643.5 327.5 c 128,-1,76
 1673 337 1673 337 1688 348 c 0,77,78
 1720 370 1720 370 1739 406 c 128,-1,79
 1758 442 1758 442 1763 485 c 1,80,-1
 2159 485 l 1,0,1
EndSplineSet
EndChar

StartChar: ampersand
Encoding: 38 38 103
Width: 1909
Flags: W
LayerCount: 2
Fore
SplineSet
471 1335 m 0,0,1
 451 1383 451 1383 443.5 1429 c 128,-1,2
 436 1475 436 1475 436 1520 c 0,3,4
 436 1566 436 1566 441 1602.5 c 128,-1,5
 446 1639 446 1639 459 1671 c 128,-1,6
 472 1703 472 1703 493 1732 c 128,-1,7
 514 1761 514 1761 545 1792 c 0,8,9
 669 1913 669 1913 879 1913 c 0,10,11
 979 1913 979 1913 1057.5 1886 c 128,-1,12
 1136 1859 1136 1859 1190 1800 c 0,13,14
 1212 1775 1212 1775 1229.5 1749.5 c 128,-1,15
 1247 1724 1247 1724 1259 1696 c 128,-1,16
 1271 1668 1271 1668 1277.5 1636 c 128,-1,17
 1284 1604 1284 1604 1284 1565 c 0,18,19
 1284 1519 1284 1519 1280 1479 c 128,-1,20
 1276 1439 1276 1439 1265.5 1402 c 128,-1,21
 1255 1365 1255 1365 1236 1331 c 128,-1,22
 1217 1297 1217 1297 1188 1262 c 0,23,24
 1156 1221 1156 1221 1097.5 1165 c 128,-1,25
 1039 1109 1039 1109 961 1057 c 1,26,-1
 1245 680 l 1,27,28
 1255 695 1255 695 1261.5 707 c 128,-1,29
 1268 719 1268 719 1272.5 730 c 128,-1,30
 1277 741 1277 741 1281 753 c 128,-1,31
 1285 765 1285 765 1290 780 c 0,32,33
 1293 790 1293 790 1302 823.5 c 128,-1,34
 1311 857 1311 857 1313 903 c 1,35,-1
 1550 903 l 1,36,37
 1545 857 1545 857 1539 821 c 128,-1,38
 1533 785 1533 785 1524.5 752 c 128,-1,39
 1516 719 1516 719 1504.5 684.5 c 128,-1,40
 1493 650 1493 650 1477 608 c 0,41,42
 1466 577 1466 577 1454.5 554 c 128,-1,43
 1443 531 1443 531 1433 515 c 0,44,45
 1423 496 1423 496 1413 483 c 1,46,-1
 1790 0 l 1,47,-1
 1425 0 l 1,48,-1
 1262 231 l 1,49,50
 1217 160 1217 160 1168 116 c 128,-1,51
 1119 72 1119 72 1075 43 c 0,52,53
 1038 18 1038 18 1002.5 1 c 128,-1,54
 967 -16 967 -16 929.5 -25.5 c 128,-1,55
 892 -35 892 -35 850.5 -39 c 128,-1,56
 809 -43 809 -43 758 -43 c 0,57,58
 461 -43 461 -43 326 117 c 0,59,60
 190 277 190 277 190 479 c 0,61,62
 190 589 190 589 227.5 690.5 c 128,-1,63
 265 792 265 792 324 872 c 0,64,65
 359 923 359 923 427.5 989.5 c 128,-1,66
 496 1056 496 1056 606 1122 c 1,67,68
 575 1158 575 1158 554 1186.5 c 128,-1,69
 533 1215 533 1215 518 1240.5 c 128,-1,70
 503 1266 503 1266 492 1288.5 c 128,-1,71
 481 1311 481 1311 471 1335 c 0,0,1
987 358 m 0,72,73
 1004 369 1004 369 1019.5 384 c 128,-1,74
 1035 399 1035 399 1048.5 415 c 128,-1,75
 1062 431 1062 431 1074 446 c 128,-1,76
 1086 461 1086 461 1096 473 c 1,77,-1
 745 956 l 1,78,79
 699 925 699 925 666.5 903.5 c 128,-1,80
 634 882 634 882 610 865.5 c 128,-1,81
 586 849 586 849 568.5 835 c 128,-1,82
 551 821 551 821 537 805 c 0,83,84
 515 779 515 779 499.5 756 c 128,-1,85
 484 733 484 733 474 709.5 c 128,-1,86
 464 686 464 686 458.5 658.5 c 128,-1,87
 453 631 453 631 449 596 c 0,88,89
 441 524 441 524 450 482 c 128,-1,90
 459 440 459 440 483 408 c 0,91,92
 506 377 506 377 539.5 355.5 c 128,-1,93
 573 334 573 334 610 320.5 c 128,-1,94
 647 307 647 307 685 301 c 128,-1,95
 723 295 723 295 754 295 c 0,96,97
 826 295 826 295 881 311 c 128,-1,98
 936 327 936 327 987 358 c 0,72,73
999 1356 m 0,99,100
 1044 1394 1044 1394 1062.5 1443 c 128,-1,101
 1081 1492 1081 1492 1081 1546 c 0,102,103
 1081 1588 1081 1588 1067.5 1620 c 128,-1,104
 1054 1652 1054 1652 1026 1683 c 256,105,106
 998 1714 998 1714 960.5 1723.5 c 128,-1,107
 923 1733 923 1733 877 1733 c 0,108,109
 804 1733 804 1733 754 1715 c 128,-1,110
 704 1697 704 1697 676 1649 c 0,111,112
 662 1624 662 1624 654.5 1600.5 c 128,-1,113
 647 1577 647 1577 647 1548 c 0,114,115
 647 1508 647 1508 659 1471 c 128,-1,116
 671 1434 671 1434 692 1397 c 0,117,118
 715 1359 715 1359 736.5 1328.5 c 128,-1,119
 758 1298 758 1298 775 1276 c 0,120,121
 794 1251 794 1251 811 1231 c 1,122,123
 823 1239 823 1239 847 1253.5 c 128,-1,124
 871 1268 871 1268 899 1285.5 c 128,-1,125
 927 1303 927 1303 954 1321.5 c 128,-1,126
 981 1340 981 1340 999 1356 c 0,99,100
EndSplineSet
EndChar

StartChar: at
Encoding: 64 64 104
Width: 2445
Flags: W
LayerCount: 2
Fore
SplineSet
418 285 m 0,0,1
 303 419 303 419 245.5 566 c 128,-1,2
 188 713 188 713 188 887 c 0,3,4
 188 1095 188 1095 264.5 1270.5 c 128,-1,5
 341 1446 341 1446 481 1591 c 0,6,7
 636 1751 636 1751 843 1832 c 128,-1,8
 1050 1913 1050 1913 1311 1913 c 0,9,10
 1424 1913 1424 1913 1529 1902.5 c 128,-1,11
 1634 1892 1634 1892 1727 1867.5 c 128,-1,12
 1820 1843 1820 1843 1898.5 1801 c 128,-1,13
 1977 1759 1977 1759 2036 1696 c 0,14,15
 2092 1636 2092 1636 2130 1577.5 c 128,-1,16
 2168 1519 2168 1519 2191 1455 c 128,-1,17
 2214 1391 2214 1391 2224 1320 c 128,-1,18
 2234 1249 2234 1249 2234 1163 c 0,19,20
 2234 1090 2234 1090 2224.5 1029 c 128,-1,21
 2215 968 2215 968 2196 913.5 c 128,-1,22
 2177 859 2177 859 2148 808 c 128,-1,23
 2119 757 2119 757 2079 705 c 0,24,25
 2038 651 2038 651 1987 609 c 128,-1,26
 1936 567 1936 567 1880 538 c 128,-1,27
 1824 509 1824 509 1767 494 c 128,-1,28
 1710 479 1710 479 1657 479 c 0,29,30
 1594 479 1594 479 1544 496 c 128,-1,31
 1494 513 1494 513 1473 557 c 0,32,33
 1458 586 1458 586 1454 620 c 128,-1,34
 1450 654 1450 654 1450.5 683 c 128,-1,35
 1451 712 1451 712 1455 733 c 128,-1,36
 1459 754 1459 754 1460 758 c 1,37,38
 1443 721 1443 721 1428 690.5 c 128,-1,39
 1413 660 1413 660 1397 634.5 c 128,-1,40
 1381 609 1381 609 1362 588 c 128,-1,41
 1343 567 1343 567 1319 549 c 0,42,43
 1271 514 1271 514 1215.5 496.5 c 128,-1,44
 1160 479 1160 479 1083 479 c 0,45,46
 1044 479 1044 479 1005 488 c 128,-1,47
 966 497 966 497 930.5 513 c 128,-1,48
 895 529 895 529 864 552.5 c 128,-1,49
 833 576 833 576 809 604 c 0,50,51
 784 632 784 632 767.5 659.5 c 128,-1,52
 751 687 751 687 740.5 719.5 c 128,-1,53
 730 752 730 752 725.5 791.5 c 128,-1,54
 721 831 721 831 721 883 c 0,55,56
 723 1010 723 1010 766 1125.5 c 128,-1,57
 809 1241 809 1241 893 1337 c 0,58,59
 977 1434 977 1434 1068 1482 c 128,-1,60
 1159 1530 1159 1530 1255 1530 c 0,61,62
 1386 1530 1386 1530 1468 1454 c 0,63,64
 1512 1417 1512 1417 1533.5 1373 c 128,-1,65
 1555 1329 1555 1329 1559 1276 c 1,66,-1
 1638 1487 l 1,67,-1
 1800 1487 l 1,68,69
 1770 1415 1770 1415 1742 1342 c 0,70,71
 1718 1279 1718 1279 1693 1207.5 c 128,-1,72
 1668 1136 1668 1136 1651 1075 c 256,73,74
 1634 1014 1634 1014 1621 951.5 c 128,-1,75
 1608 889 1608 889 1603.5 836.5 c 128,-1,76
 1599 784 1599 784 1604 747.5 c 128,-1,77
 1609 711 1609 711 1628 702 c 256,78,79
 1647 693 1647 693 1669.5 688.5 c 128,-1,80
 1692 684 1692 684 1704 686 c 0,81,82
 1738 689 1738 689 1766.5 697 c 128,-1,83
 1795 705 1795 705 1821 719.5 c 128,-1,84
 1847 734 1847 734 1873 757 c 128,-1,85
 1899 780 1899 780 1927 813 c 0,86,87
 1980 875 1980 875 2009 961.5 c 128,-1,88
 2038 1048 2038 1048 2038 1169 c 0,89,90
 2038 1243 2038 1243 2031.5 1299.5 c 128,-1,91
 2025 1356 2025 1356 2008 1404.5 c 128,-1,92
 1991 1453 1991 1453 1961 1498.5 c 128,-1,93
 1931 1544 1931 1544 1884 1595 c 0,94,95
 1840 1644 1840 1644 1781 1676.5 c 128,-1,96
 1722 1709 1722 1709 1651.5 1728 c 128,-1,97
 1581 1747 1581 1747 1500.5 1755 c 128,-1,98
 1420 1763 1420 1763 1333 1763 c 0,99,100
 853 1763 853 1763 598 1481 c 0,101,102
 544 1421 544 1421 509.5 1353.5 c 128,-1,103
 475 1286 475 1286 455.5 1211 c 128,-1,104
 436 1136 436 1136 429.5 1053.5 c 128,-1,105
 423 971 423 971 424 881 c 0,106,107
 426 798 426 798 441 735.5 c 128,-1,108
 456 673 456 673 481 623.5 c 128,-1,109
 506 574 506 574 539.5 534.5 c 128,-1,110
 573 495 573 495 610 457 c 0,111,112
 672 395 672 395 742 349.5 c 128,-1,113
 812 304 812 304 893 274.5 c 128,-1,114
 974 245 974 245 1069 231 c 128,-1,115
 1164 217 1164 217 1276 217 c 0,116,117
 1329 217 1329 217 1378 218 c 128,-1,118
 1427 219 1427 219 1473.5 223.5 c 128,-1,119
 1520 228 1520 228 1565 237 c 128,-1,120
 1610 246 1610 246 1655 262 c 0,121,122
 1746 296 1746 296 1831.5 339.5 c 128,-1,123
 1917 383 1917 383 1993 438 c 1,124,-1
 2097 188 l 1,125,126
 2069 163 2069 163 2036.5 141.5 c 128,-1,127
 2004 120 2004 120 1966 99.5 c 128,-1,128
 1928 79 1928 79 1882 59 c 128,-1,129
 1836 39 1836 39 1780 16 c 0,130,131
 1723 -6 1723 -6 1658.5 -18 c 128,-1,132
 1594 -30 1594 -30 1525.5 -35.5 c 128,-1,133
 1457 -41 1457 -41 1386.5 -42 c 128,-1,134
 1316 -43 1316 -43 1247 -43 c 0,135,136
 981 -43 981 -43 771 38.5 c 128,-1,137
 561 120 561 120 418 285 c 0,0,1
1446 1335 m 0,138,139
 1420 1367 1420 1367 1379.5 1390 c 128,-1,140
 1339 1413 1339 1413 1292 1413 c 0,141,142
 1220 1413 1220 1413 1150.5 1367.5 c 128,-1,143
 1081 1322 1081 1322 1028 1237 c 0,144,145
 1002 1194 1002 1194 986 1154 c 128,-1,146
 970 1114 970 1114 961 1075 c 128,-1,147
 952 1036 952 1036 949 996.5 c 128,-1,148
 946 957 946 957 946 915 c 0,149,150
 946 884 946 884 949 859.5 c 128,-1,151
 952 835 952 835 958 815.5 c 128,-1,152
 964 796 964 796 974 779 c 128,-1,153
 984 762 984 762 997 745 c 0,154,155
 1050 680 1050 680 1133 680 c 0,156,157
 1176 680 1176 680 1214.5 689.5 c 128,-1,158
 1253 699 1253 699 1287 720 c 128,-1,159
 1321 741 1321 741 1350 775.5 c 128,-1,160
 1379 810 1379 810 1403 860 c 256,161,162
 1427 910 1427 910 1444.5 953.5 c 128,-1,163
 1462 997 1462 997 1473.5 1037 c 128,-1,164
 1485 1077 1485 1077 1491 1115.5 c 128,-1,165
 1497 1154 1497 1154 1497 1194 c 0,166,167
 1497 1275 1497 1275 1446 1335 c 0,138,139
EndSplineSet
EndChar

StartChar: dieresis
Encoding: 168 168 105
Width: 1448
Flags: W
LayerCount: 2
Fore
SplineSet
1151 1638 m 256,0,1
 1151 1602 1151 1602 1137.5 1570.5 c 128,-1,2
 1124 1539 1124 1539 1100 1515 c 128,-1,3
 1076 1491 1076 1491 1044.5 1477.5 c 128,-1,4
 1013 1464 1013 1464 977 1464 c 256,5,6
 941 1464 941 1464 909.5 1477.5 c 128,-1,7
 878 1491 878 1491 854 1515 c 128,-1,8
 830 1539 830 1539 816.5 1570.5 c 128,-1,9
 803 1602 803 1602 803 1638 c 256,10,11
 803 1674 803 1674 816.5 1706 c 128,-1,12
 830 1738 830 1738 854 1761.5 c 128,-1,13
 878 1785 878 1785 909.5 1798.5 c 128,-1,14
 941 1812 941 1812 977 1812 c 256,15,16
 1013 1812 1013 1812 1044.5 1798.5 c 128,-1,17
 1076 1785 1076 1785 1100 1761.5 c 128,-1,18
 1124 1738 1124 1738 1137.5 1706 c 128,-1,19
 1151 1674 1151 1674 1151 1638 c 256,0,1
647 1638 m 256,20,21
 647 1602 647 1602 633 1570.5 c 128,-1,22
 619 1539 619 1539 595 1515 c 128,-1,23
 571 1491 571 1491 539.5 1477.5 c 128,-1,24
 508 1464 508 1464 473 1464 c 0,25,26
 437 1464 437 1464 405 1477.5 c 128,-1,27
 373 1491 373 1491 349 1515 c 128,-1,28
 325 1539 325 1539 311 1570.5 c 128,-1,29
 297 1602 297 1602 297 1638 c 256,30,31
 297 1674 297 1674 311 1706 c 128,-1,32
 325 1738 325 1738 349 1761.5 c 128,-1,33
 373 1785 373 1785 405 1798.5 c 128,-1,34
 437 1812 437 1812 473 1812 c 0,35,36
 508 1812 508 1812 539.5 1798.5 c 128,-1,37
 571 1785 571 1785 595 1761.5 c 128,-1,38
 619 1738 619 1738 633 1706 c 128,-1,39
 647 1674 647 1674 647 1638 c 256,20,21
EndSplineSet
EndChar

StartChar: quoteleft
Encoding: 8216 8216 106
Width: 866
Flags: W
LayerCount: 2
Fore
SplineSet
356 807 m 256,0,1
 314 807 314 807 277 823 c 128,-1,2
 240 839 240 839 213 866.5 c 128,-1,3
 186 894 186 894 170 931 c 128,-1,4
 154 968 154 968 154 1010 c 0,5,6
 154 1132 154 1132 159.5 1213 c 128,-1,7
 165 1294 165 1294 176 1348.5 c 128,-1,8
 187 1403 187 1403 204 1437 c 128,-1,9
 221 1471 221 1471 244 1499 c 0,10,11
 270 1529 270 1529 303 1549 c 128,-1,12
 336 1569 336 1569 365 1581 c 0,13,14
 400 1594 400 1594 436 1602 c 1,15,-1
 459 1468 l 1,16,17
 421 1459 421 1459 393 1441 c 128,-1,18
 365 1423 365 1423 342 1395 c 0,19,20
 329 1378 329 1378 320.5 1360 c 128,-1,21
 312 1342 312 1342 306.5 1319.5 c 128,-1,22
 301 1297 301 1297 299 1268.5 c 128,-1,23
 297 1240 297 1240 297 1202 c 1,24,25
 309 1208 309 1208 326.5 1210 c 128,-1,26
 344 1212 344 1212 356 1212 c 0,27,28
 398 1212 398 1212 435 1196 c 128,-1,29
 472 1180 472 1180 499.5 1153 c 128,-1,30
 527 1126 527 1126 543 1089 c 128,-1,31
 559 1052 559 1052 559 1010 c 256,32,33
 559 968 559 968 543 931 c 128,-1,34
 527 894 527 894 499.5 866.5 c 128,-1,35
 472 839 472 839 435 823 c 128,-1,36
 398 807 398 807 356 807 c 256,0,1
EndSplineSet
EndChar

StartChar: quoteright
Encoding: 8217 8217 107
Width: 868
Flags: W
LayerCount: 2
Fore
SplineSet
356 1563 m 0,0,1
 398 1563 398 1563 435.5 1547 c 128,-1,2
 473 1531 473 1531 501 1503.5 c 128,-1,3
 529 1476 529 1476 545 1439 c 128,-1,4
 561 1402 561 1402 561 1360 c 0,5,6
 561 1238 561 1238 555.5 1156.5 c 128,-1,7
 550 1075 550 1075 539 1020.5 c 128,-1,8
 528 966 528 966 511 932 c 128,-1,9
 494 898 494 898 471 870 c 0,10,11
 445 841 445 841 412 821 c 128,-1,12
 379 801 379 801 350 789 c 0,13,14
 315 776 315 776 279 768 c 1,15,-1
 254 901 l 1,16,17
 294 910 294 910 322 928.5 c 128,-1,18
 350 947 350 947 373 975 c 0,19,20
 385 992 385 992 393.5 1010 c 128,-1,21
 402 1028 402 1028 407 1050.5 c 128,-1,22
 412 1073 412 1073 414 1101.5 c 128,-1,23
 416 1130 416 1130 416 1167 c 1,24,25
 405 1161 405 1161 387.5 1159 c 128,-1,26
 370 1157 370 1157 356 1157 c 0,27,28
 315 1157 315 1157 278 1173 c 128,-1,29
 241 1189 241 1189 213.5 1216.5 c 128,-1,30
 186 1244 186 1244 170 1281 c 128,-1,31
 154 1318 154 1318 154 1360 c 256,32,33
 154 1402 154 1402 170 1439 c 128,-1,34
 186 1476 186 1476 213.5 1503.5 c 128,-1,35
 241 1531 241 1531 278 1547 c 128,-1,36
 315 1563 315 1563 356 1563 c 0,0,1
EndSplineSet
EndChar

StartChar: ecircumflex
Encoding: 234 234 109
Width: 1393
Flags: W
LayerCount: 2
Fore
SplineSet
950 1432 m 1,0,-1
 758 1630 l 1,1,-1
 559 1432 l 1,2,-1
 428 1565 l 1,3,-1
 756 1913 l 1,4,-1
 1083 1565 l 1,5,-1
 950 1432 l 1,0,-1
1249 307 m 1,6,7
 1248 256 1248 256 1232.5 215 c 128,-1,8
 1217 174 1217 174 1194.5 142 c 128,-1,9
 1172 110 1172 110 1145.5 86.5 c 128,-1,10
 1119 63 1119 63 1096 45 c 0,11,12
 1042 5 1042 5 986 -12 c 128,-1,13
 930 -29 930 -29 881 -37 c 0,14,15
 862 -39 862 -39 838.5 -40.5 c 128,-1,16
 815 -42 815 -42 789.5 -42.5 c 128,-1,17
 764 -43 764 -43 738 -43 c 128,-1,18
 712 -43 712 -43 688 -43 c 0,19,20
 556 -43 556 -43 453.5 5 c 128,-1,21
 351 53 351 53 281.5 135.5 c 128,-1,22
 212 218 212 218 175.5 329 c 128,-1,23
 139 440 139 440 139 565 c 0,24,25
 139 712 139 712 183 835 c 128,-1,26
 227 958 227 958 307 1051 c 0,27,28
 386 1144 386 1144 489.5 1198.5 c 128,-1,29
 593 1253 593 1253 721 1253 c 0,30,31
 809 1253 809 1253 870.5 1235.5 c 128,-1,32
 932 1218 932 1218 975 1196 c 0,33,34
 996 1186 996 1186 1021 1169 c 128,-1,35
 1046 1152 1046 1152 1070.5 1130 c 128,-1,36
 1095 1108 1095 1108 1117.5 1081.5 c 128,-1,37
 1140 1055 1140 1055 1155 1026 c 0,38,39
 1181 977 1181 977 1203.5 925 c 128,-1,40
 1226 873 1226 873 1237 811 c 1,41,42
 1244 741 1244 741 1221.5 691.5 c 128,-1,43
 1199 642 1199 642 1154.5 609.5 c 128,-1,44
 1110 577 1110 577 1047.5 561 c 128,-1,45
 985 545 985 545 911 543 c 2,46,-1
 381 514 l 1,47,48
 382 490 382 490 386 463.5 c 128,-1,49
 390 437 390 437 397.5 411 c 128,-1,50
 405 385 405 385 417 361 c 128,-1,51
 429 337 429 337 446 317 c 0,52,53
 465 294 465 294 485.5 276 c 128,-1,54
 506 258 506 258 533.5 245 c 128,-1,55
 561 232 561 232 598.5 225.5 c 128,-1,56
 636 219 636 219 688 219 c 0,57,58
 727 220 727 220 764.5 220.5 c 128,-1,59
 802 221 802 221 834 222.5 c 128,-1,60
 866 224 866 224 890.5 227 c 128,-1,61
 915 230 915 230 930 236 c 0,62,63
 947 242 947 242 964.5 256 c 128,-1,64
 982 270 982 270 987 307 c 1,65,-1
 1249 307 l 1,6,7
471 965 m 0,66,67
 425 914 425 914 399.5 839.5 c 128,-1,68
 374 765 374 765 371 686 c 1,69,-1
 891 713 l 2,70,71
 994 716 994 716 1025 774 c 128,-1,72
 1056 832 1056 832 1008 934 c 0,73,74
 970 1011 970 1011 898 1054.5 c 128,-1,75
 826 1098 826 1098 727 1098 c 0,76,77
 679 1098 679 1098 642 1087 c 128,-1,78
 605 1076 605 1076 575 1057.5 c 128,-1,79
 545 1039 545 1039 520 1015 c 128,-1,80
 495 991 495 991 471 965 c 0,66,67
EndSplineSet
EndChar

StartChar: icircumflex
Encoding: 238 238 110
Width: 973
Flags: W
LayerCount: 2
Fore
SplineSet
618 0 m 1,0,-1
 352 0 l 1,1,-1
 379 1214 l 1,2,-1
 594 1214 l 1,3,-1
 618 0 l 1,0,-1
815 1563 m 1,4,-1
 485 1911 l 1,5,-1
 158 1563 l 1,6,-1
 291 1430 l 1,7,-1
 487 1628 l 1,8,-1
 682 1430 l 1,9,-1
 815 1563 l 1,4,-1
EndSplineSet
EndChar

StartChar: ocircumflex
Encoding: 244 244 111
Width: 1466
Flags: W
LayerCount: 2
Fore
SplineSet
926 1432 m 1,0,-1
 731 1630 l 1,1,-1
 535 1432 l 1,2,-1
 401 1565 l 1,3,-1
 729 1913 l 1,4,-1
 1059 1565 l 1,5,-1
 926 1432 l 1,0,-1
1145 1073 m 0,6,7
 1183 1028 1183 1028 1215 974.5 c 128,-1,8
 1247 921 1247 921 1270 859.5 c 128,-1,9
 1293 798 1293 798 1306 729.5 c 128,-1,10
 1319 661 1319 661 1319 584 c 0,11,12
 1319 440 1319 440 1273 327 c 128,-1,13
 1227 214 1227 214 1153 127 c 0,14,15
 1006 -43 1006 -43 756 -43 c 2,16,-1
 702 -43 l 2,17,18
 452 -43 452 -43 305 127 c 0,19,20
 231 214 231 214 185 327 c 128,-1,21
 139 440 139 440 139 584 c 0,22,23
 139 661 139 661 152 729.5 c 128,-1,24
 165 798 165 798 188 859.5 c 128,-1,25
 211 921 211 921 243 974.5 c 128,-1,26
 275 1028 275 1028 313 1073 c 0,27,28
 466 1250 466 1250 725 1253 c 2,29,-1
 737 1253 l 2,30,31
 992 1250 992 1250 1145 1073 c 0,6,7
1001 334 m 0,32,33
 1023 367 1023 367 1039 399.5 c 128,-1,34
 1055 432 1055 432 1065.5 467.5 c 128,-1,35
 1076 503 1076 503 1081.5 543.5 c 128,-1,36
 1087 584 1087 584 1087 633 c 0,37,38
 1087 683 1087 683 1080.5 725 c 128,-1,39
 1074 767 1074 767 1062 804.5 c 128,-1,40
 1050 842 1050 842 1032 877 c 128,-1,41
 1014 912 1014 912 991 946 c 0,42,43
 968 981 968 981 942 1009 c 128,-1,44
 916 1037 916 1037 885 1056.5 c 128,-1,45
 854 1076 854 1076 816.5 1087 c 128,-1,46
 779 1098 779 1098 733 1098 c 2,47,-1
 725 1098 l 2,48,49
 679 1098 679 1098 641.5 1086.5 c 128,-1,50
 604 1075 604 1075 573 1054.5 c 128,-1,51
 542 1034 542 1034 516 1006.5 c 128,-1,52
 490 979 490 979 467 946 c 0,53,54
 443 912 443 912 425 878 c 128,-1,55
 407 844 407 844 395 807 c 128,-1,56
 383 770 383 770 377 728 c 128,-1,57
 371 686 371 686 371 635 c 0,58,59
 371 587 371 587 375 546 c 128,-1,60
 379 505 379 505 388 469 c 128,-1,61
 397 433 397 433 412 400 c 128,-1,62
 427 367 427 367 449 334 c 0,63,64
 491 269 491 269 558.5 244 c 128,-1,65
 626 219 626 219 719 219 c 2,66,-1
 731 219 l 2,67,68
 824 219 824 219 891.5 244 c 128,-1,69
 959 269 959 269 1001 334 c 0,32,33
EndSplineSet
EndChar

StartChar: percent
Encoding: 37 37 112
Width: 1925
Flags: W
LayerCount: 2
Fore
SplineSet
1376 1778 m 1,0,-1
 842 0 l 1,1,-1
 537 0 l 1,2,-1
 1071 1778 l 1,3,-1
 1376 1778 l 1,0,-1
457 1606 m 256,4,5
 392 1606 392 1606 334.5 1581 c 128,-1,6
 277 1556 277 1556 234 1513 c 128,-1,7
 191 1470 191 1470 166 1412.5 c 128,-1,8
 141 1355 141 1355 141 1290 c 256,9,10
 141 1225 141 1225 166 1167.5 c 128,-1,11
 191 1110 191 1110 234 1067.5 c 128,-1,12
 277 1025 277 1025 334.5 1000 c 128,-1,13
 392 975 392 975 457 975 c 256,14,15
 522 975 522 975 579.5 1000 c 128,-1,16
 637 1025 637 1025 680 1067.5 c 128,-1,17
 723 1110 723 1110 747.5 1167.5 c 128,-1,18
 772 1225 772 1225 772 1290 c 256,19,20
 772 1355 772 1355 747.5 1412.5 c 128,-1,21
 723 1470 723 1470 680 1513 c 128,-1,22
 637 1556 637 1556 579.5 1581 c 128,-1,23
 522 1606 522 1606 457 1606 c 256,4,5
457 1139 m 0,24,25
 426 1139 426 1139 398 1151 c 128,-1,26
 370 1163 370 1163 349.5 1183 c 128,-1,27
 329 1203 329 1203 317 1231 c 128,-1,28
 305 1259 305 1259 305 1290 c 0,29,30
 305 1322 305 1322 317 1349.5 c 128,-1,31
 329 1377 329 1377 349.5 1397.5 c 128,-1,32
 370 1418 370 1418 398 1430 c 128,-1,33
 426 1442 426 1442 457 1442 c 0,34,35
 489 1442 489 1442 516.5 1430 c 128,-1,36
 544 1418 544 1418 564 1397.5 c 128,-1,37
 584 1377 584 1377 596 1349.5 c 128,-1,38
 608 1322 608 1322 608 1290 c 0,39,40
 608 1259 608 1259 596 1231 c 128,-1,41
 584 1203 584 1203 564 1183 c 128,-1,42
 544 1163 544 1163 516.5 1151 c 128,-1,43
 489 1139 489 1139 457 1139 c 0,24,25
1456 895 m 0,44,45
 1391 895 1391 895 1333.5 870.5 c 128,-1,46
 1276 846 1276 846 1233.5 803 c 128,-1,47
 1191 760 1191 760 1166 702.5 c 128,-1,48
 1141 645 1141 645 1141 580 c 256,49,50
 1141 515 1141 515 1166 457 c 128,-1,51
 1191 399 1191 399 1233.5 355.5 c 128,-1,52
 1276 312 1276 312 1333.5 287 c 128,-1,53
 1391 262 1391 262 1456 262 c 0,54,55
 1522 262 1522 262 1580 287 c 128,-1,56
 1638 312 1638 312 1681 355.5 c 128,-1,57
 1724 399 1724 399 1749 457 c 128,-1,58
 1774 515 1774 515 1774 580 c 256,59,60
 1774 645 1774 645 1749 702.5 c 128,-1,61
 1724 760 1724 760 1681 803 c 128,-1,62
 1638 846 1638 846 1580 870.5 c 128,-1,63
 1522 895 1522 895 1456 895 c 0,44,45
1456 428 m 0,64,65
 1425 428 1425 428 1397.5 440 c 128,-1,66
 1370 452 1370 452 1349.5 472.5 c 128,-1,67
 1329 493 1329 493 1317 521 c 128,-1,68
 1305 549 1305 549 1305 580 c 0,69,70
 1305 612 1305 612 1317 639.5 c 128,-1,71
 1329 667 1329 667 1349.5 687 c 128,-1,72
 1370 707 1370 707 1397.5 719 c 128,-1,73
 1425 731 1425 731 1456 731 c 0,74,75
 1488 731 1488 731 1516 719 c 128,-1,76
 1544 707 1544 707 1565 687 c 128,-1,77
 1586 667 1586 667 1598 639.5 c 128,-1,78
 1610 612 1610 612 1610 580 c 0,79,80
 1610 549 1610 549 1598 521 c 128,-1,81
 1586 493 1586 493 1565 472.5 c 128,-1,82
 1544 452 1544 452 1516 440 c 128,-1,83
 1488 428 1488 428 1456 428 c 0,64,65
EndSplineSet
EndChar

StartChar: divide
Encoding: 247 247 113
Width: 1544
Flags: W
LayerCount: 2
Fore
SplineSet
989 1051 m 256,0,1
 989 1009 989 1009 973 972 c 128,-1,2
 957 935 957 935 929 907.5 c 128,-1,3
 901 880 901 880 864.5 864 c 128,-1,4
 828 848 828 848 786 848 c 256,5,6
 744 848 744 848 707 864 c 128,-1,7
 670 880 670 880 642 907.5 c 128,-1,8
 614 935 614 935 598 972 c 128,-1,9
 582 1009 582 1009 582 1051 c 256,10,11
 582 1093 582 1093 598 1130 c 128,-1,12
 614 1167 614 1167 642 1194 c 128,-1,13
 670 1221 670 1221 707 1237 c 128,-1,14
 744 1253 744 1253 786 1253 c 256,15,16
 828 1253 828 1253 864.5 1237 c 128,-1,17
 901 1221 901 1221 929 1194 c 128,-1,18
 957 1167 957 1167 973 1130 c 128,-1,19
 989 1093 989 1093 989 1051 c 256,0,1
989 160 m 256,20,21
 989 118 989 118 973 81.5 c 128,-1,22
 957 45 957 45 929 17 c 128,-1,23
 901 -11 901 -11 864.5 -27 c 128,-1,24
 828 -43 828 -43 786 -43 c 256,25,26
 744 -43 744 -43 707 -27 c 128,-1,27
 670 -11 670 -11 642 17 c 128,-1,28
 614 45 614 45 598 81.5 c 128,-1,29
 582 118 582 118 582 160 c 256,30,31
 582 202 582 202 598 239.5 c 128,-1,32
 614 277 614 277 642 304.5 c 128,-1,33
 670 332 670 332 707 348.5 c 128,-1,34
 744 365 744 365 786 365 c 256,35,36
 828 365 828 365 864.5 348.5 c 128,-1,37
 901 332 901 332 929 304.5 c 128,-1,38
 957 277 957 277 973 239.5 c 128,-1,39
 989 202 989 202 989 160 c 256,20,21
1354 510 m 1,40,-1
 217 510 l 1,41,-1
 217 688 l 1,42,-1
 1354 688 l 1,43,-1
 1354 510 l 1,40,-1
EndSplineSet
EndChar

StartChar: multiply
Encoding: 215 215 114
Width: 1419
Flags: W
LayerCount: 2
Fore
SplineSet
1008 0 m 1,0,-1
 711 299 l 1,1,-1
 412 0 l 1,2,-1
 205 207 l 1,3,-1
 504 506 l 1,4,-1
 205 803 l 1,5,-1
 412 1010 l 1,6,-1
 711 713 l 1,7,-1
 1008 1010 l 1,8,-1
 1214 803 l 1,9,-1
 918 506 l 1,10,-1
 1214 207 l 1,11,-1
 1008 0 l 1,0,-1
EndSplineSet
EndChar

StartChar: equal
Encoding: 61 61 115
Width: 1350
Flags: W
LayerCount: 2
Fore
SplineSet
1243 184 m 1,0,-1
 109 184 l 1,1,-1
 109 477 l 1,2,-1
 1243 477 l 1,3,-1
 1243 184 l 1,0,-1
1243 700 m 1,4,-1
 109 700 l 1,5,-1
 109 993 l 1,6,-1
 1243 993 l 1,7,-1
 1243 700 l 1,4,-1
EndSplineSet
EndChar

StartChar: plus
Encoding: 43 43 116
Width: 1250
Flags: W
LayerCount: 2
Fore
SplineSet
1189 422 m 1,0,-1
 770 422 l 1,1,-1
 770 0 l 1,2,-1
 477 0 l 1,3,-1
 477 422 l 1,4,-1
 55 422 l 1,5,-1
 55 713 l 1,6,-1
 477 713 l 1,7,-1
 477 1135 l 1,8,-1
 770 1135 l 1,9,-1
 770 713 l 1,10,-1
 1189 713 l 1,11,-1
 1189 422 l 1,0,-1
EndSplineSet
EndChar

StartChar: asterisk
Encoding: 42 42 117
Width: 1419
Flags: W
LayerCount: 2
Fore
SplineSet
1004 1139 m 1,0,-1
 870 1139 l 1,1,-1
 965 1047 l 1,2,-1
 862 944 l 1,3,-1
 770 1038 l 1,4,-1
 770 905 l 1,5,-1
 627 905 l 1,6,-1
 627 1038 l 1,7,-1
 535 944 l 1,8,-1
 432 1047 l 1,9,-1
 526 1139 l 1,10,-1
 395 1139 l 1,11,-1
 395 1282 l 1,12,-1
 526 1282 l 1,13,-1
 432 1374 l 1,14,-1
 535 1477 l 1,15,-1
 627 1382 l 1,16,-1
 627 1513 l 1,17,-1
 770 1513 l 1,18,-1
 770 1382 l 1,19,-1
 862 1477 l 1,20,-1
 965 1374 l 1,21,-1
 870 1282 l 1,22,-1
 1004 1282 l 1,23,-1
 1004 1139 l 1,0,-1
EndSplineSet
EndChar

StartChar: degree
Encoding: 176 176 118
Width: 905
Flags: W
LayerCount: 2
Fore
SplineSet
453 1286 m 0,0,1
 504 1286 504 1286 549 1266.5 c 128,-1,2
 594 1247 594 1247 627.5 1213.5 c 128,-1,3
 661 1180 661 1180 680.5 1135 c 128,-1,4
 700 1090 700 1090 700 1038 c 0,5,6
 700 987 700 987 680.5 942 c 128,-1,7
 661 897 661 897 627.5 863.5 c 128,-1,8
 594 830 594 830 549 810.5 c 128,-1,9
 504 791 504 791 453 791 c 0,10,11
 401 791 401 791 356 810.5 c 128,-1,12
 311 830 311 830 277.5 863.5 c 128,-1,13
 244 897 244 897 224.5 942 c 128,-1,14
 205 987 205 987 205 1038 c 0,15,16
 205 1090 205 1090 224.5 1135 c 128,-1,17
 244 1180 244 1180 277.5 1213.5 c 128,-1,18
 311 1247 311 1247 356 1266.5 c 128,-1,19
 401 1286 401 1286 453 1286 c 0,0,1
453 920 m 0,20,21
 477 920 477 920 498.5 929.5 c 128,-1,22
 520 939 520 939 536 955 c 128,-1,23
 552 971 552 971 561.5 992.5 c 128,-1,24
 571 1014 571 1014 571 1038 c 0,25,26
 571 1063 571 1063 561.5 1084.5 c 128,-1,27
 552 1106 552 1106 536 1122 c 128,-1,28
 520 1138 520 1138 498.5 1147.5 c 128,-1,29
 477 1157 477 1157 453 1157 c 0,30,31
 428 1157 428 1157 406.5 1147.5 c 128,-1,32
 385 1138 385 1138 369 1122 c 128,-1,33
 353 1106 353 1106 343.5 1084.5 c 128,-1,34
 334 1063 334 1063 334 1038 c 0,35,36
 334 1014 334 1014 343.5 992.5 c 128,-1,37
 353 971 353 971 369 955 c 128,-1,38
 385 939 385 939 406.5 929.5 c 128,-1,39
 428 920 428 920 453 920 c 0,20,21
EndSplineSet
EndChar

StartChar: numbersign
Encoding: 35 35 119
Width: 1884
Flags: W
LayerCount: 2
Fore
SplineSet
1397 1077 m 1,0,-1
 1313 690 l 1,1,-1
 1714 690 l 1,2,-1
 1714 485 l 1,3,-1
 1270 485 l 1,4,-1
 1167 0 l 1,5,-1
 940 0 l 1,6,-1
 1042 485 l 1,7,-1
 655 485 l 1,8,-1
 553 0 l 1,9,-1
 326 0 l 1,10,-1
 428 485 l 1,11,-1
 145 485 l 1,12,-1
 145 690 l 1,13,-1
 473 690 l 1,14,-1
 555 1077 l 1,15,-1
 145 1077 l 1,16,-1
 145 1284 l 1,17,-1
 600 1284 l 1,18,-1
 694 1733 l 1,19,-1
 922 1733 l 1,20,-1
 825 1284 l 1,21,-1
 1212 1284 l 1,22,-1
 1309 1733 l 1,23,-1
 1536 1733 l 1,24,-1
 1440 1284 l 1,25,-1
 1714 1284 l 1,26,-1
 1714 1077 l 1,27,-1
 1397 1077 l 1,0,-1
1169 1077 m 1,28,-1
 782 1077 l 1,29,-1
 700 690 l 1,30,-1
 1087 690 l 1,31,-1
 1169 1077 l 1,28,-1
EndSplineSet
EndChar

StartChar: less
Encoding: 60 60 120
Width: 942
Flags: W
LayerCount: 2
Fore
SplineSet
104 635 m 1,0,-1
 526 1214 l 1,1,-1
 741 1214 l 1,2,-1
 336 635 l 1,3,-1
 743 0 l 1,4,-1
 475 0 l 1,5,-1
 104 635 l 1,0,-1
EndSplineSet
EndChar

StartChar: greater
Encoding: 62 62 121
Width: 948
Flags: W
LayerCount: 2
Fore
SplineSet
471 0 m 1,0,-1
 205 0 l 1,1,-1
 610 635 l 1,2,-1
 205 1214 l 1,3,-1
 420 1214 l 1,4,-1
 842 635 l 1,5,-1
 471 0 l 1,0,-1
EndSplineSet
EndChar

StartChar: bracketleft
Encoding: 91 91 122
Width: 1182
Flags: W
LayerCount: 2
Fore
SplineSet
514 1698 m 1,0,-1
 535 -418 l 1,1,-1
 881 -418 l 1,2,-1
 881 -686 l 1,3,-1
 270 -686 l 1,4,-1
 297 1913 l 1,5,-1
 881 1913 l 1,6,-1
 881 1698 l 1,7,-1
 514 1698 l 1,0,-1
EndSplineSet
EndChar

StartChar: bracketright
Encoding: 93 93 123
Width: 1182
Flags: W
LayerCount: 2
Fore
SplineSet
231 1698 m 1,0,-1
 231 1913 l 1,1,-1
 815 1913 l 1,2,-1
 842 -686 l 1,3,-1
 231 -686 l 1,4,-1
 231 -418 l 1,5,-1
 578 -418 l 1,6,-1
 598 1698 l 1,7,-1
 231 1698 l 1,0,-1
EndSplineSet
EndChar

StartChar: circumflex
Encoding: 710 710 124
Width: 1151
Flags: W
LayerCount: 2
Fore
SplineSet
764 1432 m 1,0,-1
 569 1630 l 1,1,-1
 373 1432 l 1,2,-1
 240 1565 l 1,3,-1
 569 1913 l 1,4,-1
 897 1565 l 1,5,-1
 764 1432 l 1,0,-1
EndSplineSet
EndChar

StartChar: bullet
Encoding: 8226 8226 125
Width: 1436
Flags: W
LayerCount: 2
Fore
SplineSet
1030 631 m 0,0,1
 1030 556 1030 556 1002 490.5 c 128,-1,2
 974 425 974 425 925 376 c 128,-1,3
 876 327 876 327 810.5 298.5 c 128,-1,4
 745 270 745 270 670 270 c 256,5,6
 595 270 595 270 529.5 298.5 c 128,-1,7
 464 327 464 327 415 376 c 128,-1,8
 366 425 366 425 337.5 490.5 c 128,-1,9
 309 556 309 556 309 631 c 0,10,11
 309 705 309 705 337.5 770.5 c 128,-1,12
 366 836 366 836 415 885 c 128,-1,13
 464 934 464 934 529.5 962.5 c 128,-1,14
 595 991 595 991 670 991 c 256,15,16
 745 991 745 991 810.5 962.5 c 128,-1,17
 876 934 876 934 925 885 c 128,-1,18
 974 836 974 836 1002 770.5 c 128,-1,19
 1030 705 1030 705 1030 631 c 0,0,1
EndSplineSet
EndChar

StartChar: braceleft
Encoding: 123 123 126
Width: 1264
Flags: W
LayerCount: 2
Fore
SplineSet
1024 -686 m 1,0,1
 976 -686 976 -686 926.5 -670 c 128,-1,2
 877 -654 877 -654 832 -627 c 128,-1,3
 787 -600 787 -600 750.5 -564 c 128,-1,4
 714 -528 714 -528 694 -487 c 0,5,6
 660 -416 660 -416 638.5 -366.5 c 128,-1,7
 617 -317 617 -317 606 -291 c 0,8,9
 588 -247 588 -247 564 -189.5 c 128,-1,10
 540 -132 540 -132 520 -57 c 0,11,12
 491 45 491 45 467 149.5 c 128,-1,13
 443 254 443 254 432 369 c 0,14,15
 430 383 430 383 429 396.5 c 128,-1,16
 428 410 428 410 426 424 c 1,17,-1
 426 414 l 1,18,19
 426 436 426 436 417 457 c 128,-1,20
 408 478 408 478 393 497 c 128,-1,21
 378 516 378 516 359 533 c 128,-1,22
 340 550 340 550 320 565 c 0,23,24
 273 599 273 599 213 627 c 1,25,26
 269 653 269 653 315 685 c 0,27,28
 334 699 334 699 353 715 c 128,-1,29
 372 731 372 731 387.5 749 c 128,-1,30
 403 767 403 767 414 786.5 c 128,-1,31
 425 806 425 806 428 827 c 2,32,-1
 428 838 l 1,33,-1
 428 840 l 1,34,-1
 428 838 l 1,35,36
 440 969 440 969 464.5 1083 c 128,-1,37
 489 1197 489 1197 524 1313 c 0,38,39
 546 1390 546 1390 590.5 1496.5 c 128,-1,40
 635 1603 635 1603 698 1739 c 0,41,42
 718 1777 718 1777 748 1809 c 128,-1,43
 778 1841 778 1841 815 1864 c 128,-1,44
 852 1887 852 1887 895 1900 c 128,-1,45
 938 1913 938 1913 985 1913 c 2,46,-1
 987 1913 l 1,47,48
 908 1705 908 1705 864.5 1552 c 128,-1,49
 821 1399 821 1399 797 1300 c 0,50,51
 771 1188 771 1188 750.5 1075.5 c 128,-1,52
 730 963 730 963 721 838 c 1,53,-1
 721 825 l 2,54,55
 718 804 718 804 708 784.5 c 128,-1,56
 698 765 698 765 682.5 747 c 128,-1,57
 667 729 667 729 648.5 713.5 c 128,-1,58
 630 698 630 698 611 684 c 0,59,60
 567 653 567 653 512 627 c 1,61,62
 572 599 572 599 619 565 c 0,63,64
 639 550 639 550 658 533 c 128,-1,65
 677 516 677 516 692 497 c 128,-1,66
 707 478 707 478 716 457 c 128,-1,67
 725 436 725 436 725 414 c 1,68,-1
 725 424 l 1,69,70
 739 280 739 280 764.5 145.5 c 128,-1,71
 790 11 790 11 819 -106 c 0,72,73
 844 -207 844 -207 897 -351.5 c 128,-1,74
 950 -496 950 -496 1024 -686 c 1,0,1
EndSplineSet
EndChar

StartChar: braceright
Encoding: 125 125 127
Width: 1260
Flags: W
LayerCount: 2
Fore
SplineSet
213 -686 m 1,0,1
 287 -496 287 -496 340.5 -351.5 c 128,-1,2
 394 -207 394 -207 420 -106 c 0,3,4
 449 11 449 11 474.5 145.5 c 128,-1,5
 500 280 500 280 512 424 c 1,6,-1
 512 414 l 1,7,8
 512 436 512 436 521.5 457 c 128,-1,9
 531 478 531 478 546 497 c 128,-1,10
 561 516 561 516 580.5 533 c 128,-1,11
 600 550 600 550 620 565 c 0,12,13
 667 599 667 599 727 627 c 1,14,15
 672 653 672 653 628 684 c 0,16,17
 609 698 609 698 590.5 713.5 c 128,-1,18
 572 729 572 729 556.5 747 c 128,-1,19
 541 765 541 765 531 784.5 c 128,-1,20
 521 804 521 804 518 825 c 2,21,-1
 518 838 l 1,22,23
 507 963 507 963 487.5 1076 c 128,-1,24
 468 1189 468 1189 440 1300 c 0,25,26
 417 1400 417 1400 373.5 1552 c 128,-1,27
 330 1704 330 1704 252 1913 c 1,28,-1
 254 1913 l 2,29,30
 300 1913 300 1913 343 1900 c 128,-1,31
 386 1887 386 1887 422.5 1864 c 128,-1,32
 459 1841 459 1841 489 1809 c 128,-1,33
 519 1777 519 1777 539 1739 c 0,34,35
 602 1603 602 1603 647 1496.5 c 128,-1,36
 692 1390 692 1390 715 1313 c 0,37,38
 749 1197 749 1197 773.5 1083 c 128,-1,39
 798 969 798 969 809 838 c 1,40,-1
 809 840 l 1,41,-1
 809 838 l 2,42,43
 811 835 811 835 811 832 c 128,-1,44
 811 829 811 829 811 827 c 0,45,46
 814 806 814 806 824.5 786.5 c 128,-1,47
 835 767 835 767 850.5 749 c 128,-1,48
 866 731 866 731 885.5 715 c 128,-1,49
 905 699 905 699 924 685 c 0,50,51
 970 653 970 653 1026 627 c 1,52,53
 966 599 966 599 919 565 c 0,54,55
 899 550 899 550 879.5 533 c 128,-1,56
 860 516 860 516 845 497 c 128,-1,57
 830 478 830 478 820.5 457 c 128,-1,58
 811 436 811 436 811 414 c 1,59,-1
 811 424 l 1,60,61
 811 410 811 410 810 396.5 c 128,-1,62
 809 383 809 383 807 369 c 0,63,64
 796 254 796 254 771.5 149.5 c 128,-1,65
 747 45 747 45 719 -57 c 0,66,67
 699 -132 699 -132 674.5 -189.5 c 128,-1,68
 650 -247 650 -247 633 -291 c 0,69,70
 622 -317 622 -317 599.5 -366.5 c 128,-1,71
 577 -416 577 -416 545 -487 c 0,72,73
 525 -528 525 -528 489 -564 c 128,-1,74
 453 -600 453 -600 407.5 -627 c 128,-1,75
 362 -654 362 -654 311.5 -670 c 128,-1,76
 261 -686 261 -686 213 -686 c 1,0,1
EndSplineSet
EndChar

StartChar: bar
Encoding: 124 124 128
Width: 854
Flags: W
LayerCount: 2
Fore
SplineSet
313 1913 m 1,0,-1
 528 1913 l 1,1,-1
 555 -43 l 1,2,-1
 287 -43 l 1,3,-1
 313 1913 l 1,0,-1
EndSplineSet
EndChar

StartChar: endash
Encoding: 8211 8211 129
Width: 2382
Flags: W
LayerCount: 2
Fore
SplineSet
1774 516 m 1,0,-1
 219 516 l 1,1,-1
 219 748 l 1,2,-1
 1774 748 l 1,3,-1
 1774 516 l 1,0,-1
EndSplineSet
EndChar

StartChar: germandbls
Encoding: 223 223 130
Width: 1898
Flags: W
LayerCount: 2
Fore
SplineSet
1024 1913 m 2,0,1
 1123 1913 1123 1913 1217 1880.5 c 128,-1,2
 1311 1848 1311 1848 1389 1788 c 0,3,4
 1467 1725 1467 1725 1508.5 1648.5 c 128,-1,5
 1550 1572 1550 1572 1550 1489 c 0,6,7
 1550 1414 1550 1414 1539 1357 c 128,-1,8
 1528 1300 1528 1300 1501.5 1256 c 128,-1,9
 1475 1212 1475 1212 1430.5 1177.5 c 128,-1,10
 1386 1143 1386 1143 1319 1114 c 2,11,-1
 1243 1077 l 1,12,-1
 1319 1055 l 2,13,14
 1401 1030 1401 1030 1469.5 980 c 128,-1,15
 1538 930 1538 930 1587.5 863.5 c 128,-1,16
 1637 797 1637 797 1664 717 c 128,-1,17
 1691 637 1691 637 1690 551 c 0,18,19
 1690 478 1690 478 1669.5 408.5 c 128,-1,20
 1649 339 1649 339 1612 278 c 128,-1,21
 1575 217 1575 217 1524 166 c 128,-1,22
 1473 115 1473 115 1412 78 c 128,-1,23
 1351 41 1351 41 1281.5 20.5 c 128,-1,24
 1212 0 1212 0 1139 0 c 2,25,-1
 930 0 l 1,26,-1
 924 242 l 1,27,-1
 1112 242 l 2,28,29
 1184 242 1184 242 1248 269.5 c 128,-1,30
 1312 297 1312 297 1359.5 344.5 c 128,-1,31
 1407 392 1407 392 1434.5 456 c 128,-1,32
 1462 520 1462 520 1462 592 c 0,33,34
 1462 665 1462 665 1434.5 728.5 c 128,-1,35
 1407 792 1407 792 1359.5 839.5 c 128,-1,36
 1312 887 1312 887 1248 914.5 c 128,-1,37
 1184 942 1184 942 1112 942 c 2,38,-1
 909 942 l 1,39,-1
 905 1163 l 1,40,-1
 1024 1163 l 2,41,42
 1086 1163 1086 1163 1141.5 1186 c 128,-1,43
 1197 1209 1197 1209 1238.5 1248 c 128,-1,44
 1280 1287 1280 1287 1304.5 1339.5 c 128,-1,45
 1329 1392 1329 1392 1329 1450 c 0,46,47
 1329 1507 1329 1507 1305.5 1560 c 128,-1,48
 1282 1613 1282 1613 1239 1657 c 0,49,50
 1194 1700 1194 1700 1138 1722.5 c 128,-1,51
 1082 1745 1082 1745 1022 1745 c 2,52,-1
 774 1745 l 2,53,54
 714 1745 714 1745 661 1722.5 c 128,-1,55
 608 1700 608 1700 569 1657 c 0,56,57
 534 1615 534 1615 515 1563 c 128,-1,58
 496 1511 496 1511 496 1454 c 1,59,-1
 496 1454 l 1,60,-1
 526 0 l 1,61,-1
 215 0 l 1,62,-1
 250 1489 l 1,63,-1
 250 1489 l 1,64,65
 250 1572 250 1572 291.5 1648.5 c 128,-1,66
 333 1725 333 1725 412 1788 c 0,67,68
 487 1848 487 1848 582 1880.5 c 128,-1,69
 677 1913 677 1913 774 1913 c 2,70,-1
 1024 1913 l 2,0,1
EndSplineSet
EndChar

StartChar: Ccedilla
Encoding: 199 199 131
Width: 2130
Flags: W
LayerCount: 2
Fore
SplineSet
1833 502 m 1,0,1
 1832 419 1832 419 1810 353.5 c 128,-1,2
 1788 288 1788 288 1754.5 238 c 128,-1,3
 1721 188 1721 188 1681.5 151.5 c 128,-1,4
 1642 115 1642 115 1606 90 c 0,5,6
 1555 56 1555 56 1496 34 c 128,-1,7
 1437 12 1437 12 1372.5 -1 c 128,-1,8
 1308 -14 1308 -14 1238.5 -19 c 128,-1,9
 1169 -24 1169 -24 1096 -25 c 1,10,-1
 1096 -98 l 1,11,12
 1154 -98 1154 -98 1205.5 -120.5 c 128,-1,13
 1257 -143 1257 -143 1295 -181 c 128,-1,14
 1333 -219 1333 -219 1355.5 -271 c 128,-1,15
 1378 -323 1378 -323 1378 -381 c 0,16,17
 1378 -440 1378 -440 1355.5 -491.5 c 128,-1,18
 1333 -543 1333 -543 1295 -581 c 128,-1,19
 1257 -619 1257 -619 1205.5 -641.5 c 128,-1,20
 1154 -664 1154 -664 1096 -664 c 2,21,-1
 913 -664 l 1,22,-1
 913 -530 l 1,23,-1
 1096 -530 l 2,24,25
 1127 -530 1127 -530 1154 -518.5 c 128,-1,26
 1181 -507 1181 -507 1201.5 -486.5 c 128,-1,27
 1222 -466 1222 -466 1233.5 -439 c 128,-1,28
 1245 -412 1245 -412 1245 -381 c 256,29,30
 1245 -350 1245 -350 1233.5 -323 c 128,-1,31
 1222 -296 1222 -296 1201.5 -275.5 c 128,-1,32
 1181 -255 1181 -255 1154 -243 c 128,-1,33
 1127 -231 1127 -231 1096 -231 c 2,34,-1
 971 -231 l 1,35,-1
 971 -23 l 1,36,37
 813 -10 813 -10 681.5 53.5 c 128,-1,38
 550 117 550 117 453 236 c 0,39,40
 344 369 344 369 284.5 545.5 c 128,-1,41
 225 722 225 722 225 922 c 0,42,43
 225 1163 225 1163 284 1344.5 c 128,-1,44
 343 1526 343 1526 461 1661 c 0,45,46
 519 1729 519 1729 590.5 1779.5 c 128,-1,47
 662 1830 662 1830 743 1863.5 c 128,-1,48
 824 1897 824 1897 911.5 1914 c 128,-1,49
 999 1931 999 1931 1090 1931 c 0,50,51
 1400 1931 1400 1931 1595 1780 c 0,52,53
 1661 1727 1661 1727 1711 1651.5 c 128,-1,54
 1761 1576 1761 1576 1784 1470 c 1,55,-1
 1470 1470 l 1,56,57
 1465 1509 1465 1509 1446 1541.5 c 128,-1,58
 1427 1574 1427 1574 1405 1595 c 0,59,60
 1350 1655 1350 1655 1274.5 1678.5 c 128,-1,61
 1199 1702 1199 1702 1092 1702 c 0,62,63
 1017 1702 1017 1702 946.5 1679 c 128,-1,64
 876 1656 876 1656 814.5 1614 c 128,-1,65
 753 1572 753 1572 704 1513 c 128,-1,66
 655 1454 655 1454 623 1382 c 0,67,68
 602 1335 602 1335 587 1297 c 128,-1,69
 572 1259 572 1259 562.5 1218.5 c 128,-1,70
 553 1178 553 1178 548.5 1129 c 128,-1,71
 544 1080 544 1080 543 1012 c 0,72,73
 543 941 543 941 555 872 c 128,-1,74
 567 803 567 803 584 743 c 128,-1,75
 601 683 601 683 621 635.5 c 128,-1,76
 641 588 641 588 657 559 c 0,77,78
 665 545 665 545 677 521 c 128,-1,79
 689 497 689 497 708.5 470 c 128,-1,80
 728 443 728 443 757 415 c 128,-1,81
 786 387 786 387 829.5 364.5 c 128,-1,82
 873 342 873 342 931.5 327.5 c 128,-1,83
 990 313 990 313 1069 313 c 0,84,85
 1117 313 1117 313 1163 317.5 c 128,-1,86
 1209 322 1209 322 1248.5 329 c 128,-1,87
 1288 336 1288 336 1317.5 345.5 c 128,-1,88
 1347 355 1347 355 1362 365 c 0,89,90
 1394 386 1394 386 1413.5 422 c 128,-1,91
 1433 458 1433 458 1438 502 c 1,92,-1
 1833 502 l 1,0,1
EndSplineSet
EndChar

StartChar: ccedilla
Encoding: 231 231 132
Width: 1352
Flags: W
LayerCount: 2
Fore
SplineSet
1188 307 m 1,0,1
 1188 267 1188 267 1173 227 c 128,-1,2
 1158 187 1158 187 1135.5 152.5 c 128,-1,3
 1113 118 1113 118 1086 90 c 128,-1,4
 1059 62 1059 62 1036 45 c 0,5,6
 1001 18 1001 18 962 1 c 128,-1,7
 923 -16 923 -16 881 -25.5 c 128,-1,8
 839 -35 839 -35 794.5 -38.5 c 128,-1,9
 750 -42 750 -42 702 -43 c 1,10,-1
 702 -88 l 1,11,12
 744 -88 744 -88 781 -104 c 128,-1,13
 818 -120 818 -120 845.5 -147.5 c 128,-1,14
 873 -175 873 -175 889 -212 c 128,-1,15
 905 -249 905 -249 905 -291 c 256,16,17
 905 -333 905 -333 889 -370 c 128,-1,18
 873 -407 873 -407 845.5 -434.5 c 128,-1,19
 818 -462 818 -462 781 -478 c 128,-1,20
 744 -494 744 -494 702 -494 c 2,21,-1
 571 -494 l 1,22,-1
 571 -399 l 1,23,-1
 702 -399 l 2,24,25
 725 -399 725 -399 744.5 -390.5 c 128,-1,26
 764 -382 764 -382 778 -367 c 128,-1,27
 792 -352 792 -352 800.5 -332.5 c 128,-1,28
 809 -313 809 -313 809 -291 c 256,29,30
 809 -269 809 -269 800.5 -249 c 128,-1,31
 792 -229 792 -229 778 -215 c 128,-1,32
 764 -201 764 -201 744.5 -192.5 c 128,-1,33
 725 -184 725 -184 702 -184 c 2,34,-1
 612 -184 l 1,35,-1
 612 -41 l 1,36,37
 507 -32 507 -32 417.5 9 c 128,-1,38
 328 50 328 50 266 127 c 0,39,40
 194 215 194 215 158.5 334 c 128,-1,41
 123 453 123 453 123 584 c 0,42,43
 123 746 123 746 162 864.5 c 128,-1,44
 201 983 201 983 279 1073 c 256,45,46
 357 1163 357 1163 466 1208 c 128,-1,47
 575 1253 575 1253 696 1253 c 0,48,49
 800 1253 800 1253 882.5 1228 c 128,-1,50
 965 1203 965 1203 1030 1153 c 0,51,52
 1075 1119 1075 1119 1107 1067.5 c 128,-1,53
 1139 1016 1139 1016 1159 948 c 1,54,-1
 938 948 l 1,55,56
 929 973 929 973 918.5 993.5 c 128,-1,57
 908 1014 908 1014 893 1028 c 0,58,59
 875 1044 875 1044 855.5 1057 c 128,-1,60
 836 1070 836 1070 812.5 1079 c 128,-1,61
 789 1088 789 1088 760.5 1093 c 128,-1,62
 732 1098 732 1098 696 1098 c 0,63,64
 648 1098 648 1098 603 1083 c 128,-1,65
 558 1068 558 1068 519 1041 c 128,-1,66
 480 1014 480 1014 449 975.5 c 128,-1,67
 418 937 418 937 397 889 c 0,68,69
 383 858 383 858 375 833.5 c 128,-1,70
 367 809 367 809 362.5 783.5 c 128,-1,71
 358 758 358 758 357 726.5 c 128,-1,72
 356 695 356 695 356 649 c 0,73,74
 356 604 356 604 359.5 564.5 c 128,-1,75
 363 525 363 525 370.5 489 c 128,-1,76
 378 453 378 453 390 419.5 c 128,-1,77
 402 386 402 386 418 352 c 0,78,79
 431 324 431 324 445 299.5 c 128,-1,80
 459 275 459 275 485.5 257.5 c 128,-1,81
 512 240 512 240 558 230 c 128,-1,82
 604 220 604 220 682 219 c 0,83,84
 714 219 714 219 745 220 c 128,-1,85
 776 221 776 221 802 223.5 c 128,-1,86
 828 226 828 226 848 230 c 128,-1,87
 868 234 868 234 879 240 c 0,88,89
 900 251 900 251 911.5 264.5 c 128,-1,90
 923 278 923 278 926 307 c 1,91,-1
 1188 307 l 1,0,1
EndSplineSet
EndChar

StartChar: trademark
Encoding: 8482 8482 133
Width: 1419
Flags: W
LayerCount: 2
Fore
SplineSet
602 1913 m 1,0,-1
 602 1845 l 1,1,-1
 422 1845 l 1,2,-1
 434 1356 l 1,3,-1
 336 1356 l 1,4,-1
 348 1845 l 1,5,-1
 168 1845 l 1,6,-1
 168 1913 l 1,7,-1
 602 1913 l 1,0,-1
956 1526 m 1,8,-1
 1120 1913 l 1,9,-1
 1214 1913 l 1,10,-1
 1251 1356 l 1,11,-1
 1145 1356 l 1,12,-1
 1157 1847 l 1,13,-1
 1014 1444 l 1,14,-1
 899 1444 l 1,15,-1
 754 1847 l 1,16,-1
 768 1356 l 1,17,-1
 662 1356 l 1,18,-1
 698 1913 l 1,19,-1
 793 1913 l 1,20,-1
 956 1526 l 1,8,-1
EndSplineSet
EndChar

StartChar: cedilla
Encoding: 184 184 134
Width: 1706
Flags: W
LayerCount: 2
Fore
SplineSet
735 0 m 1,0,-1
 735 -45 l 1,1,2
 777 -45 777 -45 814 -61 c 128,-1,3
 851 -77 851 -77 878.5 -105 c 128,-1,4
 906 -133 906 -133 922 -169.5 c 128,-1,5
 938 -206 938 -206 938 -248 c 256,6,7
 938 -290 938 -290 922 -327.5 c 128,-1,8
 906 -365 906 -365 878.5 -392.5 c 128,-1,9
 851 -420 851 -420 814 -436.5 c 128,-1,10
 777 -453 777 -453 735 -453 c 2,11,-1
 604 -453 l 1,12,-1
 604 -356 l 1,13,-1
 735 -356 l 2,14,15
 758 -356 758 -356 777.5 -347.5 c 128,-1,16
 797 -339 797 -339 811 -324 c 128,-1,17
 825 -309 825 -309 833.5 -289.5 c 128,-1,18
 842 -270 842 -270 842 -248 c 256,19,20
 842 -226 842 -226 833.5 -206 c 128,-1,21
 825 -186 825 -186 811 -172 c 128,-1,22
 797 -158 797 -158 777.5 -149.5 c 128,-1,23
 758 -141 758 -141 735 -141 c 2,24,-1
 645 -141 l 1,25,-1
 645 0 l 1,26,-1
 735 0 l 1,0,-1
EndSplineSet
EndChar

StartChar: oslash
Encoding: 248 248 136
Width: 1466
Flags: W
LayerCount: 2
Fore
SplineSet
1147 1071 m 0,0,1
 1185 1026 1185 1026 1217 972.5 c 128,-1,2
 1249 919 1249 919 1272 858 c 128,-1,3
 1295 797 1295 797 1308 728.5 c 128,-1,4
 1321 660 1321 660 1321 584 c 0,5,6
 1321 439 1321 439 1275 325.5 c 128,-1,7
 1229 212 1229 212 1155 127 c 0,8,9
 1081 40 1081 40 983 -1.5 c 128,-1,10
 885 -43 885 -43 758 -43 c 2,11,-1
 705 -43 l 2,12,13
 652 -43 652 -43 605.5 -35.5 c 128,-1,14
 559 -28 559 -28 516 -14 c 1,15,-1
 477 -84 l 1,16,-1
 225 -84 l 1,17,-1
 332 100 l 1,18,19
 326 107 326 107 319.5 113 c 128,-1,20
 313 119 313 119 307 127 c 0,21,22
 235 212 235 212 188 325.5 c 128,-1,23
 141 439 141 439 141 584 c 0,24,25
 141 660 141 660 154 728.5 c 128,-1,26
 167 797 167 797 190 858 c 128,-1,27
 213 919 213 919 245 972.5 c 128,-1,28
 277 1026 277 1026 315 1071 c 0,29,30
 393 1162 393 1162 495 1206.5 c 128,-1,31
 597 1251 597 1251 727 1253 c 2,32,-1
 739 1253 l 2,33,34
 804 1251 804 1251 862 1240 c 128,-1,35
 920 1229 920 1229 971 1204 c 1,36,-1
 1022 1294 l 1,37,-1
 1237 1294 l 1,38,-1
 1126 1094 l 1,39,40
 1133 1089 1133 1089 1137.5 1083 c 128,-1,41
 1142 1077 1142 1077 1147 1071 c 0,0,1
451 334 m 0,42,43
 453 331 453 331 455 327 c 128,-1,44
 457 323 457 323 459 319 c 1,45,-1
 883 1053 l 1,46,47
 852 1068 852 1068 816 1076.5 c 128,-1,48
 780 1085 780 1085 735 1085 c 2,49,-1
 727 1085 l 2,50,51
 681 1085 681 1085 643.5 1075.5 c 128,-1,52
 606 1066 606 1066 575 1047.5 c 128,-1,53
 544 1029 544 1029 518 1003 c 128,-1,54
 492 977 492 977 469 944 c 0,55,56
 444 910 444 910 426 876.5 c 128,-1,57
 408 843 408 843 396 805.5 c 128,-1,58
 384 768 384 768 378.5 726 c 128,-1,59
 373 684 373 684 373 633 c 0,60,61
 373 585 373 585 377 544 c 128,-1,62
 381 503 381 503 390 467 c 128,-1,63
 399 431 399 431 414 398.5 c 128,-1,64
 429 366 429 366 451 334 c 0,42,43
1004 334 m 0,65,66
 1025 366 1025 366 1041.5 398 c 128,-1,67
 1058 430 1058 430 1068.5 465.5 c 128,-1,68
 1079 501 1079 501 1084.5 541.5 c 128,-1,69
 1090 582 1090 582 1090 631 c 0,70,71
 1090 717 1090 717 1072 780.5 c 128,-1,72
 1054 844 1054 844 1022 901 c 1,73,-1
 647 223 l 1,74,75
 664 220 664 220 682.5 219.5 c 128,-1,76
 701 219 701 219 721 219 c 2,77,-1
 733 219 l 2,78,79
 826 219 826 219 894 244 c 128,-1,80
 962 269 962 269 1004 334 c 0,65,66
EndSplineSet
EndChar

StartChar: otilde
Encoding: 245 245 138
Width: 1466
Flags: W
LayerCount: 2
Fore
SplineSet
860 1380 m 1,0,-1
 598 1630 l 1,1,-1
 412 1419 l 1,2,-1
 268 1565 l 1,3,-1
 596 1913 l 1,4,-1
 860 1669 l 1,5,-1
 1053 1913 l 1,6,-1
 1192 1776 l 1,7,-1
 860 1380 l 1,0,-1
1145 1073 m 0,8,9
 1183 1028 1183 1028 1215 974.5 c 128,-1,10
 1247 921 1247 921 1270 859.5 c 128,-1,11
 1293 798 1293 798 1306 729.5 c 128,-1,12
 1319 661 1319 661 1319 584 c 0,13,14
 1319 440 1319 440 1273 327 c 128,-1,15
 1227 214 1227 214 1153 127 c 0,16,17
 1006 -43 1006 -43 756 -43 c 2,18,-1
 702 -43 l 2,19,20
 452 -43 452 -43 305 127 c 0,21,22
 231 214 231 214 185 327 c 128,-1,23
 139 440 139 440 139 584 c 0,24,25
 139 661 139 661 152 729.5 c 128,-1,26
 165 798 165 798 188 859.5 c 128,-1,27
 211 921 211 921 243 974.5 c 128,-1,28
 275 1028 275 1028 313 1073 c 0,29,30
 466 1250 466 1250 725 1253 c 2,31,-1
 737 1253 l 2,32,33
 992 1250 992 1250 1145 1073 c 0,8,9
1001 334 m 0,34,35
 1023 367 1023 367 1039 399.5 c 128,-1,36
 1055 432 1055 432 1065.5 467.5 c 128,-1,37
 1076 503 1076 503 1081.5 543.5 c 128,-1,38
 1087 584 1087 584 1087 633 c 0,39,40
 1087 683 1087 683 1080.5 725 c 128,-1,41
 1074 767 1074 767 1062 804.5 c 128,-1,42
 1050 842 1050 842 1032 877 c 128,-1,43
 1014 912 1014 912 991 946 c 0,44,45
 968 981 968 981 942 1009 c 128,-1,46
 916 1037 916 1037 885 1056.5 c 128,-1,47
 854 1076 854 1076 816.5 1087 c 128,-1,48
 779 1098 779 1098 733 1098 c 2,49,-1
 725 1098 l 2,50,51
 679 1098 679 1098 641.5 1086.5 c 128,-1,52
 604 1075 604 1075 573 1054.5 c 128,-1,53
 542 1034 542 1034 516 1006.5 c 128,-1,54
 490 979 490 979 467 946 c 0,55,56
 443 912 443 912 425 878 c 128,-1,57
 407 844 407 844 395 807 c 128,-1,58
 383 770 383 770 377 728 c 128,-1,59
 371 686 371 686 371 635 c 0,60,61
 371 587 371 587 375 546 c 128,-1,62
 379 505 379 505 388 469 c 128,-1,63
 397 433 397 433 412 400 c 128,-1,64
 427 367 427 367 449 334 c 0,65,66
 491 269 491 269 558.5 244 c 128,-1,67
 626 219 626 219 719 219 c 2,68,-1
 731 219 l 2,69,70
 824 219 824 219 891.5 244 c 128,-1,71
 959 269 959 269 1001 334 c 0,34,35
EndSplineSet
EndChar

StartChar: acute
Encoding: 180 180 140
Width: 1706
Flags: W
LayerCount: 2
Fore
SplineSet
1130 1722 m 1,0,-1
 737 1356 l 1,1,-1
 573 1522 l 1,2,-1
 940 1913 l 1,3,-1
 1130 1722 l 1,0,-1
EndSplineSet
EndChar

StartChar: copyright
Encoding: 169 169 141
Width: 1706
Flags: W
LayerCount: 2
Fore
SplineSet
848 1253 m 0,0,1
 982 1253 982 1253 1100 1202 c 128,-1,2
 1218 1151 1218 1151 1306 1063.5 c 128,-1,3
 1394 976 1394 976 1444.5 858 c 128,-1,4
 1495 740 1495 740 1495 606 c 256,5,6
 1495 472 1495 472 1444.5 353.5 c 128,-1,7
 1394 235 1394 235 1306 147 c 128,-1,8
 1218 59 1218 59 1100 8 c 128,-1,9
 982 -43 982 -43 848 -43 c 0,10,11
 713 -43 713 -43 595.5 8 c 128,-1,12
 478 59 478 59 390 147 c 128,-1,13
 302 235 302 235 251.5 353.5 c 128,-1,14
 201 472 201 472 201 606 c 0,15,16
 201 695 201 695 224 778 c 128,-1,17
 247 861 247 861 289 932.5 c 128,-1,18
 331 1004 331 1004 390 1063 c 128,-1,19
 449 1122 449 1122 521 1164.5 c 128,-1,20
 593 1207 593 1207 675.5 1230 c 128,-1,21
 758 1253 758 1253 848 1253 c 0,0,1
848 70 m 256,22,23
 959 70 959 70 1057 112 c 128,-1,24
 1155 154 1155 154 1227.5 226.5 c 128,-1,25
 1300 299 1300 299 1342 397 c 128,-1,26
 1384 495 1384 495 1384 606 c 256,27,28
 1384 717 1384 717 1342 814.5 c 128,-1,29
 1300 912 1300 912 1227.5 985 c 128,-1,30
 1155 1058 1155 1058 1057 1100.5 c 128,-1,31
 959 1143 959 1143 848 1143 c 256,32,33
 737 1143 737 1143 639 1100.5 c 128,-1,34
 541 1058 541 1058 468 985 c 128,-1,35
 395 912 395 912 353 814.5 c 128,-1,36
 311 717 311 717 311 606 c 256,37,38
 311 495 311 495 353 397 c 128,-1,39
 395 299 395 299 468 226.5 c 128,-1,40
 541 154 541 154 639 112 c 128,-1,41
 737 70 737 70 848 70 c 256,22,23
842 217 m 0,42,43
 771 217 771 217 710.5 243 c 128,-1,44
 650 269 650 269 606 322 c 0,45,46
 564 374 564 374 540 444.5 c 128,-1,47
 516 515 516 515 516 594 c 0,48,49
 516 690 516 690 539 761.5 c 128,-1,50
 562 833 562 833 610 887 c 0,51,52
 657 941 657 941 722.5 967 c 128,-1,53
 788 993 788 993 860 993 c 0,54,55
 981 993 981 993 1061 934 c 0,56,57
 1112 892 1112 892 1137 811 c 1,58,-1
 1004 811 l 1,59,60
 994 837 994 837 977 854 c 0,61,62
 955 874 955 874 929.5 881.5 c 128,-1,63
 904 889 904 889 860 889 c 0,64,65
 801 889 801 889 750.5 861 c 128,-1,66
 700 833 700 833 674 776 c 0,67,68
 665 758 665 758 659.5 743 c 128,-1,69
 654 728 654 728 650 711.5 c 128,-1,70
 646 695 646 695 644.5 675.5 c 128,-1,71
 643 656 643 656 643 629 c 0,72,73
 643 601 643 601 648 574 c 128,-1,74
 653 547 653 547 659.5 523 c 128,-1,75
 666 499 666 499 674 480.5 c 128,-1,76
 682 462 682 462 688 451 c 0,77,78
 693 442 693 442 701.5 425.5 c 128,-1,79
 710 409 710 409 728 392.5 c 128,-1,80
 746 376 746 376 775.5 364 c 128,-1,81
 805 352 805 352 852 352 c 0,82,83
 870 352 870 352 888.5 353.5 c 128,-1,84
 907 355 907 355 922.5 358 c 128,-1,85
 938 361 938 361 949.5 365 c 128,-1,86
 961 369 961 369 967 373 c 0,87,88
 994 391 994 391 997 428 c 1,89,-1
 1155 428 l 1,90,91
 1154 395 1154 395 1145 369 c 128,-1,92
 1136 343 1136 343 1122.5 323 c 128,-1,93
 1109 303 1109 303 1093.5 288.5 c 128,-1,94
 1078 274 1078 274 1063 264 c 0,95,96
 1020 233 1020 233 963.5 225 c 128,-1,97
 907 217 907 217 842 217 c 0,42,43
EndSplineSet
EndChar

StartChar: registered
Encoding: 174 174 142
Width: 1706
Flags: W
LayerCount: 2
Fore
SplineSet
817 1253 m 256,0,1
 906 1253 906 1253 989 1230 c 128,-1,2
 1072 1207 1072 1207 1143.5 1164.5 c 128,-1,3
 1215 1122 1215 1122 1274 1063 c 128,-1,4
 1333 1004 1333 1004 1375.5 932.5 c 128,-1,5
 1418 861 1418 861 1441 778 c 128,-1,6
 1464 695 1464 695 1464 606 c 256,7,8
 1464 517 1464 517 1441 434 c 128,-1,9
 1418 351 1418 351 1375.5 279 c 128,-1,10
 1333 207 1333 207 1274 147.5 c 128,-1,11
 1215 88 1215 88 1143.5 45.5 c 128,-1,12
 1072 3 1072 3 989 -20 c 128,-1,13
 906 -43 906 -43 817 -43 c 0,14,15
 683 -43 683 -43 564.5 8 c 128,-1,16
 446 59 446 59 358 147 c 128,-1,17
 270 235 270 235 219 353.5 c 128,-1,18
 168 472 168 472 168 606 c 0,19,20
 168 695 168 695 191 778 c 128,-1,21
 214 861 214 861 256.5 932.5 c 128,-1,22
 299 1004 299 1004 358.5 1063 c 128,-1,23
 418 1122 418 1122 490 1164.5 c 128,-1,24
 562 1207 562 1207 645 1230 c 128,-1,25
 728 1253 728 1253 817 1253 c 256,0,1
817 70 m 256,26,27
 928 70 928 70 1025.5 112 c 128,-1,28
 1123 154 1123 154 1196 226.5 c 128,-1,29
 1269 299 1269 299 1311.5 397 c 128,-1,30
 1354 495 1354 495 1354 606 c 256,31,32
 1354 717 1354 717 1311.5 814.5 c 128,-1,33
 1269 912 1269 912 1196 985 c 128,-1,34
 1123 1058 1123 1058 1025.5 1100.5 c 128,-1,35
 928 1143 928 1143 817 1143 c 256,36,37
 706 1143 706 1143 608 1100.5 c 128,-1,38
 510 1058 510 1058 437 985 c 128,-1,39
 364 912 364 912 321.5 814.5 c 128,-1,40
 279 717 279 717 279 606 c 256,41,42
 279 495 279 495 321.5 397 c 128,-1,43
 364 299 364 299 437 226.5 c 128,-1,44
 510 154 510 154 608 112 c 128,-1,45
 706 70 706 70 817 70 c 256,26,27
1159 258 m 1,46,-1
 1012 258 l 1,47,-1
 874 522 l 2,48,49
 871 527 871 527 865 535.5 c 128,-1,50
 859 544 859 544 849.5 552.5 c 128,-1,51
 840 561 840 561 826 567 c 128,-1,52
 812 573 812 573 793 573 c 2,53,-1
 682 573 l 1,54,-1
 688 258 l 1,55,-1
 545 258 l 1,56,-1
 563 1010 l 1,57,-1
 887 1010 l 1,58,-1
 893 1010 l 2,59,60
 942 1010 942 1010 983.5 992.5 c 128,-1,61
 1025 975 1025 975 1055 945 c 128,-1,62
 1085 915 1085 915 1101.5 875 c 128,-1,63
 1118 835 1118 835 1118 791 c 0,64,65
 1118 754 1118 754 1106 720.5 c 128,-1,66
 1094 687 1094 687 1073.5 659.5 c 128,-1,67
 1053 632 1053 632 1024.5 612 c 128,-1,68
 996 592 996 592 963 582 c 1,69,-1
 1159 307 l 1,70,-1
 1159 258 l 1,46,-1
899 682 m 2,71,72
 922 682 922 682 942.5 690.5 c 128,-1,73
 963 699 963 699 978.5 714.5 c 128,-1,74
 994 730 994 730 1003 750.5 c 128,-1,75
 1012 771 1012 771 1012 795 c 0,76,77
 1012 818 1012 818 1003 838 c 128,-1,78
 994 858 994 858 978.5 873 c 128,-1,79
 963 888 963 888 942.5 896.5 c 128,-1,80
 922 905 922 905 899 905 c 2,81,-1
 674 905 l 1,82,-1
 680 682 l 1,83,-1
 899 682 l 2,71,72
EndSplineSet
EndChar

StartChar: ntilde
Encoding: 241 241 143
Width: 1364
Flags: W
LayerCount: 2
Fore
SplineSet
870 1380 m 1,0,-1
 608 1628 l 1,1,-1
 422 1417 l 1,2,-1
 279 1563 l 1,3,-1
 606 1913 l 1,4,-1
 870 1669 l 1,5,-1
 1063 1913 l 1,6,-1
 1202 1774 l 1,7,-1
 870 1380 l 1,0,-1
420 618 m 0,8,9
 420 603 420 603 420.5 569 c 128,-1,10
 421 535 421 535 422.5 488.5 c 128,-1,11
 424 442 424 442 425.5 387.5 c 128,-1,12
 427 333 427 333 428 279 c 0,13,14
 432 152 432 152 436 0 c 1,15,-1
 168 0 l 1,16,17
 181 229 181 229 190 422 c 0,18,19
 194 505 194 505 198 587.5 c 128,-1,20
 202 670 202 670 204.5 742 c 128,-1,21
 207 814 207 814 208.5 869 c 128,-1,22
 210 924 210 924 209 950 c 0,23,24
 208 983 208 983 205 1028 c 128,-1,25
 202 1073 202 1073 198 1115 c 0,26,27
 193 1163 193 1163 188 1214 c 1,28,-1
 401 1214 l 1,29,-1
 416 1016 l 1,30,31
 434 1045 434 1045 454.5 1073.5 c 128,-1,32
 475 1102 475 1102 497.5 1127.5 c 128,-1,33
 520 1153 520 1153 544 1173.5 c 128,-1,34
 568 1194 568 1194 592 1206 c 0,35,36
 641 1229 641 1229 696.5 1241 c 128,-1,37
 752 1253 752 1253 811 1253 c 0,38,39
 942 1253 942 1253 1029.5 1204.5 c 128,-1,40
 1117 1156 1117 1156 1163 1065 c 0,41,42
 1188 1014 1188 1014 1199 944.5 c 128,-1,43
 1210 875 1210 875 1212 778 c 0,44,45
 1213 754 1213 754 1215 707.5 c 128,-1,46
 1217 661 1217 661 1219.5 601.5 c 128,-1,47
 1222 542 1222 542 1224.5 474.5 c 128,-1,48
 1227 407 1227 407 1230 340 c 0,49,50
 1237 183 1237 183 1245 0 c 1,51,-1
 977 0 l 1,52,53
 983 164 983 164 986 282 c 128,-1,54
 989 400 989 400 991 482 c 128,-1,55
 993 564 993 564 994 615 c 128,-1,56
 995 666 995 666 995 696 c 128,-1,57
 995 726 995 726 995 741 c 128,-1,58
 995 756 995 756 995 766 c 0,59,60
 995 841 995 841 990.5 881.5 c 128,-1,61
 986 922 986 922 975 948 c 0,62,63
 964 973 964 973 949.5 999.5 c 128,-1,64
 935 1026 935 1026 912 1048 c 128,-1,65
 889 1070 889 1070 855.5 1084 c 128,-1,66
 822 1098 822 1098 774 1098 c 0,67,68
 732 1098 732 1098 693 1080.5 c 128,-1,69
 654 1063 654 1063 619 1035.5 c 128,-1,70
 584 1008 584 1008 554 975 c 128,-1,71
 524 942 524 942 500 911 c 0,72,73
 475 879 475 879 460 853 c 128,-1,74
 445 827 445 827 434 788 c 0,75,76
 423 753 423 753 420.5 715.5 c 128,-1,77
 418 678 418 678 420 618 c 0,8,9
EndSplineSet
EndChar

StartChar: tilde
Encoding: 732 732 145
Width: 1706
Flags: W
LayerCount: 2
Fore
SplineSet
987 1380 m 1,0,-1
 725 1630 l 1,1,-1
 541 1419 l 1,2,-1
 395 1565 l 1,3,-1
 725 1913 l 1,4,-1
 987 1669 l 1,5,-1
 1182 1913 l 1,6,-1
 1321 1776 l 1,7,-1
 987 1380 l 1,0,-1
EndSplineSet
EndChar

StartChar: asciitilde
Encoding: 126 126 146
Width: 1229
Flags: W
LayerCount: 2
Fore
SplineSet
739 365 m 1,0,-1
 477 614 l 1,1,-1
 293 403 l 1,2,-1
 147 549 l 1,3,-1
 477 897 l 1,4,-1
 739 653 l 1,5,-1
 934 897 l 1,6,-1
 1073 760 l 1,7,-1
 739 365 l 1,0,-1
EndSplineSet
EndChar

StartChar: periodcentered
Encoding: 183 183 147
Width: 799
Flags: W
LayerCount: 2
Fore
SplineSet
598 936 m 256,0,1
 598 894 598 894 582 857 c 128,-1,2
 566 820 566 820 538 792.5 c 128,-1,3
 510 765 510 765 473.5 749 c 128,-1,4
 437 733 437 733 395 733 c 256,5,6
 353 733 353 733 315.5 749 c 128,-1,7
 278 765 278 765 250.5 792.5 c 128,-1,8
 223 820 223 820 206.5 857 c 128,-1,9
 190 894 190 894 190 936 c 256,10,11
 190 978 190 978 206.5 1015 c 128,-1,12
 223 1052 223 1052 250.5 1079.5 c 128,-1,13
 278 1107 278 1107 315.5 1123 c 128,-1,14
 353 1139 353 1139 395 1139 c 256,15,16
 437 1139 437 1139 473.5 1123 c 128,-1,17
 510 1107 510 1107 538 1079.5 c 128,-1,18
 566 1052 566 1052 582 1015 c 128,-1,19
 598 978 598 978 598 936 c 256,0,1
EndSplineSet
EndChar

StartChar: questiondown
Encoding: 191 191 148
Width: 1378
Flags: W
LayerCount: 2
Fore
SplineSet
1040 97 m 0,0,1
 970 31 970 31 870 -6 c 128,-1,2
 770 -43 770 -43 647 -43 c 0,3,4
 590 -43 590 -43 533 -36 c 128,-1,5
 476 -29 476 -29 423 -14.5 c 128,-1,6
 370 0 370 0 324 21.5 c 128,-1,7
 278 43 278 43 244 71 c 0,8,9
 175 128 175 128 137 205.5 c 128,-1,10
 99 283 99 283 99 372 c 0,11,12
 99 426 99 426 108.5 489 c 128,-1,13
 118 552 118 552 138 605 c 0,14,15
 151 639 151 639 168 669.5 c 128,-1,16
 185 700 185 700 207.5 730 c 128,-1,17
 230 760 230 760 259.5 790 c 128,-1,18
 289 820 289 820 327 853 c 0,19,20
 355 877 355 877 373.5 890.5 c 128,-1,21
 392 904 392 904 405.5 913.5 c 128,-1,22
 419 923 419 923 430.5 930.5 c 128,-1,23
 442 938 442 938 456 950 c 0,24,25
 471 962 471 962 482 985 c 128,-1,26
 493 1008 493 1008 501 1037.5 c 128,-1,27
 509 1067 509 1067 513.5 1101 c 128,-1,28
 518 1135 518 1135 521 1168 c 0,29,30
 528 1246 528 1246 526 1338 c 1,31,-1
 789 1338 l 1,32,33
 790 1245 790 1245 786 1166 c 0,34,35
 785 1133 785 1133 782 1099 c 128,-1,36
 779 1065 779 1065 774 1036 c 128,-1,37
 769 1007 769 1007 762 984 c 128,-1,38
 755 961 755 961 745 950 c 0,39,40
 724 925 724 925 707 906 c 128,-1,41
 690 887 690 887 670.5 868 c 128,-1,42
 651 849 651 849 627 828 c 128,-1,43
 603 807 603 807 570 778 c 0,44,45
 541 757 541 757 514 732 c 0,46,47
 490 712 490 712 464 684.5 c 128,-1,48
 438 657 438 657 418 628 c 0,49,50
 404 608 404 608 396.5 585 c 128,-1,51
 389 562 389 562 385.5 538.5 c 128,-1,52
 382 515 382 515 381.5 493.5 c 128,-1,53
 381 472 381 472 381 454 c 0,54,55
 381 404 381 404 394.5 363.5 c 128,-1,56
 408 323 408 323 442 287 c 0,57,58
 477 250 477 250 526.5 235.5 c 128,-1,59
 576 221 576 221 654 221 c 0,60,61
 702 221 702 221 739 225 c 128,-1,62
 776 229 776 229 805 239.5 c 128,-1,63
 834 250 834 250 856 267 c 128,-1,64
 878 284 878 284 896 311 c 0,65,66
 907 328 907 328 912.5 351.5 c 128,-1,67
 918 375 918 375 920.5 397.5 c 128,-1,68
 923 420 923 420 923.5 436 c 128,-1,69
 924 452 924 452 924 454 c 1,70,-1
 1166 454 l 1,71,72
 1167 430 1167 430 1160.5 384 c 128,-1,73
 1154 338 1154 338 1139 285.5 c 128,-1,74
 1124 233 1124 233 1099.5 181.5 c 128,-1,75
 1075 130 1075 130 1040 97 c 0,0,1
516 1733 m 256,76,77
 516 1763 516 1763 527 1788.5 c 128,-1,78
 538 1814 538 1814 557.5 1833.5 c 128,-1,79
 577 1853 577 1853 602.5 1864 c 128,-1,80
 628 1875 628 1875 658 1875 c 0,81,82
 687 1875 687 1875 713 1864 c 128,-1,83
 739 1853 739 1853 758 1833.5 c 128,-1,84
 777 1814 777 1814 788 1788.5 c 128,-1,85
 799 1763 799 1763 799 1733 c 256,86,87
 799 1703 799 1703 788 1677.5 c 128,-1,88
 777 1652 777 1652 758 1632.5 c 128,-1,89
 739 1613 739 1613 713 1602 c 128,-1,90
 687 1591 687 1591 658 1591 c 0,91,92
 628 1591 628 1591 602.5 1602 c 128,-1,93
 577 1613 577 1613 557.5 1632.5 c 128,-1,94
 538 1652 538 1652 527 1677.5 c 128,-1,95
 516 1703 516 1703 516 1733 c 256,76,77
EndSplineSet
EndChar

